<svg width="409" height="215" viewBox="0 0 409 215" fill="none" xmlns="http://www.w3.org/2000/svg">
<rect y="0.5" width="409" height="67" rx="4" fill="#F2F7FF"/>
<rect x="21.0625" y="32.9922" width="120.166" height="10.3906" fill="#F7BD00" fill-opacity="0.3"/>
<path d="M29.8711 40L30.416 36.7129H27.6738L27.1289 40H25.3887L25.9336 36.7129H24.1406L24.4219 34.9902H26.2148L26.6543 32.2832H24.8789L25.1602 30.5605H26.9531L27.4805 27.2734H29.2207L28.6934 30.5605H31.4355L31.9629 27.2734H33.6855L33.1582 30.5605H34.9512L34.6523 32.2832H32.8594L32.4199 34.9902H34.2129L33.9316 36.7129H32.1387L31.5938 40H29.8711ZM27.9551 34.9902H30.6973L31.1367 32.2832H28.3945L27.9551 34.9902ZM46.0584 34.1816V36.748C47.4383 36.6777 48.827 36.5547 50.1366 36.3613L50.2948 37.8027C46.7264 38.4531 42.912 38.4883 40.117 38.4883L39.8709 36.9062C41.1102 36.8975 42.5692 36.8887 44.1073 36.8359V34.1816H46.0584ZM49.4862 27.625V29.207H46.0936C46.1815 30.9033 47.5262 32.4326 49.9256 33.0391L49.0291 34.5684C47.1483 34.0586 45.8036 32.96 45.0916 31.5449C44.3885 33.0391 43.0614 34.1816 41.1717 34.6914L40.2401 33.2148C42.6395 32.5557 43.9579 30.9912 44.0721 29.207H40.7147V27.625H44.1073V25.8145H46.0584V27.625H49.4862ZM53.037 25.6738V41.582H51.0858V25.6738H53.037ZM68.988 25.6738V41.5645H67.1248V33.4609H65.3318V40.7559H63.5388V25.9727H65.3318V31.8965H67.1248V25.6738H68.988ZM61.7459 27.5547V29.1367H57.7732V36.2031C59.5046 36.1855 60.9285 36.0977 62.5369 35.7988L62.6775 37.3984C60.7615 37.7852 59.0916 37.8379 56.8767 37.8555H55.8045V27.5547H61.7459ZM80.3414 40.1758C77.8629 40.1582 75.3668 38.6816 75.3844 33.9883C75.3844 29.6289 77.3707 27.0977 80.482 27.0977C82.943 27.0977 84.6305 28.6445 84.9117 30.7012H82.6441C82.4156 29.7344 81.6422 29.084 80.482 29.084C78.6363 29.084 77.5992 30.7188 77.5992 33.3906H77.7223C78.3727 32.3008 79.6031 31.6504 80.9918 31.6504C83.277 31.6504 85.0348 33.373 85.0348 35.7812C85.0348 38.3125 83.1539 40.1934 80.3414 40.1758ZM80.3414 38.3301C81.7652 38.3301 82.8199 37.2227 82.8199 35.834C82.8199 34.4805 81.7828 33.3906 80.3766 33.3906C78.9527 33.3906 77.8629 34.5156 77.8453 35.8516C77.8629 37.1875 78.9 38.3301 80.3414 38.3301ZM91.6167 40.1758C88.5581 40.1758 86.73 37.8027 86.73 33.6367C86.73 29.4883 88.5581 27.0977 91.6167 27.0977C94.6577 27.0977 96.5034 29.4883 96.5034 33.6367C96.5034 37.8027 94.6753 40.1758 91.6167 40.1758ZM91.6167 38.2598C93.2163 38.2598 94.2007 36.6953 94.2007 33.6367C94.2007 30.5957 93.1987 28.9961 91.6167 28.9961C90.0347 28.9961 89.0327 30.5957 89.0327 33.6367C89.0327 36.6953 90.0171 38.2598 91.6167 38.2598ZM103.068 40.1758C100.009 40.1758 98.1811 37.8027 98.1811 33.6367C98.1811 29.4883 100.009 27.0977 103.068 27.0977C106.109 27.0977 107.955 29.4883 107.955 33.6367C107.955 37.8027 106.126 40.1758 103.068 40.1758ZM103.068 38.2598C104.667 38.2598 105.652 36.6953 105.652 33.6367C105.652 30.5957 104.65 28.9961 103.068 28.9961C101.486 28.9961 100.484 30.5957 100.484 33.6367C100.484 36.6953 101.468 38.2598 103.068 38.2598ZM117.62 40.1758C115.37 40.1758 113.683 38.3828 113.683 35.2363C113.683 32.0547 115.423 30.332 117.638 30.332C119.325 30.332 120.029 31.334 120.363 32.0195H120.45V27.2734H122.683V40H120.486V38.4883H120.363C120.011 39.1914 119.273 40.1758 117.62 40.1758ZM118.236 38.3301C119.677 38.3301 120.503 37.082 120.503 35.2188C120.503 33.373 119.695 32.1602 118.236 32.1602C116.741 32.1602 115.968 33.4434 115.968 35.2188C115.968 37.0293 116.759 38.3301 118.236 38.3301ZM124.905 43.5859V30.4551H127.103V32.0195H127.243C127.595 31.334 128.298 30.332 129.986 30.332C132.183 30.332 133.923 32.0547 133.923 35.2363C133.923 38.3828 132.236 40.1758 129.986 40.1758C128.333 40.1758 127.595 39.1914 127.243 38.4883H127.155V43.5859H124.905ZM127.103 35.2188C127.103 37.082 127.911 38.3301 129.37 38.3301C130.847 38.3301 131.638 37.0293 131.638 35.2188C131.638 33.4434 130.864 32.1602 129.37 32.1602C127.911 32.1602 127.103 33.373 127.103 35.2188ZM135.636 40V30.4551H137.886V40H135.636ZM136.778 29.1016C136.075 29.1016 135.478 28.5566 135.478 27.8711C135.478 27.2031 136.075 26.6582 136.778 26.6582C137.499 26.6582 138.079 27.2031 138.079 27.8711C138.079 28.5566 137.499 29.1016 136.778 29.1016Z" fill="#5592FC"/>
<path d="M158.186 38.084V39.6836H143.667V38.084H149.942V34.7969H151.876V38.084H158.186ZM156.886 27.9766V29.5586H151.929C152.061 31.5361 154.126 33.3555 157.554 33.8125L156.833 35.3418C154.082 34.9551 151.964 33.7334 150.909 31.9844C149.854 33.7334 147.754 34.9551 145.003 35.3418L144.265 33.8125C147.71 33.3555 149.767 31.5361 149.925 29.5586H144.95V27.9766H149.942V25.9199H151.876V27.9766H156.886ZM172.151 27.1328V28.6621C172.134 30.6309 172.134 32.8457 171.518 36.168L169.55 35.957C170.165 32.8633 170.165 30.6045 170.182 28.6973H160.69V27.1328H172.151ZM173.663 37.9082V39.5078H159.179V37.9082H164.522V32.3887H166.456V37.9082H173.663ZM182.442 28.2051V29.7695H174.655V28.2051H177.608V26.1309H179.542V28.2051H182.442ZM178.575 30.6133C180.596 30.6133 182.038 32.1426 182.038 34.3047C182.038 36.502 180.596 38.0488 178.575 38.0488C176.571 38.0488 175.095 36.502 175.112 34.3047C175.095 32.1426 176.571 30.6133 178.575 30.6133ZM178.575 32.2305C177.538 32.2305 176.817 33.0566 176.835 34.3047C176.817 35.5879 177.538 36.3965 178.575 36.3789C179.595 36.3965 180.315 35.5879 180.315 34.3047C180.315 33.0566 179.595 32.2305 178.575 32.2305ZM188.348 25.6738V41.5645H186.485V33.7949H184.938V40.8438H183.11V26.0078H184.938V32.2129H186.485V25.6738H188.348ZM195.827 28.2051C195.827 30.209 197.128 32.0898 199.571 32.8633L198.516 34.3926C196.802 33.8125 195.572 32.6523 194.895 31.1758C194.192 32.8633 192.909 34.1904 191.081 34.832L190.026 33.3027C192.592 32.4062 193.858 30.2969 193.876 28.0293V26.5176H195.827V28.2051ZM202.735 25.6738V29.541H204.95V31.1582H202.735V35.1836H200.784V25.6738H202.735ZM197.567 35.5352C200.854 35.5176 202.876 36.6426 202.893 38.5234C202.876 40.4395 200.854 41.5469 197.567 41.5469C194.245 41.5469 192.188 40.4395 192.188 38.5234C192.188 36.6426 194.245 35.5176 197.567 35.5352ZM197.567 37.0645C195.387 37.0645 194.139 37.5918 194.139 38.5234C194.139 39.5078 195.387 40 197.567 40C199.747 40 200.96 39.5078 200.96 38.5234C200.96 37.5918 199.747 37.0645 197.567 37.0645ZM218.616 32.8984V34.4453H213.905V38.084H220.233V39.6836H205.714V38.084H211.971V34.4453H207.471V26.8516H218.493V28.416H209.423V32.8984H218.616ZM239.936 33.1973V34.7617H233.643V36.291H238.178V41.3711H227.157V36.291H231.709V34.7617H225.452V33.1973H239.936ZM238.6 26.1484V27.7129H236.42V30.4375H238.512V32.0195H226.84V30.4375H228.932V27.7129H226.752V26.1484H238.6ZM229.09 37.8027V39.7891H236.28V37.8027H229.09ZM230.883 30.4375H234.452V27.7129H230.883V30.4375ZM254.164 25.6738V33.8652H252.231V25.6738H254.164ZM254.2 34.5332V38.6289H245.604V39.9121H254.674V41.4238H243.688V37.2051H252.248V36.0273H243.653V34.5332H254.2ZM250.332 26.4648V28.0469H247.01C247.089 29.8047 248.434 31.4658 250.895 32.1426L249.946 33.6543C248.091 33.1182 246.764 31.9844 246.043 30.543C245.331 32.1338 243.943 33.3994 241.983 33.9883L241.086 32.4414C243.547 31.7119 244.918 29.9277 245.024 28.0469H241.596V26.4648H250.332Z" fill="#3C3F44"/>
<rect y="75.5" width="409" height="66" rx="4" fill="#F2F7FF"/>
<rect x="21.0625" y="107.449" width="92.5625" height="10.3906" fill="#F7BD00" fill-opacity="0.3"/>
<path d="M29.8711 114.5L30.416 111.213H27.6738L27.1289 114.5H25.3887L25.9336 111.213H24.1406L24.4219 109.49H26.2148L26.6543 106.783H24.8789L25.1602 105.061H26.9531L27.4805 101.773H29.2207L28.6934 105.061H31.4355L31.9629 101.773H33.6855L33.1582 105.061H34.9512L34.6523 106.783H32.8594L32.4199 109.49H34.2129L33.9316 111.213H32.1387L31.5938 114.5H29.8711ZM27.9551 109.49H30.6973L31.1367 106.783H28.3945L27.9551 109.49ZM51.8065 108.137C51.8065 112.25 49.3104 114.676 45.9705 114.676C42.6307 114.676 40.1346 112.232 40.1346 108.137C40.1346 104.023 42.6307 101.598 45.9705 101.598C49.3104 101.598 51.8065 104.023 51.8065 108.137ZM49.5037 108.137C49.5037 105.236 48.0448 103.654 45.9705 103.654C43.8963 103.654 42.4373 105.236 42.4373 108.137C42.4373 111.037 43.8963 112.619 45.9705 112.619C48.0448 112.619 49.5037 111.037 49.5037 108.137ZM62.3787 106.062C62.115 104.533 60.8845 103.654 59.3377 103.654C57.2459 103.654 55.7869 105.254 55.7869 108.137C55.7869 111.055 57.2634 112.619 59.3377 112.619C60.8494 112.619 62.0798 111.775 62.3787 110.281H64.6814C64.3298 112.725 62.3259 114.676 59.3025 114.676C55.9451 114.676 53.4841 112.232 53.4841 108.137C53.4841 104.023 55.9802 101.598 59.3025 101.598C62.115 101.598 64.2947 103.232 64.6814 106.062H62.3787ZM66.6052 114.5V101.773H71.3864C74.3044 101.773 75.8688 103.408 75.8688 105.834C75.8688 107.565 75.0778 108.849 73.5837 109.455L76.3259 114.5H73.777L71.2809 109.842H68.8903V114.5H66.6052ZM68.8903 107.926H71.0348C72.7575 107.926 73.5309 107.188 73.5309 105.834C73.5309 104.48 72.7575 103.689 71.0348 103.689H68.8903V107.926ZM88.5933 100.385C92.1265 100.385 94.3062 101.457 94.3237 103.355C94.3062 105.061 92.5132 106.115 89.5425 106.273V107.469H95.853V109.051H81.3687V107.469H87.6265V106.273C84.6909 106.106 82.8628 105.061 82.8628 103.355C82.8628 101.457 85.0952 100.385 88.5933 100.385ZM88.5933 101.861C86.2378 101.844 84.8843 102.389 84.9019 103.355C84.8843 104.287 86.2378 104.832 88.5933 104.832C90.9312 104.832 92.3023 104.287 92.3023 103.355C92.3023 102.389 90.9312 101.844 88.5933 101.861ZM85.0425 109.824V111.266H92.0913V109.824H94.0601V115.871H83.1089V109.824H85.0425ZM85.0425 114.289H92.0913V112.76H85.0425V114.289ZM102.664 102.986C102.664 105.219 103.912 107.416 106.355 108.33L105.265 109.842C103.569 109.174 102.356 107.847 101.697 106.203C101.011 107.961 99.728 109.358 97.8998 110.07L96.8452 108.523C99.3764 107.609 100.677 105.359 100.695 102.986V101.088H102.664V102.986ZM110.187 100.191V111.986H108.236V107.064H105.335V105.5H108.236V103.936H105.335V102.354H108.236V100.191H110.187ZM110.539 114.166V115.748H99.7104V110.826H101.697V114.166H110.539Z" fill="#5592FC"/>
<path d="M131.12 109.174V110.756H124.792V116.047H122.859V110.756H116.601V109.174H131.12ZM129.345 100.982V107.311H118.376V100.982H129.345ZM120.292 102.547V105.781H127.394V102.547H120.292ZM146.65 112.602V114.219H132.13V112.602H135.98V109.982H133.853V104.797H142.993V102.846H133.818V101.264H144.927V106.361H135.804V108.4H145.296V109.982H142.976V112.602H146.65ZM137.878 112.602H141.06V109.982H137.878V112.602ZM165.544 100.174V116.064H163.681V100.174H165.544ZM162.31 100.473V115.291H160.464V107.293H158.179V105.711H160.464V100.473H162.31ZM156.772 104.516C156.772 107.205 157.739 109.895 160.007 111.195L158.847 112.637C157.379 111.758 156.403 110.246 155.858 108.436C155.296 110.396 154.285 112.065 152.782 113.006L151.587 111.547C153.89 110.158 154.892 107.275 154.892 104.516V103.461H152.132V101.879H159.339V103.461H156.772V104.516ZM174.534 110.105C177.979 110.123 180.159 111.213 180.177 113.094C180.159 114.939 177.979 116.047 174.534 116.047C171.106 116.047 168.909 114.939 168.909 113.094C168.909 111.213 171.106 110.123 174.534 110.105ZM174.534 111.582C172.249 111.582 170.86 112.127 170.878 113.094C170.86 114.025 172.249 114.535 174.534 114.535C176.837 114.535 178.226 114.025 178.243 113.094C178.226 112.127 176.837 111.582 174.534 111.582ZM180.071 100.93V102.248C180.071 103.496 180.071 104.832 179.632 106.467L177.698 106.291C178.094 104.744 178.12 103.628 178.12 102.477H169.067V100.93H180.071ZM181.829 107.381V108.963H167.415V107.381H173.005V104.498H174.938V107.381H181.829ZM186.161 101.773L185.968 110.756H183.981L183.77 101.773H186.161ZM184.983 114.641C184.227 114.641 183.612 114.025 183.612 113.27C183.612 112.531 184.227 111.916 184.983 111.916C185.704 111.916 186.337 112.531 186.337 113.27C186.337 114.025 185.704 114.641 184.983 114.641ZM193.243 109.648C193.243 106.344 194.227 103.584 195.88 101.229H197.989C196.776 102.969 195.563 106.502 195.563 109.648C195.563 112.795 196.776 116.328 197.989 118.086H195.88C194.227 115.713 193.243 112.971 193.243 109.648ZM203.692 114.693C200.844 114.693 199.122 112.654 199.122 109.771C199.122 106.854 200.897 104.832 203.692 104.832C206.012 104.832 207.63 106.186 207.788 108.242H205.643C205.467 107.328 204.799 106.625 203.71 106.625C202.321 106.625 201.389 107.803 201.389 109.719C201.389 111.688 202.303 112.865 203.71 112.865C204.712 112.865 205.45 112.285 205.643 111.248H207.788C207.612 113.27 206.083 114.693 203.692 114.693ZM214.194 104.955V106.678H212.313V111.635C212.313 112.549 212.77 112.742 213.333 112.742C213.596 112.742 214.036 112.725 214.317 112.707V114.535C214.053 114.588 213.614 114.623 213.051 114.623C211.364 114.623 210.063 113.797 210.081 112.004V106.678H208.71V104.955H210.081V102.67H212.313V104.955H214.194ZM215.872 114.5V104.955H218.051V106.537H218.157C218.491 105.447 219.422 104.814 220.512 104.814C220.758 104.814 221.11 104.832 221.321 104.867V106.941C221.127 106.871 220.653 106.801 220.284 106.801C219.036 106.801 218.122 107.662 218.122 108.875V114.5H215.872ZM224.862 101.773V114.5H222.612V101.773H224.862ZM230.723 113.744V110.422H227.401V108.471H230.723V105.148H232.657V108.471H235.996V110.422H232.657V113.744H230.723ZM238.623 114.5V101.773H246.78V103.689H240.908V107.17H246.217V109.086H240.908V114.5H238.623ZM260.471 101.141C260.453 105.236 257.764 108.102 253.141 109.402L252.35 107.873C255.909 106.897 258.019 105.043 258.379 102.723H253.211V101.141H260.471ZM265.551 100.191V109.139H263.6V105.676H260.541V104.076H263.6V100.191H265.551ZM265.551 109.771V115.854H255.092V109.771H265.551ZM257.008 111.318V114.307H263.617V111.318H257.008ZM272.713 103.057C272.713 104.832 273.697 106.59 275.789 107.416L274.734 108.91C273.337 108.348 272.361 107.311 271.799 106.027C271.201 107.469 270.164 108.682 268.652 109.332L267.615 107.82C269.795 106.854 270.814 104.85 270.832 103.057V101.123H272.713V103.057ZM281.344 100.191V109.807H279.48V105.764H277.898V109.719H276.07V100.455H277.898V104.146H279.48V100.191H281.344ZM281.344 110.562V116.064H279.393V112.127H270.463V110.562H281.344ZM299.939 100.174V106.379H302.295V108.014H299.939V116.029H297.988V100.174H299.939ZM295.738 101.826C295.738 106.502 293.805 110.598 288.514 113.199L287.406 111.688C291.273 109.763 293.365 107.056 293.769 103.443H288.267V101.826H295.738ZM315.855 104.305V105.887H304.886V100.455H306.838V104.305H315.855ZM317.508 107.416V108.998H303.006V107.416H317.508ZM310.23 110.141C313.658 110.158 315.715 111.213 315.732 113.076C315.715 114.939 313.658 115.994 310.23 115.994C306.767 115.994 304.693 114.939 304.693 113.076C304.693 111.213 306.767 110.158 310.23 110.141ZM310.23 111.67C307.91 111.688 306.662 112.127 306.679 113.076C306.662 113.99 307.91 114.5 310.23 114.5C312.498 114.5 313.763 113.99 313.781 113.076C313.763 112.127 312.498 111.688 310.23 111.67ZM323.246 109.648C323.246 112.971 322.261 115.713 320.609 118.086H318.5C319.713 116.328 320.925 112.795 320.925 109.648C320.925 106.502 319.713 102.969 318.5 101.229H320.609C322.261 103.584 323.246 106.344 323.246 109.648Z" fill="#3C3F44"/>
<rect y="149.5" width="409" height="65" rx="4" fill="#F2F7FF"/>
<rect x="21.0625" y="181.574" width="186.119" height="10.3906" fill="#F7BD00" fill-opacity="0.3"/>
<path d="M29.8711 188L30.416 184.713H27.6738L27.1289 188H25.3887L25.9336 184.713H24.1406L24.4219 182.99H26.2148L26.6543 180.283H24.8789L25.1602 178.561H26.9531L27.4805 175.273H29.2207L28.6934 178.561H31.4355L31.9629 175.273H33.6855L33.1582 178.561H34.9512L34.6523 180.283H32.8594L32.4199 182.99H34.2129L33.9316 184.713H32.1387L31.5938 188H29.8711ZM27.9551 182.99H30.6973L31.1367 180.283H28.3945L27.9551 182.99ZM45.5838 176.486C45.5838 178.596 46.8495 180.652 49.3104 181.496L48.2381 183.025C46.5243 182.375 45.2938 181.136 44.6346 179.58C43.9403 181.32 42.6483 182.7 40.785 183.395L39.7479 181.848C42.2967 180.986 43.5975 178.789 43.6151 176.469V174.658H45.5838V176.486ZM53.1073 173.691V185.486H51.1561V178.789H47.992V177.189H51.1561V173.691H53.1073ZM53.4588 187.666V189.248H42.6307V184.203H44.617V187.666H53.4588ZM68.6189 173.674V183.025H66.6677V180.828H63.4685V182.059H55.9978V174.869H63.4685V176.1H66.6677V173.674H68.6189ZM57.949 176.416V180.494H61.5349V176.416H57.949ZM63.24 183.447C66.615 183.447 68.6716 184.572 68.6716 186.506C68.6716 188.439 66.615 189.547 63.24 189.547C59.8826 189.547 57.8259 188.439 57.8435 186.506C57.8259 184.572 59.8826 183.447 63.24 183.447ZM63.24 184.941C61.0252 184.941 59.7771 185.486 59.7771 186.506C59.7771 187.49 61.0252 188.035 63.24 188.035C65.4548 188.035 66.7205 187.49 66.7205 186.506C66.7205 185.486 65.4548 184.941 63.24 184.941ZM63.4685 179.246H66.6677V177.646H63.4685V179.246ZM83.3571 173.691V178.684H85.572V180.301H83.3571V185.557H81.4059V173.691H83.3571ZM80.2634 175.449V177.014H70.8415V175.449H74.5856V173.674H76.5368V175.449H80.2634ZM75.5524 177.664C77.8376 177.664 79.4196 178.877 79.4372 180.705C79.4196 182.516 77.8376 183.711 75.5524 183.711C73.2497 183.711 71.6501 182.516 71.6501 180.705C71.6501 178.877 73.2497 177.664 75.5524 177.664ZM75.5524 179.176C74.3395 179.176 73.5485 179.738 73.5485 180.705C73.5485 181.654 74.3395 182.217 75.5524 182.199C76.7653 182.217 77.5739 181.654 77.5739 180.705C77.5739 179.738 76.7653 179.176 75.5524 179.176ZM83.9899 187.666V189.248H73.1794V184.625H75.1305V187.666H83.9899ZM105.046 181.197V182.762H98.7534V184.291H103.289V189.371H92.2671V184.291H96.8198V182.762H90.562V181.197H105.046ZM103.71 174.148V175.713H101.531V178.438H103.623V180.02H91.9507V178.438H94.0425V175.713H91.8628V174.148H103.71ZM94.2007 185.803V187.789H101.39V185.803H94.2007ZM95.9937 178.438H99.562V175.713H95.9937V178.438ZM119.275 173.674V181.865H117.341V173.674H119.275ZM119.31 182.533V186.629H110.714V187.912H119.785V189.424H108.798V185.205H117.359V184.027H108.763V182.533H119.31ZM115.443 174.465V176.047H112.121C112.2 177.805 113.544 179.466 116.005 180.143L115.056 181.654C113.202 181.118 111.874 179.984 111.154 178.543C110.442 180.134 109.053 181.399 107.093 181.988L106.197 180.441C108.658 179.712 110.029 177.928 110.134 176.047H106.706V174.465H115.443ZM130.118 185.943V182.621H126.796V180.67H130.118V177.348H132.052V180.67H135.392V182.621H132.052V185.943H130.118ZM156.097 181.619V183.184H149.962V186.102H148.028V183.184H141.577V181.619H156.097ZM154.234 174.395V180.143H143.423V174.395H154.234ZM145.321 175.924V178.613H152.3V175.924H145.321ZM154.497 187.666V189.248H143.335V184.643H145.286V187.666H154.497ZM162.802 178.191C162.802 180.652 164.261 183.447 166.774 184.607L165.685 186.154C163.892 185.311 162.564 183.605 161.853 181.619C161.132 183.799 159.743 185.662 157.915 186.541L156.773 185.012C159.304 183.816 160.833 180.828 160.851 178.191V176.855H157.388V175.238H166.124V176.855H162.802V178.191ZM169.552 173.674V179.861H171.995V181.496H169.552V189.564H167.601V173.674H169.552ZM190.081 173.691V185.17H188.112V173.691H190.081ZM190.52 187.666V189.248H179.569V184.01H181.538V187.666H190.52ZM181.415 174.729C183.823 174.729 185.686 176.398 185.686 178.701C185.686 181.057 183.823 182.691 181.415 182.691C178.989 182.691 177.126 181.057 177.126 178.701C177.126 176.398 178.989 174.729 181.415 174.729ZM181.415 176.434C180.061 176.434 179.024 177.33 179.042 178.701C179.024 180.107 180.061 180.986 181.415 180.986C182.733 180.986 183.77 180.107 183.77 178.701C183.77 177.33 182.733 176.434 181.415 176.434ZM198.28 175.941C198.28 178.033 199.581 180.002 202.112 180.793L201.145 182.34C199.308 181.725 197.999 180.521 197.296 178.965C196.566 180.635 195.239 181.962 193.358 182.604L192.374 181.074C194.94 180.195 196.259 178.104 196.259 175.941V174.43H198.28V175.941ZM205.593 183.904V189.564H203.624V185.469H194.747V183.904H205.593ZM205.593 173.674V183.184H203.624V173.674H205.593Z" fill="#5592FC"/>
<path d="M220.542 173.674V180.02H222.739V181.637H220.542V189.564H218.573V173.674H220.542ZM212.632 175.344C212.614 179.51 212.034 183.025 209.169 186.119L207.639 185.012C209.881 182.639 210.61 180.125 210.768 176.943H208.272V175.344H212.632ZM217.026 175.344C217.009 179.615 216.569 183.693 213.704 187.139L212.139 186.066C214.407 183.368 215.04 180.389 215.18 176.943H213.159V175.344H217.026ZM229.374 178.191C229.374 180.793 230.903 183.535 233.469 184.607L232.397 186.154C230.516 185.346 229.145 183.676 228.424 181.654C227.686 183.834 226.298 185.662 224.434 186.541L223.309 185.012C225.823 183.852 227.387 180.898 227.387 178.191V176.855H223.889V175.238H232.854V176.855H229.374V178.191ZM236.598 173.674V189.564H234.63V173.674H236.598ZM241.985 186.752L240.508 191.674H238.838L239.753 186.752H241.985ZM260.528 179.404V180.916H249.489V174.166H260.405V175.678H251.475V176.785H260.018V178.262H251.475V179.404H260.528ZM262.145 181.971V183.553H255.87V184.871H260.405V189.564H258.471V186.418H249.26V184.871H253.918V183.553H247.661V181.971H262.145ZM271.381 175.854C271.381 178.314 273.789 180.775 277.112 181.355L276.233 182.99C273.57 182.428 271.39 180.819 270.362 178.684C269.307 180.802 267.127 182.419 264.473 182.99L263.612 181.355C266.899 180.758 269.289 178.297 269.307 175.854V174.676H271.381V175.854ZM277.692 185.926V187.543H263.172V185.926H277.692ZM292.272 173.691V185.627H290.408V180.02H288.739V185.152H286.893V173.99H288.739V178.42H290.408V173.691H292.272ZM292.729 187.666V189.248H281.567V184.203H283.518V187.666H292.729ZM285.715 175.027C285.715 179.07 284.063 182.076 279.615 183.957L278.684 182.568C280.688 181.742 282.015 180.714 282.832 179.457L279.035 179.879L278.772 178.279L283.518 178.016C283.65 177.567 283.746 177.093 283.799 176.592H279.475V175.027H285.715ZM307.906 173.674V189.564H306.026V173.674H307.906ZM304.637 173.955V188.791H302.774V181.232H301.262C301.077 184.326 299.75 186.242 297.781 186.225C295.707 186.242 294.354 184.045 294.354 180.547C294.354 177.049 295.707 174.887 297.781 174.887C299.706 174.887 301.016 176.68 301.244 179.65H302.774V173.955H304.637ZM297.781 176.732C296.779 176.715 296.147 178.068 296.164 180.547C296.147 183.025 296.779 184.379 297.781 184.361C298.836 184.379 299.469 183.025 299.469 180.547C299.469 178.068 298.836 176.715 297.781 176.732ZM315.578 177.488C315.578 180.441 316.984 183.342 319.516 184.449L318.338 186.014C316.536 185.135 315.271 183.447 314.594 181.373C313.9 183.562 312.608 185.381 310.779 186.312L309.549 184.73C312.133 183.518 313.574 180.459 313.592 177.488V174.957H315.578V177.488ZM323.031 173.674V189.582H321.098V180.389H317.758V178.807H321.098V173.674H323.031ZM341.978 173.691V178.684H344.193V180.301H341.978V185.557H340.027V173.691H341.978ZM338.885 175.449V177.014H329.463V175.449H333.207V173.674H335.158V175.449H338.885ZM334.174 177.664C336.459 177.664 338.041 178.877 338.059 180.705C338.041 182.516 336.459 183.711 334.174 183.711C331.871 183.711 330.271 182.516 330.271 180.705C330.271 178.877 331.871 177.664 334.174 177.664ZM334.174 179.176C332.961 179.176 332.17 179.738 332.17 180.705C332.17 181.654 332.961 182.217 334.174 182.199C335.387 182.217 336.195 181.654 336.195 180.705C336.195 179.738 335.387 179.176 334.174 179.176ZM342.611 187.666V189.248H331.801V184.625H333.752V187.666H342.611ZM362.49 173.691V185.416H360.539V179.562H357.34V182.832H349.904V174.729H351.855V177.295H355.406V174.729H357.34V177.98H360.539V173.691H362.49ZM362.842 187.666V189.248H352.013V184.256H354V187.666H362.842ZM351.855 181.285H355.406V178.807H351.855V181.285ZM378.406 173.674V189.564H376.525V173.674H378.406ZM375.136 173.955V188.791H373.273V181.232H371.761C371.577 184.326 370.25 186.242 368.281 186.225C366.207 186.242 364.853 184.045 364.853 180.547C364.853 177.049 366.207 174.887 368.281 174.887C370.206 174.887 371.515 176.68 371.744 179.65H373.273V173.955H375.136ZM368.281 176.732C367.279 176.715 366.646 178.068 366.664 180.547C366.646 183.025 367.279 184.379 368.281 184.361C369.336 184.379 369.968 183.025 369.968 180.547C369.968 178.068 369.336 176.715 368.281 176.732ZM383.476 175.273L383.283 184.256H381.296L381.086 175.273H383.476ZM382.298 188.141C381.543 188.141 380.927 187.525 380.927 186.77C380.927 186.031 381.543 185.416 382.298 185.416C383.019 185.416 383.652 186.031 383.652 186.77C383.652 187.525 383.019 188.141 382.298 188.141Z" fill="#3C3F44"/>
</svg>
