<svg width="26" height="26" viewBox="0 0 26 26" fill="none" xmlns="http://www.w3.org/2000/svg">
<path opacity="0.3" d="M13.0007 4.33203H4.33398V21.6654H13.0007V4.33203Z" fill="#5592FC"/>
<path d="M6.50065 19.4987H9.75065C10.4729 19.6226 10.834 19.9837 10.834 20.582C10.834 21.1803 10.4729 21.5415 9.75065 21.6654H4.33398V16.2487C4.33398 15.5265 4.6951 15.1654 5.41732 15.1654C6.13954 15.1654 6.50065 15.5265 6.50065 16.2487V19.4987ZM19.5007 19.4987V16.2487C19.6246 15.5265 19.9857 15.1654 20.584 15.1654C21.1823 15.1654 21.5434 15.5265 21.6673 16.2487V21.6654H16.2507C15.5284 21.6654 15.1673 21.3043 15.1673 20.582C15.1673 19.8598 15.5284 19.4987 16.2507 19.4987H19.5007ZM19.5007 6.4987H16.2507C15.5284 6.37478 15.1673 6.01367 15.1673 5.41536C15.1673 4.81706 15.5284 4.45595 16.2507 4.33203H21.6673V9.7487C21.6673 10.4709 21.3062 10.832 20.584 10.832C19.8618 10.832 19.5007 10.4709 19.5007 9.7487V6.4987ZM6.50065 6.4987V9.7487C6.37674 10.4709 6.01563 10.832 5.41732 10.832C4.81901 10.832 4.4579 10.4709 4.33398 9.7487V4.33203H9.75065C10.4729 4.33203 10.834 4.69314 10.834 5.41536C10.834 6.13759 10.4729 6.4987 9.75065 6.4987H6.50065Z" fill="#5592FC"/>
</svg>
