<svg width="524" height="925" viewBox="0 0 524 925" fill="none" xmlns="http://www.w3.org/2000/svg">
<path fill-rule="evenodd" clip-rule="evenodd" d="M18.6366 0.890625C8.83361 0.890625 0.886719 8.8375 0.886719 18.6405V63.9168C0.886719 73.7198 8.83361 81.6667 18.6366 81.6667H243.365C245.267 81.6667 247.025 82.6816 247.976 84.3291L257.843 101.419C259.892 104.969 265.016 104.969 267.066 101.419L276.933 84.3291C277.884 82.6816 279.642 81.6667 281.544 81.6667H506.09C515.893 81.6667 523.84 73.7198 523.84 63.9168V18.6405C523.84 8.83752 515.893 0.890625 506.09 0.890625H18.6366Z" fill="#262932"/>
<ellipse cx="76.0014" cy="51.3783" rx="4.34708" ry="4.34708" fill="url(#paint0_radial_3683_40418)"/>
<ellipse cx="76.0014" cy="51.3783" rx="4.34708" ry="4.34708" fill="url(#paint1_linear_3683_40418)"/>
<ellipse cx="76.0014" cy="51.3783" rx="4.34708" ry="4.34708" fill="url(#paint2_radial_3683_40418)"/>
<rect x="74.5703" y="22.6328" width="2.85992" height="5.17906" rx="1.20418" fill="url(#paint3_radial_3683_40418)"/>
<rect x="74.5703" y="22.6328" width="2.85992" height="5.17906" rx="1.20418" fill="url(#paint4_linear_3683_40418)"/>
<rect x="74.5703" y="22.6328" width="2.85992" height="5.17906" rx="1.20418" fill="url(#paint5_radial_3683_40418)"/>
<path d="M66.4743 32.8617C67.3554 28.4512 71.2068 25.2669 75.6957 25.2228C75.7273 25.2225 75.7588 25.2228 75.7904 25.2228H76.2098C76.2414 25.2228 76.2729 25.2225 76.3044 25.2228C80.7933 25.2669 84.6447 28.4512 85.5258 32.8617L87.7359 43.9254C87.8949 44.7209 88.2549 45.4624 88.7817 46.0793L90.253 47.8025C90.9873 48.6624 91.3908 49.7561 91.3908 50.887V52.4616C91.3908 52.9535 90.992 53.3523 90.5002 53.3523H61.5C61.0081 53.3523 60.6094 52.9535 60.6094 52.4616V50.887C60.6094 49.7561 61.0128 48.6624 61.7471 47.8025L63.2185 46.0793C63.7453 45.4624 64.1053 44.7209 64.2642 43.9254L66.4743 32.8617Z" fill="url(#paint6_linear_3683_40418)"/>
<path d="M66.4743 32.8617C67.3554 28.4512 71.2068 25.2669 75.6957 25.2228C75.7273 25.2225 75.7588 25.2228 75.7904 25.2228H76.2098C76.2414 25.2228 76.2729 25.2225 76.3044 25.2228C80.7933 25.2669 84.6447 28.4512 85.5258 32.8617L87.7359 43.9254C87.8949 44.7209 88.2549 45.4624 88.7817 46.0793L90.253 47.8025C90.9873 48.6624 91.3908 49.7561 91.3908 50.887V52.4616C91.3908 52.9535 90.992 53.3523 90.5002 53.3523H61.5C61.0081 53.3523 60.6094 52.9535 60.6094 52.4616V50.887C60.6094 49.7561 61.0128 48.6624 61.7471 47.8025L63.2185 46.0793C63.7453 45.4624 64.1053 44.7209 64.2642 43.9254L66.4743 32.8617Z" fill="url(#paint7_radial_3683_40418)"/>
<path d="M66.4743 32.8617C67.3554 28.4512 71.2068 25.2669 75.6957 25.2228C75.7273 25.2225 75.7588 25.2228 75.7904 25.2228H76.2098C76.2414 25.2228 76.2729 25.2225 76.3044 25.2228C80.7933 25.2669 84.6447 28.4512 85.5258 32.8617L87.7359 43.9254C87.8949 44.7209 88.2549 45.4624 88.7817 46.0793L90.253 47.8025C90.9873 48.6624 91.3908 49.7561 91.3908 50.887V52.4616C91.3908 52.9535 90.992 53.3523 90.5002 53.3523H61.5C61.0081 53.3523 60.6094 52.9535 60.6094 52.4616V50.887C60.6094 49.7561 61.0128 48.6624 61.7471 47.8025L63.2185 46.0793C63.7453 45.4624 64.1053 44.7209 64.2642 43.9254L66.4743 32.8617Z" fill="url(#paint8_radial_3683_40418)" fill-opacity="0.6"/>
<path d="M66.4743 32.8617C67.3554 28.4512 71.2068 25.2669 75.6957 25.2228C75.7273 25.2225 75.7588 25.2228 75.7904 25.2228H76.2098C76.2414 25.2228 76.2729 25.2225 76.3044 25.2228C80.7933 25.2669 84.6447 28.4512 85.5258 32.8617L87.7359 43.9254C87.8949 44.7209 88.2549 45.4624 88.7817 46.0793L90.253 47.8025C90.9873 48.6624 91.3908 49.7561 91.3908 50.887V52.4616C91.3908 52.9535 90.992 53.3523 90.5002 53.3523H61.5C61.0081 53.3523 60.6094 52.9535 60.6094 52.4616V50.887C60.6094 49.7561 61.0128 48.6624 61.7471 47.8025L63.2185 46.0793C63.7453 45.4624 64.1053 44.7209 64.2642 43.9254L66.4743 32.8617Z" fill="url(#paint9_radial_3683_40418)"/>
<path d="M66.4743 32.8617C67.3554 28.4512 71.2068 25.2669 75.6957 25.2228C75.7273 25.2225 75.7588 25.2228 75.7904 25.2228H76.2098C76.2414 25.2228 76.2729 25.2225 76.3044 25.2228C80.7933 25.2669 84.6447 28.4512 85.5258 32.8617L87.7359 43.9254C87.8949 44.7209 88.2549 45.4624 88.7817 46.0793L90.253 47.8025C90.9873 48.6624 91.3908 49.7561 91.3908 50.887V52.4616C91.3908 52.9535 90.992 53.3523 90.5002 53.3523H61.5C61.0081 53.3523 60.6094 52.9535 60.6094 52.4616V50.887C60.6094 49.7561 61.0128 48.6624 61.7471 47.8025L63.2185 46.0793C63.7453 45.4624 64.1053 44.7209 64.2642 43.9254L66.4743 32.8617Z" fill="url(#paint10_radial_3683_40418)" fill-opacity="0.5"/>
<path d="M66.4743 32.8617C67.3554 28.4512 71.2068 25.2669 75.6957 25.2228C75.7273 25.2225 75.7588 25.2228 75.7904 25.2228H76.2098C76.2414 25.2228 76.2729 25.2225 76.3044 25.2228C80.7933 25.2669 84.6447 28.4512 85.5258 32.8617L87.7359 43.9254C87.8949 44.7209 88.2549 45.4624 88.7817 46.0793L90.253 47.8025C90.9873 48.6624 91.3908 49.7561 91.3908 50.887V52.4616C91.3908 52.9535 90.992 53.3523 90.5002 53.3523H61.5C61.0081 53.3523 60.6094 52.9535 60.6094 52.4616V50.887C60.6094 49.7561 61.0128 48.6624 61.7471 47.8025L63.2185 46.0793C63.7453 45.4624 64.1053 44.7209 64.2642 43.9254L66.4743 32.8617Z" fill="url(#paint11_radial_3683_40418)" fill-opacity="0.6"/>
<path d="M66.4743 32.8617C67.3554 28.4512 71.2068 25.2669 75.6957 25.2228C75.7273 25.2225 75.7588 25.2228 75.7904 25.2228H76.2098C76.2414 25.2228 76.2729 25.2225 76.3044 25.2228C80.7933 25.2669 84.6447 28.4512 85.5258 32.8617L87.7359 43.9254C87.8949 44.7209 88.2549 45.4624 88.7817 46.0793L90.253 47.8025C90.9873 48.6624 91.3908 49.7561 91.3908 50.887V52.4616C91.3908 52.9535 90.992 53.3523 90.5002 53.3523H61.5C61.0081 53.3523 60.6094 52.9535 60.6094 52.4616V50.887C60.6094 49.7561 61.0128 48.6624 61.7471 47.8025L63.2185 46.0793C63.7453 45.4624 64.1053 44.7209 64.2642 43.9254L66.4743 32.8617Z" fill="url(#paint12_radial_3683_40418)" fill-opacity="0.6"/>
<path d="M66.4743 32.8617C67.3554 28.4512 71.2068 25.2669 75.6957 25.2228C75.7273 25.2225 75.7588 25.2228 75.7904 25.2228H76.2098C76.2414 25.2228 76.2729 25.2225 76.3044 25.2228C80.7933 25.2669 84.6447 28.4512 85.5258 32.8617L87.7359 43.9254C87.8949 44.7209 88.2549 45.4624 88.7817 46.0793L90.253 47.8025C90.9873 48.6624 91.3908 49.7561 91.3908 50.887V52.4616C91.3908 52.9535 90.992 53.3523 90.5002 53.3523H61.5C61.0081 53.3523 60.6094 52.9535 60.6094 52.4616V50.887C60.6094 49.7561 61.0128 48.6624 61.7471 47.8025L63.2185 46.0793C63.7453 45.4624 64.1053 44.7209 64.2642 43.9254L66.4743 32.8617Z" fill="url(#paint13_radial_3683_40418)" fill-opacity="0.6"/>
<path d="M66.4743 32.8617C67.3554 28.4512 71.2068 25.2669 75.6957 25.2228C75.7273 25.2225 75.7588 25.2228 75.7904 25.2228H76.2098C76.2414 25.2228 76.2729 25.2225 76.3044 25.2228C80.7933 25.2669 84.6447 28.4512 85.5258 32.8617L87.7359 43.9254C87.8949 44.7209 88.2549 45.4624 88.7817 46.0793L90.253 47.8025C90.9873 48.6624 91.3908 49.7561 91.3908 50.887V52.4616C91.3908 52.9535 90.992 53.3523 90.5002 53.3523H61.5C61.0081 53.3523 60.6094 52.9535 60.6094 52.4616V50.887C60.6094 49.7561 61.0128 48.6624 61.7471 47.8025L63.2185 46.0793C63.7453 45.4624 64.1053 44.7209 64.2642 43.9254L66.4743 32.8617Z" fill="url(#paint14_radial_3683_40418)"/>
<path d="M66.4743 32.8617C67.3554 28.4512 71.2068 25.2669 75.6957 25.2228C75.7273 25.2225 75.7588 25.2228 75.7904 25.2228H76.2098C76.2414 25.2228 76.2729 25.2225 76.3044 25.2228C80.7933 25.2669 84.6447 28.4512 85.5258 32.8617L87.7359 43.9254C87.8949 44.7209 88.2549 45.4624 88.7817 46.0793L90.253 47.8025C90.9873 48.6624 91.3908 49.7561 91.3908 50.887V52.4616C91.3908 52.9535 90.992 53.3523 90.5002 53.3523H61.5C61.0081 53.3523 60.6094 52.9535 60.6094 52.4616V50.887C60.6094 49.7561 61.0128 48.6624 61.7471 47.8025L63.2185 46.0793C63.7453 45.4624 64.1053 44.7209 64.2642 43.9254L66.4743 32.8617Z" fill="url(#paint15_radial_3683_40418)"/>
<path d="M66.4743 32.8617C67.3554 28.4512 71.2068 25.2669 75.6957 25.2228C75.7273 25.2225 75.7588 25.2228 75.7904 25.2228H76.2098C76.2414 25.2228 76.2729 25.2225 76.3044 25.2228C80.7933 25.2669 84.6447 28.4512 85.5258 32.8617L87.7359 43.9254C87.8949 44.7209 88.2549 45.4624 88.7817 46.0793L90.253 47.8025C90.9873 48.6624 91.3908 49.7561 91.3908 50.887V52.4616C91.3908 52.9535 90.992 53.3523 90.5002 53.3523H61.5C61.0081 53.3523 60.6094 52.9535 60.6094 52.4616V50.887C60.6094 49.7561 61.0128 48.6624 61.7471 47.8025L63.2185 46.0793C63.7453 45.4624 64.1053 44.7209 64.2642 43.9254L66.4743 32.8617Z" fill="url(#paint16_linear_3683_40418)"/>
<path d="M66.4743 32.8617C67.3554 28.4512 71.2068 25.2669 75.6957 25.2228C75.7273 25.2225 75.7588 25.2228 75.7904 25.2228H76.2098C76.2414 25.2228 76.2729 25.2225 76.3044 25.2228C80.7933 25.2669 84.6447 28.4512 85.5258 32.8617L87.7359 43.9254C87.8949 44.7209 88.2549 45.4624 88.7817 46.0793L90.253 47.8025C90.9873 48.6624 91.3908 49.7561 91.3908 50.887V52.4616C91.3908 52.9535 90.992 53.3523 90.5002 53.3523H61.5C61.0081 53.3523 60.6094 52.9535 60.6094 52.4616V50.887C60.6094 49.7561 61.0128 48.6624 61.7471 47.8025L63.2185 46.0793C63.7453 45.4624 64.1053 44.7209 64.2642 43.9254L66.4743 32.8617Z" fill="url(#paint17_linear_3683_40418)"/>
<path d="M66.4743 32.8617C67.3554 28.4512 71.2068 25.2669 75.6957 25.2228C75.7273 25.2225 75.7588 25.2228 75.7904 25.2228H76.2098C76.2414 25.2228 76.2729 25.2225 76.3044 25.2228C80.7933 25.2669 84.6447 28.4512 85.5258 32.8617L87.7359 43.9254C87.8949 44.7209 88.2549 45.4624 88.7817 46.0793L90.253 47.8025C90.9873 48.6624 91.3908 49.7561 91.3908 50.887V52.4616C91.3908 52.9535 90.992 53.3523 90.5002 53.3523H61.5C61.0081 53.3523 60.6094 52.9535 60.6094 52.4616V50.887C60.6094 49.7561 61.0128 48.6624 61.7471 47.8025L63.2185 46.0793C63.7453 45.4624 64.1053 44.7209 64.2642 43.9254L66.4743 32.8617Z" fill="url(#paint18_radial_3683_40418)" fill-opacity="0.7"/>
<path d="M66.4743 32.8617C67.3554 28.4512 71.2068 25.2669 75.6957 25.2228C75.7273 25.2225 75.7588 25.2228 75.7904 25.2228H76.2098C76.2414 25.2228 76.2729 25.2225 76.3044 25.2228C80.7933 25.2669 84.6447 28.4512 85.5258 32.8617L87.7359 43.9254C87.8949 44.7209 88.2549 45.4624 88.7817 46.0793L90.253 47.8025C90.9873 48.6624 91.3908 49.7561 91.3908 50.887V52.4616C91.3908 52.9535 90.992 53.3523 90.5002 53.3523H61.5C61.0081 53.3523 60.6094 52.9535 60.6094 52.4616V50.887C60.6094 49.7561 61.0128 48.6624 61.7471 47.8025L63.2185 46.0793C63.7453 45.4624 64.1053 44.7209 64.2642 43.9254L66.4743 32.8617Z" fill="url(#paint19_radial_3683_40418)" fill-opacity="0.7"/>
<path d="M66.4743 32.8617C67.3554 28.4512 71.2068 25.2669 75.6957 25.2228C75.7273 25.2225 75.7588 25.2228 75.7904 25.2228H76.2098C76.2414 25.2228 76.2729 25.2225 76.3044 25.2228C80.7933 25.2669 84.6447 28.4512 85.5258 32.8617L87.7359 43.9254C87.8949 44.7209 88.2549 45.4624 88.7817 46.0793L90.253 47.8025C90.9873 48.6624 91.3908 49.7561 91.3908 50.887V52.4616C91.3908 52.9535 90.992 53.3523 90.5002 53.3523H61.5C61.0081 53.3523 60.6094 52.9535 60.6094 52.4616V50.887C60.6094 49.7561 61.0128 48.6624 61.7471 47.8025L63.2185 46.0793C63.7453 45.4624 64.1053 44.7209 64.2642 43.9254L66.4743 32.8617Z" fill="url(#paint20_radial_3683_40418)"/>
<path d="M66.4743 32.8617C67.3554 28.4512 71.2068 25.2669 75.6957 25.2228C75.7273 25.2225 75.7588 25.2228 75.7904 25.2228H76.2098C76.2414 25.2228 76.2729 25.2225 76.3044 25.2228C80.7933 25.2669 84.6447 28.4512 85.5258 32.8617L87.7359 43.9254C87.8949 44.7209 88.2549 45.4624 88.7817 46.0793L90.253 47.8025C90.9873 48.6624 91.3908 49.7561 91.3908 50.887V52.4616C91.3908 52.9535 90.992 53.3523 90.5002 53.3523H61.5C61.0081 53.3523 60.6094 52.9535 60.6094 52.4616V50.887C60.6094 49.7561 61.0128 48.6624 61.7471 47.8025L63.2185 46.0793C63.7453 45.4624 64.1053 44.7209 64.2642 43.9254L66.4743 32.8617Z" fill="url(#paint21_radial_3683_40418)" fill-opacity="0.2"/>
<path d="M125.829 41.53V44.7234H114.713V54.0273H110.768V44.7234H99.8177V41.53H125.829ZM102.89 38.4693V27.0107H122.724V38.4693H102.89ZM106.801 35.3532H118.757V30.1709H106.801V35.3532ZM151.463 25.6074V54.0715H147.496V39.8173H141.85V36.5577H147.496V25.6074H151.463ZM127.231 45.9941C134.413 42.4582 137.386 37.9499 137.971 31.7289H128.557V28.6019H142.004C141.982 37.1764 139.209 44.193 129.264 49.1102L127.231 45.9941ZM181.141 39.4858V42.6461H170.39V47.5963H166.346V42.6461H155.13V39.4858H181.141ZM157.815 32.0715C157.804 28.4582 161.937 26.182 168.114 26.1709C174.29 26.182 178.39 28.4582 178.401 32.0715C178.39 35.6847 174.29 37.9278 168.114 37.9278C161.937 37.9278 157.804 35.6847 157.815 32.0715ZM158.224 53.5742V45.0549H162.246V50.3367H178.279V53.5742H158.224ZM162.125 32.0715C162.103 33.8063 164.456 34.7345 168.114 34.7455C171.793 34.7345 174.125 33.8063 174.125 32.0715C174.125 30.2593 171.793 29.309 168.114 29.3201C164.456 29.309 162.103 30.2593 162.125 32.0715ZM213.775 28.0825V30.8671C213.764 34.3367 213.764 38.2372 212.725 43.972L208.802 43.6074C209.742 38.414 209.775 34.5466 209.775 31.2538H192.758V28.0825H213.775ZM190.195 50.5798V47.3422H195.708V38.3919H199.686V47.3422H202.824V38.3919H206.747V47.3422H216.139V50.5798H190.195ZM242.669 25.6074V54.0715H238.856V39.8284H236.425V52.7566H232.657V44.6129L230.392 47.5963C227.762 46.2041 226.061 43.8394 225.055 40.9334C224.105 44.2814 222.425 47.0107 219.707 48.624L217.265 45.5632C221.575 43.1212 223.022 38.0936 223.022 32.6571V31.751H218.227V28.5687H231.254V31.751H226.901V32.6571C226.901 37.6184 228.37 42.3146 232.657 44.5466V26.0494H236.425V36.5798H238.856V25.6074H242.669ZM271.485 38.3698V41.3311H245.474V38.3698H271.485ZM248.446 45.5079V42.7455H268.38V49.4637H252.435V51.0881H269.209V53.8063H248.468V46.9334H264.424V45.5079H248.446ZM248.667 28.845V26.1378H268.347V32.8118H252.678V34.3367H268.833V37.0328H248.711V30.2814H264.347V28.845H248.667ZM281.599 51.1875V28.5577H290.461C295.61 28.5577 298.56 31.7289 298.56 36.2041C298.56 40.7013 295.566 43.8173 290.362 43.8173H286.295V51.1875H281.599ZM286.295 40.0273H289.599C292.384 40.0273 293.732 38.4693 293.732 36.2041C293.732 33.9278 292.384 32.414 289.588 32.414H286.295V40.0273ZM309.515 51.1875H301.537V28.5577H309.592C316.41 28.5577 320.575 32.8008 320.575 39.8505C320.575 46.9223 316.41 51.1875 309.515 51.1875ZM306.233 47.1544H309.316C313.614 47.1544 315.879 44.9223 315.879 39.8505C315.879 34.8118 313.614 32.5908 309.338 32.5908H306.233V47.1544ZM323.943 51.1875V28.5577H338.86V32.4472H328.639V37.9278H337.866V41.8063H328.639V51.1875H323.943ZM366.893 47.6295V50.8892H340.882V47.6295H351.854V43.3311H343.877V33.7621H359.954V30.6682H343.832V27.4637H363.899V36.8892H347.854V40.0936H364.562V43.3311H355.799V47.6295H366.893ZM398.344 25.6074V36.2593H402.543V39.5853H398.344V54.0715H394.355V25.6074H398.344ZM376.808 47.4748V27.8947H380.786V34.8008H386.698V27.8947H390.676V47.4748H376.808ZM380.786 44.2372H386.698V37.9057H380.786V44.2372ZM429.514 38.845V42.0936H418.42V54.0494H414.387V42.0936H403.57V38.845H409.901C410.851 35.3201 411.039 32.6571 411.083 30.5356H405.614V27.3311H415.039V29.0991C415.028 31.3532 415.028 34.4914 413.967 38.845H421.813C422.564 35.3643 422.686 32.7013 422.708 30.5356H416.995V27.3311H426.664V29.298C426.652 31.5963 426.652 34.6792 425.824 38.845H429.514ZM441.723 33.3643C441.701 37.7068 444.01 42.7124 448.684 44.8671L446.463 47.9941C443.292 46.5356 441.038 43.6405 439.778 40.2262C438.497 43.9941 436.154 47.1765 432.883 48.7234L430.563 45.5742C435.303 43.3643 437.69 38.0715 437.712 33.3643V31.6184H431.69V28.3588H447.447V31.6184H441.723V33.3643ZM449.668 54.0715V25.6074H453.657V36.4803H457.856V39.8063H453.657V54.0715H449.668ZM465.357 28.5577L464.937 44.414H460.937L460.517 28.5577H465.357ZM460.319 48.845C460.296 47.4085 461.501 46.2372 462.948 46.2372C464.341 46.2372 465.556 47.4085 465.567 48.845C465.556 50.2925 464.341 51.4637 462.948 51.4637C461.501 51.4637 460.296 50.2925 460.319 48.845Z" fill="white"/>
<path d="M236.151 700.722C236.827 675.729 263.344 659.993 285.605 671.374L407.418 733.648C417.518 738.812 423.391 749.666 422.189 760.946C420.269 778.951 401.722 790.174 384.881 783.521L257.642 733.257C244.353 728.007 235.765 715.006 236.151 700.722Z" fill="#576F9A"/>
<path d="M421.669 813.023C421.789 810.437 421.709 807.508 421.517 804.544C420.869 794.539 410.322 788.686 401.096 792.456L405.484 826.534L122.759 801.217L106.186 809.87C102.783 811.647 102.828 816.538 106.263 818.372L276.532 909.254C282.682 912.536 290.065 912.301 295.872 908.637L404.156 840.32C413.894 834.176 421.134 824.593 421.669 813.023Z" fill="#576F9A"/>
<path d="M274.51 897.558C282.121 901.637 291.212 901.433 298.452 896.968C326.646 879.58 396.713 836.299 402.944 831.75C410.811 826.154 414.393 816.988 413.749 808.251C412.867 796.312 405.543 793.932 400.236 797.023L289.859 861.305L110.771 772.227C121.143 777.49 113.658 811.345 113.658 811.345L274.51 897.558Z" fill="white"/>
<path d="M228.549 709.551C232.412 707.82 236.874 707.894 240.74 709.754L413.588 792.912L287.702 867.17C283.345 869.74 277.914 869.803 273.412 867.334L111.928 778.806C104.911 774.959 105.177 764.836 112.38 761.608L228.549 709.551Z" fill="#576F9A"/>
<path d="M236.069 693.803C239.28 692.375 242.925 692.183 246.313 693.263L338.109 722.532L416.769 774.647L286.806 855.091C282.401 857.817 276.825 857.932 272.221 855.39L104.574 762.854C100.207 760.443 100.391 754.134 104.887 752.135L236.069 693.803Z" fill="#576F9A"/>
<path d="M274.984 845.531C278.06 847.209 281.717 847.21 284.712 845.493C304.481 834.155 379.547 791.028 394.452 781.375C411.651 770.235 415.672 763.331 415.006 754.311C413.55 734.569 387.984 728.262 371.607 739.091L289.862 793.145L113.662 720.072C124.034 725.335 113.662 757.516 113.662 757.516L274.984 845.531Z" fill="white"/>
<path d="M238.756 652.354C242.856 650.497 247.624 650.683 251.635 652.857L413.256 740.452L290.337 814.226C286.017 816.819 280.612 816.932 276.101 814.525L103.599 722.472C99.9162 720.507 100.014 715.217 103.764 713.518L238.756 652.354Z" fill="#576F9A"/>
<path d="M445.607 709.365C445.985 705.369 443.862 700.17 441.866 696.287C440.098 692.848 436.218 691.214 432.444 691.88L422.594 693.621L427.292 726.617L104.141 697.681L84.0529 708.169C80.6498 709.946 80.6941 714.837 84.1299 716.671L281.482 822.008C287.547 825.246 294.819 825.064 300.597 821.531L419.562 748.791C433.853 740.052 444.022 726.125 445.607 709.365Z" fill="#708DBA"/>
<path d="M279.534 808.834C287.046 812.86 296.041 812.697 303.245 808.384C334.01 789.964 415.827 740.887 423.069 735.601C432.061 729.205 437.477 715.703 436.74 705.717C435.733 692.07 423.069 699.747 423.069 699.747C423.069 699.747 342.276 748.644 291.645 784.374L86.9492 682.559C98.8043 688.575 93.7405 709.254 93.7405 709.254L279.534 808.834Z" fill="white"/>
<path d="M235.231 601.464C239.105 599.681 243.604 599.726 247.506 601.587L437.779 692.345C441.439 694.091 441.708 699.186 438.245 701.184L290.336 786.491C286.024 788.977 280.691 789.03 276.246 786.629L89.3011 685.663C82.2745 681.868 82.4575 671.767 89.6126 668.475L235.231 601.464Z" fill="#708DBA"/>
<path d="M426.796 673.45C426.915 670.869 426.835 667.947 426.644 664.989C425.998 655.006 415.474 649.166 406.267 652.928L410.646 686.931L128.537 661.67L112.019 670.295C108.615 672.072 108.66 676.962 112.096 678.796L282.122 769.549C288.181 772.783 295.446 772.605 301.222 769.082L410.639 702.329C421.034 695.987 426.23 685.684 426.796 673.45Z" fill="#5592FC"/>
<path d="M279.935 757.782C287.546 761.861 296.637 761.657 303.877 757.192C332.027 739.832 401.9 696.669 408.115 692.132C415.966 686.548 419.54 677.402 418.897 668.684C418.017 656.771 410.709 654.396 405.413 657.48L295.277 721.622L116.58 632.738C126.929 637.99 119.461 671.772 119.461 671.772L279.935 757.782Z" fill="white"/>
<path d="M234.087 570.201C237.95 568.47 242.412 568.544 246.278 570.404L418.736 653.375L293.14 727.462C288.783 730.032 283.352 730.095 278.849 727.626L117.771 639.32C110.754 635.473 111.02 625.35 118.223 622.122L234.087 570.201Z" fill="#5592FC"/>
<path d="M456.687 614.345C456.831 611.223 456.735 607.689 456.503 604.112C455.722 592.037 442.993 584.974 431.858 589.524L437.154 630.65L95.9534 600.097L74.2961 611.405C70.8929 613.182 70.9372 618.073 74.3731 619.907L283.589 731.577C289.738 734.859 297.122 734.624 302.929 730.96L435.552 647.287C447.303 639.873 456.041 628.307 456.687 614.345Z" fill="#5592FC"/>
<path d="M281.639 717.714C289.25 721.793 298.362 721.576 305.603 717.112C337.864 697.22 426.392 642.555 434.094 636.933C443.589 630.179 447.912 619.117 447.134 608.573C446.07 594.164 437.231 591.292 430.826 595.022L297.621 672.599L81.4922 565.098C94.0094 571.45 84.976 612.307 84.976 612.307L281.639 717.714Z" fill="white"/>
<path d="M224.886 488.897C228.749 487.165 233.211 487.24 237.077 489.099L446.937 590.064L293.56 680.538C289.203 683.108 283.772 683.171 279.27 680.702L79.3562 571.106C72.3394 567.259 72.6054 557.136 79.808 553.909L224.886 488.897Z" fill="#5592FC"/>
<path d="M445.607 556.318C445.985 552.322 443.862 547.123 441.866 543.24C440.098 539.801 436.218 538.167 432.444 538.834L422.594 540.574L427.292 573.57L104.141 544.634L84.0529 555.122C80.6498 556.899 80.6941 561.79 84.1299 563.624L281.482 668.962C287.547 672.199 294.819 672.017 300.597 668.484L419.562 595.744C433.853 587.005 444.022 573.078 445.607 556.318Z" fill="#708DBA"/>
<path d="M279.534 655.787C287.046 659.814 296.041 659.65 303.245 655.337C334.01 636.917 415.827 587.84 423.069 582.554C432.061 576.158 437.477 562.656 436.74 552.67C435.733 539.023 423.069 546.701 423.069 546.701C423.069 546.701 342.276 595.597 291.645 631.327L86.9492 529.512C98.8043 535.528 93.7405 556.207 93.7405 556.207L279.534 655.787Z" fill="white"/>
<path d="M235.231 448.417C239.105 446.634 243.604 446.679 247.506 448.54L437.779 539.298C441.439 541.044 441.708 546.14 438.245 548.137L290.336 633.444C286.024 635.93 280.691 635.983 276.246 633.582L89.3011 532.616C82.2745 528.821 82.4575 518.72 89.6126 515.428L235.231 448.417Z" fill="#708DBA"/>
<path d="M421.669 515.847C421.789 513.261 421.709 510.332 421.517 507.369C420.869 497.363 410.322 491.51 401.096 495.28L405.484 529.358L122.759 504.041L106.186 512.694C102.783 514.471 102.828 519.362 106.263 521.196L276.532 612.078C282.682 615.36 290.065 615.125 295.872 611.461L404.156 543.144C413.894 537.001 421.134 527.417 421.669 515.847Z" fill="#576F9A"/>
<path d="M274.51 600.382C282.121 604.461 291.212 604.257 298.452 599.792C326.646 582.405 396.713 539.123 402.944 534.574C410.811 528.978 414.393 519.812 413.749 511.075C412.867 499.136 405.543 496.756 400.236 499.847L289.859 564.129L110.771 475.051C121.143 480.314 113.658 514.17 113.658 514.17L274.51 600.382Z" fill="white"/>
<path d="M228.549 412.375C232.412 410.644 236.874 410.718 240.74 412.578L413.588 495.736L287.702 569.995C283.345 572.565 277.914 572.627 273.412 570.159L111.928 481.63C104.911 477.783 105.177 467.66 112.38 464.433L228.549 412.375Z" fill="#576F9A"/>
<path d="M446.637 467.174C446.774 464.218 446.683 460.871 446.463 457.483C445.723 446.047 433.668 439.357 423.122 443.667L428.138 482.617L104.986 453.681L84.8986 464.169C81.4955 465.946 81.5397 470.837 84.9756 472.671L282.17 577.924C288.319 581.207 295.703 580.971 301.51 577.308L426.62 498.374C437.75 491.353 446.026 480.398 446.637 467.174Z" fill="#5592FC"/>
<path d="M280.196 564.737C287.807 568.816 296.935 568.59 304.175 564.125C335.237 544.972 417.991 493.866 425.237 488.578C434.229 482.182 438.323 471.705 437.586 461.718C436.579 448.072 428.208 445.352 422.141 448.885L295.982 522.358L91.2871 420.543C103.142 426.559 94.5867 465.255 94.5867 465.255L280.196 564.737Z" fill="white"/>
<path d="M226.776 348.515C230.64 346.784 235.101 346.858 238.967 348.718L437.403 444.186L292.511 529.655C288.155 532.225 282.724 532.287 278.221 529.819L90.1696 426.726C83.1528 422.879 83.4187 412.756 90.6214 409.528L226.776 348.515Z" fill="#5592FC"/>
<path d="M280.199 141.78C279.92 141.61 279.545 141.622 279.157 141.814L187.84 186.982C180.197 190.763 174.114 200.74 174.255 209.267L178.106 442.645C178.246 451.171 184.557 455.019 192.201 451.238L344.098 376.104C351.742 372.323 357.824 362.346 357.684 353.819L354.948 188.018C354.941 187.585 354.78 187.247 354.501 187.077L280.199 141.78Z" fill="#DD2215"/>
<path d="M294.969 217.005L354.943 187.34L317.357 164.426L279.77 141.511L280.874 208.412C281.014 216.939 287.325 220.786 294.969 217.005Z" fill="#F2766E"/>
<path d="M197.124 306.842L218.544 296.246C222.632 294.225 226.166 293.356 229.146 293.641C232.152 293.885 234.45 295.189 236.04 297.551C237.631 299.914 238.46 303.122 238.526 307.175C238.594 311.255 237.858 315.237 236.32 319.119C234.806 322.96 232.563 326.496 229.589 329.726C226.64 332.915 223.097 335.533 218.959 337.58L205.184 344.394L205.015 334.177L217.012 328.243C219.207 327.158 221.042 325.825 222.517 324.244C224.016 322.623 225.119 320.857 225.825 318.947C226.531 317.038 226.867 315.041 226.832 312.959C226.798 310.876 226.403 309.256 225.646 308.098C224.889 306.912 223.746 306.285 222.219 306.218C220.717 306.11 218.855 306.605 216.635 307.703L208.65 311.653L209.487 362.354L198.133 367.969L197.124 306.842ZM251.494 341.575L251.314 330.684L265.052 323.889C268.584 322.142 271.512 319.984 273.835 317.416C276.158 314.849 277.888 311.822 279.026 308.337C280.164 304.823 280.696 300.815 280.621 296.312C280.547 291.809 279.893 288.401 278.659 286.089C277.45 283.736 275.661 282.451 273.292 282.232C270.923 282.014 267.985 282.772 264.478 284.506L250.4 291.47L250.22 280.578L264.866 273.334C270.366 270.614 275.13 269.492 279.156 269.968C283.208 270.405 286.331 272.392 288.526 275.931C290.746 279.458 291.908 284.373 292.012 290.677C292.117 297.01 291.135 303 289.066 308.648C286.997 314.296 283.965 319.343 279.968 323.788C275.997 328.221 271.249 331.804 265.724 334.537L251.494 341.575ZM257.776 338.468L246.423 344.084L245.414 282.956L256.767 277.34L257.776 338.468ZM299.759 256.075L335.863 238.217L336.035 248.686L311.285 260.929L311.53 275.788L333.896 264.725L334.068 275.153L311.702 286.216L312.121 311.587L300.768 317.203L299.759 256.075Z" fill="white"/>
<rect width="66.643" height="12.6965" rx="6.34827" transform="matrix(0.896343 -0.443362 0.0164987 0.999864 191.906 274.961)" fill="#E03327"/>
<defs>
<radialGradient id="paint0_radial_3683_40418" cx="0" cy="0" r="1" gradientUnits="userSpaceOnUse" gradientTransform="translate(78.0892 55.2927) rotate(-126.512) scale(3.50901 4.84611)">
<stop stop-color="#FFC26D"/>
<stop offset="1" stop-color="#F68D61"/>
</radialGradient>
<linearGradient id="paint1_linear_3683_40418" x1="75.1204" y1="52.4353" x2="75.4173" y2="54.5505" gradientUnits="userSpaceOnUse">
<stop offset="0.186236" stop-color="#E57356"/>
<stop offset="1" stop-color="#E57356" stop-opacity="0"/>
</linearGradient>
<radialGradient id="paint2_radial_3683_40418" cx="0" cy="0" r="1" gradientUnits="userSpaceOnUse" gradientTransform="translate(77.0501 51.9157) rotate(135) scale(4.82821 7.96701)">
<stop offset="0.441043" stop-color="#EA8059" stop-opacity="0"/>
<stop offset="1" stop-color="#C27068"/>
</radialGradient>
<radialGradient id="paint3_radial_3683_40418" cx="0" cy="0" r="1" gradientUnits="userSpaceOnUse" gradientTransform="translate(76.9399 25.2224) rotate(-90) scale(2.58954 1.55859)">
<stop stop-color="#FFE957"/>
<stop offset="1" stop-color="#F7A630"/>
</radialGradient>
<linearGradient id="paint4_linear_3683_40418" x1="74.574" y1="24.5924" x2="75.1551" y2="24.5924" gradientUnits="userSpaceOnUse">
<stop stop-color="#DF9057"/>
<stop offset="0.641029" stop-color="#DF9057" stop-opacity="0.243857"/>
<stop offset="1" stop-color="#DF9057" stop-opacity="0"/>
</linearGradient>
<radialGradient id="paint5_radial_3683_40418" cx="0" cy="0" r="1" gradientUnits="userSpaceOnUse" gradientTransform="translate(76.7516 25.6972) rotate(-112.474) scale(3.22781 2.33121)">
<stop stop-color="#DF9057" stop-opacity="0"/>
<stop offset="0.81512" stop-color="#DF9057" stop-opacity="0.243857"/>
<stop offset="1" stop-color="#DF9057"/>
</radialGradient>
<linearGradient id="paint6_linear_3683_40418" x1="81.2611" y1="51.1721" x2="62.8731" y2="51.1721" gradientUnits="userSpaceOnUse">
<stop stop-color="#FCB949"/>
<stop offset="1" stop-color="#E28C37"/>
</linearGradient>
<radialGradient id="paint7_radial_3683_40418" cx="0" cy="0" r="1" gradientUnits="userSpaceOnUse" gradientTransform="translate(83.5223 40.4533) rotate(-180) scale(11.4301 24.4625)">
<stop stop-color="#FFE764"/>
<stop offset="0.34751" stop-color="#FFE764" stop-opacity="0.808602"/>
<stop offset="0.891787" stop-color="#FFE764" stop-opacity="0.0755517"/>
<stop offset="1" stop-color="#FFE764" stop-opacity="0"/>
</radialGradient>
<radialGradient id="paint8_radial_3683_40418" cx="0" cy="0" r="1" gradientUnits="userSpaceOnUse" gradientTransform="translate(83.1267 49.9705) rotate(90) scale(2.81949 16.729)">
<stop stop-color="#FFE764"/>
<stop offset="0.291581" stop-color="#FFE764" stop-opacity="0.808602"/>
<stop offset="0.891787" stop-color="#FFE764" stop-opacity="0.0755517"/>
<stop offset="1" stop-color="#FFE764" stop-opacity="0"/>
</radialGradient>
<radialGradient id="paint9_radial_3683_40418" cx="0" cy="0" r="1" gradientUnits="userSpaceOnUse" gradientTransform="translate(83.3187 46.6162) rotate(-90) scale(2.99823 11.8289)">
<stop stop-color="#F9C23C" stop-opacity="0.79"/>
<stop offset="0.349146" stop-color="#F9C23C" stop-opacity="0.595087"/>
<stop offset="0.741382" stop-color="#F9C23C" stop-opacity="0.10594"/>
<stop offset="1" stop-color="#F9C23C" stop-opacity="0"/>
</radialGradient>
<radialGradient id="paint10_radial_3683_40418" cx="0" cy="0" r="1" gradientUnits="userSpaceOnUse" gradientTransform="translate(80.7833 29.6167) rotate(80.7539) scale(3.52235 10.1033)">
<stop stop-color="#FCB949"/>
<stop offset="0.49157" stop-color="#FCB949" stop-opacity="0.61239"/>
<stop offset="1" stop-color="#FCB949" stop-opacity="0"/>
</radialGradient>
<radialGradient id="paint11_radial_3683_40418" cx="0" cy="0" r="1" gradientUnits="userSpaceOnUse" gradientTransform="translate(67.4422 51.869) rotate(-59.9068) scale(28.7057 35.0788)">
<stop stop-color="#FFE764" stop-opacity="0"/>
<stop offset="0.783823" stop-color="#FFE764" stop-opacity="0"/>
<stop offset="0.854775" stop-color="#FFE764" stop-opacity="0.274364"/>
<stop offset="1" stop-color="#FFE764"/>
</radialGradient>
<radialGradient id="paint12_radial_3683_40418" cx="0" cy="0" r="1" gradientUnits="userSpaceOnUse" gradientTransform="translate(87.7684 50.0651) rotate(94.4671) scale(2.45803 7.05865)">
<stop stop-color="#FFE764"/>
<stop offset="0.403543" stop-color="#FFE764" stop-opacity="0.808602"/>
<stop offset="0.891787" stop-color="#FFE764" stop-opacity="0.0755517"/>
<stop offset="1" stop-color="#FFE764" stop-opacity="0"/>
</radialGradient>
<radialGradient id="paint13_radial_3683_40418" cx="0" cy="0" r="1" gradientUnits="userSpaceOnUse" gradientTransform="translate(82.0424 33.2907) rotate(-113.987) scale(7.06345 10.4462)">
<stop stop-color="#FFE764"/>
<stop offset="0.346766" stop-color="#FFE764" stop-opacity="0.808602"/>
<stop offset="0.807283" stop-color="#FFE764" stop-opacity="0.0755517"/>
<stop offset="1" stop-color="#FFE764" stop-opacity="0"/>
</radialGradient>
<radialGradient id="paint14_radial_3683_40418" cx="0" cy="0" r="1" gradientUnits="userSpaceOnUse" gradientTransform="translate(65.3008 39.4942) rotate(9.80123) scale(6.42995 26.7772)">
<stop stop-color="#EA9253"/>
<stop offset="0.327703" stop-color="#EA9253" stop-opacity="0.835301"/>
<stop offset="0.788188" stop-color="#EA9253" stop-opacity="0.166967"/>
<stop offset="1" stop-color="#EA9253" stop-opacity="0"/>
</radialGradient>
<radialGradient id="paint15_radial_3683_40418" cx="0" cy="0" r="1" gradientUnits="userSpaceOnUse" gradientTransform="translate(71.0029 46.8003) rotate(-90) scale(3.13622 9.38582)">
<stop stop-color="#F5A43C"/>
<stop offset="0.367713" stop-color="#F5A43C" stop-opacity="0.734548"/>
<stop offset="0.705841" stop-color="#F5A43C" stop-opacity="0.14628"/>
<stop offset="1" stop-color="#F5A43C" stop-opacity="0"/>
</radialGradient>
<linearGradient id="paint16_linear_3683_40418" x1="62.8097" y1="35.4682" x2="74.1917" y2="39.0954" gradientUnits="userSpaceOnUse">
<stop offset="0.0614969" stop-color="#D7737D"/>
<stop offset="0.590732" stop-color="#FCA162" stop-opacity="0"/>
<stop offset="1" stop-color="#FCA162" stop-opacity="0"/>
</linearGradient>
<linearGradient id="paint17_linear_3683_40418" x1="78.4983" y1="53.6595" x2="78.4983" y2="50.097" gradientUnits="userSpaceOnUse">
<stop offset="0.0614969" stop-color="#D7737D"/>
<stop offset="0.282174" stop-color="#F89C65" stop-opacity="0.113905"/>
<stop offset="0.330447" stop-color="#FCA162" stop-opacity="0"/>
</linearGradient>
<radialGradient id="paint18_radial_3683_40418" cx="0" cy="0" r="1" gradientUnits="userSpaceOnUse" gradientTransform="translate(79.2859 52.1882) rotate(-97.9773) scale(27.903 17.8701)">
<stop offset="0.903411" stop-color="#E69136" stop-opacity="0"/>
<stop offset="0.926493" stop-color="#E38E38" stop-opacity="0.131844"/>
<stop offset="1" stop-color="#CF7D44"/>
</radialGradient>
<radialGradient id="paint19_radial_3683_40418" cx="0" cy="0" r="1" gradientUnits="userSpaceOnUse" gradientTransform="translate(65.7689 35.9044) rotate(7.12501) scale(2.40129 13.1444)">
<stop stop-color="#CF7D44"/>
<stop offset="0.772002" stop-color="#E38E38" stop-opacity="0.131844"/>
<stop offset="1" stop-color="#E69136" stop-opacity="0"/>
</radialGradient>
<radialGradient id="paint20_radial_3683_40418" cx="0" cy="0" r="1" gradientUnits="userSpaceOnUse" gradientTransform="translate(83.174 37.554) rotate(146.139) scale(27.1736 26.0676)">
<stop offset="0.670378" stop-color="#E69136" stop-opacity="0"/>
<stop offset="0.977283" stop-color="#CF7D44"/>
</radialGradient>
<radialGradient id="paint21_radial_3683_40418" cx="0" cy="0" r="1" gradientUnits="userSpaceOnUse" gradientTransform="translate(84.0148 44.0878) rotate(85.7636) scale(2.45415 7.15486)">
<stop stop-color="white"/>
<stop offset="1" stop-color="white" stop-opacity="0"/>
</radialGradient>
</defs>
</svg>
