<svg width="445" height="201" viewBox="0 0 445 201" fill="none" xmlns="http://www.w3.org/2000/svg">
<path d="M0 200.641L307.32 1.65234H341.164L365.042 200.641H0Z" fill="url(#paint0_linear_3617_41079)"/>
<path d="M298.872 10.8128C297.251 5.42586 301.284 0 306.909 0H381.224C385.21 0 388.751 2.54684 390.019 6.3263L442.599 163.054C443.806 166.652 441.253 170.411 437.463 170.615L354.659 175.069C350.997 175.266 347.675 172.932 346.618 169.421L298.872 10.8128Z" fill="#434343"/>
<path d="M308.495 6.18609C307.827 3.92203 309.525 1.65241 311.885 1.65247L380.978 1.6543C384.396 1.65439 387.432 3.83896 388.518 7.08008L438.929 157.559C439.669 159.766 438.109 162.073 435.785 162.21L359.738 166.674C357.482 166.806 355.432 165.365 354.793 163.197L308.495 6.18609Z" fill="#E4E4E4"/>
<mask id="mask0_3617_41079" style="mask-type:alpha" maskUnits="userSpaceOnUse" x="308" y="1" width="132" height="166">
<path d="M308.495 6.18609C307.827 3.92203 309.525 1.65241 311.885 1.65247L380.978 1.6543C384.396 1.65439 387.432 3.83896 388.518 7.08008L438.929 157.559C439.669 159.766 438.109 162.073 435.785 162.21L359.738 166.674C357.482 166.806 355.432 165.365 354.793 163.197L308.495 6.18609Z" fill="#E4E4E4"/>
</mask>
<g mask="url(#mask0_3617_41079)">
<path d="M282.333 114.208C279.271 113.47 278.631 109.397 281.32 107.756L424.946 20.0902C426.288 19.2708 427.843 18.8679 429.415 18.9324L458.881 20.1417C462.365 20.2847 463.558 24.8534 460.589 26.6821L310.014 119.403C308.912 120.081 307.585 120.292 306.328 119.989L282.333 114.208Z" fill="white"/>
<path d="M302.599 130.715C300.491 131.608 298.961 128.628 300.915 127.435L432.526 47.1028L465.251 31.3381L302.933 130.543C302.826 130.609 302.714 130.666 302.599 130.715Z" fill="white"/>
</g>
<path d="M337.81 6.24436C337.529 4.92721 339.021 3.85938 341.142 3.85938H359.425C361.546 3.85938 363.491 4.92687 363.772 6.2438C364.052 7.56095 362.56 8.62878 360.439 8.62878H342.156C340.036 8.62878 338.09 7.56129 337.81 6.24436Z" fill="#434343"/>
<path d="M86.8814 182.07L70.0713 156.718C68.3082 154.06 70.2147 150.508 73.405 150.508L272.643 150.51C273.727 150.51 274.754 150.938 275.508 151.717C279.1 155.426 290.329 167.003 300.215 176.999C302.723 179.536 300.928 183.859 297.361 183.859H90.2151C88.8742 183.859 87.6224 183.187 86.8814 182.07Z" fill="#34363A"/>
<path d="M207.099 167.221C207.099 169.194 207.099 178.482 207.099 181.559H190.269C190.269 173.786 183.637 168.755 174.513 168.755C165.388 168.755 153.219 174.674 146.775 177.49C140.331 180.306 116.936 179.736 92.9819 179.736L75.2266 154.087L75.3171 154.036C88.3231 146.599 93.9098 143.404 116.936 129.327C138.671 117.673 156.299 125.18 162.221 127.547C166.958 129.441 177.284 140.491 181.855 144.14L207.099 167.221Z" fill="white"/>
<path d="M206.535 167.181C206.535 169.189 206.535 178.43 206.535 181.562H228.476C228.476 177.403 229.488 170.057 240.433 170.057C251.377 170.057 257.631 175.547 264.312 177.384C270.994 179.222 283.862 179.962 294.539 179.962V158.562C284.38 152.516 272.367 144.762 255.8 134.39C239.378 125.054 213.334 114.921 194.166 128.546C187.784 133.082 182.776 139.682 181.576 144.438L206.535 167.181Z" fill="white"/>
<mask id="mask1_3617_41079" style="mask-type:alpha" maskUnits="userSpaceOnUse" x="181" y="121" width="114" height="61">
<path d="M206.535 167.181C206.535 169.189 206.535 178.43 206.535 181.562H228.476C228.476 177.403 229.488 170.057 240.433 170.057C251.377 170.057 257.631 175.547 264.312 177.384C270.994 179.222 283.862 179.962 294.539 179.962V158.562C284.38 152.516 272.367 144.762 255.8 134.39C239.378 125.054 213.334 114.921 194.166 128.546C187.784 133.082 182.776 139.682 181.576 144.438L206.535 167.181Z" fill="white"/>
</mask>
<g mask="url(#mask1_3617_41079)">
<path d="M227.551 147.197C213.355 146.032 206.598 158.559 206.598 168.415V182.487C206.598 182.487 266.153 183.85 295.931 182.487V158.56H282.713C270.526 158.56 245.297 148.652 227.551 147.197Z" fill="#D9D9D9"/>
</g>
<mask id="mask2_3617_41079" style="mask-type:alpha" maskUnits="userSpaceOnUse" x="75" y="122" width="133" height="60">
<path d="M207.101 167.229C207.101 169.201 207.101 178.49 207.101 181.567H190.271C190.271 173.793 183.639 168.763 174.514 168.763C165.39 168.763 153.221 174.682 146.777 177.498C140.333 180.313 116.938 179.744 92.9839 179.744L75.2285 154.095L75.3191 154.043C88.3251 146.606 93.9118 143.412 116.938 129.335C138.672 117.681 156.301 125.188 162.223 127.555C166.96 129.449 177.286 140.499 181.857 144.148L207.101 167.229Z" fill="white"/>
</mask>
<g mask="url(#mask2_3617_41079)">
<path d="M88.4844 181.857H207.101V169.661C207.101 166.656 187.497 145.621 161.951 145.621C146.459 145.621 129.033 155.729 121.901 160.063L88.4844 181.857Z" fill="#D9D9D9"/>
</g>
<defs>
<linearGradient id="paint0_linear_3617_41079" x1="213.688" y1="1.65234" x2="213.688" y2="200.641" gradientUnits="userSpaceOnUse">
<stop stop-color="#404040"/>
<stop offset="1" stop-color="#949494" stop-opacity="0"/>
</linearGradient>
</defs>
</svg>
