<svg width="444" height="418" viewBox="0 0 444 418" fill="none" xmlns="http://www.w3.org/2000/svg">
<g filter="url(#filter0_dd_3452_39923)">
<path d="M189.637 58.7577L64.9185 100.887C60.1835 102.487 57.6572 107.637 59.1906 112.393C68.6935 141.874 81.4372 189.547 81.9881 192.683C82.5639 195.961 168.107 165.379 216.125 147.904C220.555 146.292 222.96 141.54 221.672 137.005L201.175 64.8257C199.769 59.8775 194.51 57.1114 189.637 58.7577Z" fill="#5592FC"/>
<path d="M244.728 106.03L62.3708 177.633C55.8481 180.194 52.5291 187.464 54.8668 194.07L80.4728 266.432C81.3629 268.947 83.0053 271.127 85.1771 272.677L138.087 310.432C141.979 313.209 147.082 313.625 151.373 311.516L330.544 223.427C334.713 221.377 337.471 217.257 337.779 212.622L341.285 159.823C341.66 154.178 338.342 148.955 333.17 146.662C307.723 135.378 269.79 114.534 255.865 106.778C252.444 104.872 248.374 104.599 244.728 106.03Z" fill="#F2F7FF"/>
<path d="M361.199 230.897L320.509 210.272C319.428 209.724 318.157 209.696 317.053 210.195L310.666 213.082C309.001 213.834 308.057 215.619 308.374 217.419L311.408 234.695C311.584 235.698 312.136 236.595 312.95 237.205L353.941 267.898C355.194 268.835 356.878 268.957 358.252 268.208L364.585 264.758C366.026 263.973 366.841 262.388 366.641 260.759L363.361 233.979C363.199 232.656 362.388 231.5 361.199 230.897Z" fill="#5592FC"/>
<path d="M393.694 258.743L320.287 228.327C318.248 227.482 315.951 227.517 313.938 228.424L176.219 290.479C170.573 293.023 169.834 300.743 174.896 304.311L235.407 346.972C237.802 348.66 240.928 348.904 243.556 347.608L394.171 273.309C400.338 270.266 400.047 261.376 393.694 258.743Z" fill="#5592FC"/>
<path d="M374.264 250.914L308.131 215.289C307.859 215.142 307.546 215.125 307.264 215.25C264.841 234.028 180.65 271.425 179.816 272.315C178.985 273.201 219.154 302.437 239.804 317.278C240.102 317.492 240.483 317.518 240.813 317.358L374.226 252.694C374.96 252.339 374.982 251.301 374.264 250.914Z" fill="#F4F4F4"/>
<path d="M374.94 254.762L308.807 219.136C308.535 218.99 308.222 218.972 307.94 219.097C265.517 237.876 181.326 275.273 180.492 276.163C179.661 277.049 219.83 306.285 240.48 321.125C240.778 321.34 241.158 321.366 241.489 321.206L374.901 256.542C375.636 256.186 375.658 255.149 374.94 254.762Z" fill="#F4F4F4"/>
<path d="M375.617 258.613L309.485 222.988C309.213 222.842 308.9 222.824 308.617 222.949C266.194 241.728 182.004 279.125 181.169 280.014C180.338 280.9 220.507 310.137 241.157 324.977C241.455 325.191 241.836 325.217 242.166 325.057L375.579 260.394C376.313 260.038 376.335 259 375.617 258.613Z" fill="#F4F4F4"/>
<path d="M376.293 262.465L310.16 226.84C309.888 226.693 309.576 226.675 309.293 226.8C266.87 245.579 182.68 282.976 181.845 283.866C181.014 284.752 221.183 313.988 241.833 328.829C242.131 329.043 242.512 329.069 242.842 328.909L376.255 264.245C376.989 263.889 377.011 262.852 376.293 262.465Z" fill="#F4F4F4"/>
<path d="M376.969 266.316L310.836 230.691C310.564 230.545 310.251 230.527 309.969 230.652C267.546 249.431 183.355 286.828 182.521 287.717C181.69 288.603 221.859 317.84 242.509 332.68C242.807 332.894 243.188 332.92 243.518 332.76L376.931 268.097C377.665 267.741 377.687 266.703 376.969 266.316Z" fill="#F4F4F4"/>
<path d="M173.515 40.7361L70.7493 75.8281C63.9495 78.15 60.3108 85.54 62.4436 92.4015C70.912 119.646 81.3856 159.171 81.8659 161.906C82.3793 164.829 154.61 138.805 198.429 122.704C204.793 120.365 208.256 113.53 206.419 107.004L190.23 49.5149C188.208 42.3358 180.573 38.326 173.515 40.7361Z" fill="#F4F4F4"/>
<path d="M246.402 94.8563L52.154 168.423C47.5227 170.177 45.1786 175.344 46.9086 179.984L54.5685 200.53C55.3526 202.633 56.7615 204.446 58.6059 205.726L119.657 248.074C121.6 249.422 124.093 249.698 126.284 248.806L339.665 161.996C341.712 161.163 343.136 159.271 343.37 157.073L345.233 139.568C345.605 136.072 343.652 132.744 340.42 131.364L255.365 95.0426C252.513 93.8249 249.301 93.7582 246.402 94.8563Z" fill="#5592FC"/>
<path d="M216.267 296.35L179.436 273.982C178.279 273.279 176.845 273.209 175.626 273.796L170.394 276.313C168.78 277.09 167.879 278.845 168.189 280.609L171.225 297.897C171.408 298.937 171.994 299.863 172.857 300.473L214.087 329.592C215.33 330.471 216.965 330.567 218.303 329.84L220.55 328.62C222.06 327.799 222.878 326.106 222.58 324.413L218.13 299.077C217.931 297.942 217.252 296.948 216.267 296.35Z" fill="#5592FC"/>
</g>
<defs>
<filter id="filter0_dd_3452_39923" x="-35.5176" y="-23.2266" width="515.273" height="453.227" filterUnits="userSpaceOnUse" color-interpolation-filters="sRGB">
<feFlood flood-opacity="0" result="BackgroundImageFix"/>
<feColorMatrix in="SourceAlpha" type="matrix" values="0 0 0 0 0 0 0 0 0 0 0 0 0 0 0 0 0 0 127 0" result="hardAlpha"/>
<feOffset dy="12"/>
<feGaussianBlur stdDeviation="18"/>
<feComposite in2="hardAlpha" operator="out"/>
<feColorMatrix type="matrix" values="0 0 0 0 0.333333 0 0 0 0 0.572549 0 0 0 0 0.988235 0 0 0 0.18 0"/>
<feBlend mode="normal" in2="BackgroundImageFix" result="effect1_dropShadow_3452_39923"/>
<feColorMatrix in="SourceAlpha" type="matrix" values="0 0 0 0 0 0 0 0 0 0 0 0 0 0 0 0 0 0 127 0" result="hardAlpha"/>
<feOffset dy="1"/>
<feGaussianBlur stdDeviation="2"/>
<feComposite in2="hardAlpha" operator="out"/>
<feColorMatrix type="matrix" values="0 0 0 0 0.333333 0 0 0 0 0.572549 0 0 0 0 0.988235 0 0 0 0.16 0"/>
<feBlend mode="normal" in2="effect1_dropShadow_3452_39923" result="effect2_dropShadow_3452_39923"/>
<feBlend mode="normal" in="SourceGraphic" in2="effect2_dropShadow_3452_39923" result="shape"/>
</filter>
</defs>
</svg>
