<svg width="1012" height="1111" viewBox="0 0 1012 1111" fill="none" xmlns="http://www.w3.org/2000/svg">
<g opacity="0.1">
<path d="M326.842 1042.3C328.035 1039.07 328.284 1033.37 328.244 1028.59C328.204 1023.82 324.386 1020.06 319.63 1019.74L312.961 1019.29L306.509 1053.56L26.2173 956.953L6.64731 961.653C2.88881 962.556 1.67458 967.297 4.53667 969.895L153.538 1105.15C158.742 1109.87 166.108 1111.38 172.753 1109.09L301.792 1064.57C312.874 1060.75 322.781 1053.29 326.842 1042.3Z" fill="#5592FC"/>
<path d="M154.703 1092.85C161.134 1098.71 170.173 1100.66 178.428 1097.91C211.527 1086.91 295.43 1058.96 303.019 1055.91C312.514 1052.22 318.13 1046.12 319.826 1037.11C322.143 1024.8 315.346 1020.55 309.124 1022.35L179.744 1059.73L21.8496 924.582C30.9661 932.515 14.2564 964.913 14.2564 964.913L154.703 1092.85Z" fill="white"/>
<path d="M158.643 890.628C162.82 889.883 167.113 891.012 170.381 893.716L324.401 1021.14L175.609 1065.21C170.717 1066.66 165.423 1065.42 161.685 1061.95L20.5864 930.918C14.7674 925.514 17.6275 915.785 25.4453 914.391L158.643 890.628Z" fill="#5592FC"/>
</g>
<g opacity="0.05">
<path d="M355.195 166.913C356.568 163.197 356.8 156.504 356.722 151.115C356.653 146.349 352.84 142.594 348.085 142.271L339.998 141.722L332.934 179.241L26.06 73.4759L3.79477 78.8231C0.0362673 79.7257 -1.17795 84.4674 1.68414 87.0654L166.256 236.452C171.46 241.176 178.826 242.688 185.471 240.395L327.77 191.3C339.903 187.114 350.749 178.954 355.195 166.913Z" fill="#5592FC"/>
<path d="M167.72 223.168C174.151 229.027 183.226 230.963 191.481 228.219C226.824 216.471 320.71 185.206 329.115 181.822C339.51 177.781 345.659 171.105 347.515 161.243C350.053 147.767 342.61 143.115 335.799 145.083L194.149 186.003L21.2793 38.043C31.2604 46.7278 12.966 82.1988 12.966 82.1988L167.72 223.168Z" fill="white"/>
<path d="M171.673 0.75822C175.85 0.0131217 180.143 1.14276 183.411 3.84704L352.527 143.758L188.875 192.236C183.983 193.685 178.689 192.445 174.951 188.973L18.5569 43.7351C12.7379 38.3312 15.5981 28.6027 23.4159 27.208L171.673 0.75822Z" fill="#5592FC"/>
</g>
<g opacity="0.05">
<path d="M1011.14 879.237C1010.41 874.91 1006.85 868.275 1003.84 863.243C1001.39 859.154 996.221 857.792 991.935 859.878L983.602 863.936L997.034 902.552L655.608 967.841L637.306 985.117C634.495 987.77 635.801 992.487 639.577 993.317L873.481 1044.69C880.346 1046.2 887.488 1043.85 892.111 1038.55L998.663 916.506C1007.7 906.151 1013.43 892.792 1011.14 879.237Z" fill="#5592FC"/>
<path d="M867.946 1031.62C876.44 1033.5 885.261 1030.68 891.056 1024.19C917.082 995.051 988.805 914.671 994.86 906.983C1002.36 897.689 1004.52 888.212 1000.99 878.061C996.161 864.19 986.769 863.836 981.491 869.293L871.715 982.792L632.283 937.473C646.183 940.221 648.092 982.92 648.092 982.92L867.946 1031.62Z" fill="white"/>
<path d="M752.487 822.384C755.739 819.66 760.025 818.503 764.206 819.222L996.329 859.146L869.74 991.813C866.218 995.504 861.009 997.062 856.039 995.911L631.459 943.9C623.723 942.108 621.363 932.246 627.45 927.146L752.487 822.384Z" fill="#5592FC"/>
</g>
<g opacity="0.05">
<path d="M717.076 93.5333C716.821 92.3438 715.988 90.7242 715.075 89.2017C713.501 86.5771 710.114 85.8648 707.425 87.3247L706.089 88.0496L711.983 102.854L580.174 134.149L574.944 139.542C573.216 141.323 574.188 144.312 576.633 144.736L663.491 159.83C667.937 160.603 672.451 158.89 675.266 155.363L712.858 108.259C716.199 104.071 718.199 98.7713 717.076 93.5333Z" fill="#5592FC"/>
<path d="M660.447 154.711C665.948 155.677 671.528 153.615 675.06 149.289C686.026 135.858 709.145 107.498 711.215 104.616C713.977 100.869 714.652 97.1418 713.103 93.2505C710.986 87.9329 707.323 87.9565 705.362 90.1722L664.574 136.251L570.572 122.727C576.031 123.557 577.509 140.149 577.509 140.149L660.447 154.711Z" fill="white"/>
<path d="M614.145 76.9912C616.153 75.1515 618.869 74.2884 621.571 74.6311L710.96 85.9686L665.322 138.236C663.168 140.703 659.871 141.85 656.65 141.253L575.147 126.134C570.134 125.204 568.341 118.946 572.1 115.502L614.145 76.9912Z" fill="#5592FC"/>
</g>
<path fillRule="evenodd" clipRule="evenodd" d="M147.773 177.051C137.97 177.051 130.023 184.998 130.023 194.801V240.077C130.023 249.88 137.97 257.827 147.773 257.827H372.501C374.404 257.827 376.162 258.842 377.113 260.489L386.98 277.579C389.029 281.129 394.153 281.129 396.203 277.579L406.069 260.489C407.021 258.842 408.779 257.827 410.681 257.827H635.227C645.03 257.827 652.977 249.88 652.977 240.077V194.801C652.977 184.998 645.03 177.051 635.227 177.051H147.773Z" fill="#262932"/>
<ellipse cx="205.138" cy="227.538" rx="4.34708" ry="4.34708" fill="url(#paint0_radial_3684_50196)"/>
<ellipse cx="205.138" cy="227.538" rx="4.34708" ry="4.34708" fill="url(#paint1_linear_3684_50196)"/>
<ellipse cx="205.138" cy="227.538" rx="4.34708" ry="4.34708" fill="url(#paint2_radial_3684_50196)"/>
<rect x="203.707" y="198.793" width="2.85992" height="5.17906" rx="1.20418" fill="url(#paint3_radial_3684_50196)"/>
<rect x="203.707" y="198.793" width="2.85992" height="5.17906" rx="1.20418" fill="url(#paint4_linear_3684_50196)"/>
<rect x="203.707" y="198.793" width="2.85992" height="5.17906" rx="1.20418" fill="url(#paint5_radial_3684_50196)"/>
<path d="M195.611 209.022C196.492 204.611 200.344 201.427 204.832 201.383C204.864 201.383 204.896 201.383 204.927 201.383H205.347C205.378 201.383 205.41 201.383 205.441 201.383C209.93 201.427 213.781 204.611 214.663 209.022L216.873 220.086C217.032 220.881 217.392 221.623 217.918 222.239L219.39 223.963C220.124 224.823 220.527 225.916 220.527 227.047V228.622C220.527 229.114 220.129 229.512 219.637 229.512H190.637C190.145 229.512 189.746 229.114 189.746 228.622V227.047C189.746 225.916 190.15 224.823 190.884 223.963L192.355 222.239C192.882 221.623 193.242 220.881 193.401 220.086L195.611 209.022Z" fill="url(#paint6_linear_3684_50196)"/>
<path d="M195.611 209.022C196.492 204.611 200.344 201.427 204.832 201.383C204.864 201.383 204.896 201.383 204.927 201.383H205.347C205.378 201.383 205.41 201.383 205.441 201.383C209.93 201.427 213.781 204.611 214.663 209.022L216.873 220.086C217.032 220.881 217.392 221.623 217.918 222.239L219.39 223.963C220.124 224.823 220.527 225.916 220.527 227.047V228.622C220.527 229.114 220.129 229.512 219.637 229.512H190.637C190.145 229.512 189.746 229.114 189.746 228.622V227.047C189.746 225.916 190.15 224.823 190.884 223.963L192.355 222.239C192.882 221.623 193.242 220.881 193.401 220.086L195.611 209.022Z" fill="url(#paint7_radial_3684_50196)"/>
<path d="M195.611 209.022C196.492 204.611 200.344 201.427 204.832 201.383C204.864 201.383 204.896 201.383 204.927 201.383H205.347C205.378 201.383 205.41 201.383 205.441 201.383C209.93 201.427 213.781 204.611 214.663 209.022L216.873 220.086C217.032 220.881 217.392 221.623 217.918 222.239L219.39 223.963C220.124 224.823 220.527 225.916 220.527 227.047V228.622C220.527 229.114 220.129 229.512 219.637 229.512H190.637C190.145 229.512 189.746 229.114 189.746 228.622V227.047C189.746 225.916 190.15 224.823 190.884 223.963L192.355 222.239C192.882 221.623 193.242 220.881 193.401 220.086L195.611 209.022Z" fill="url(#paint8_radial_3684_50196)" fill-opacity="0.6"/>
<path d="M195.611 209.022C196.492 204.611 200.344 201.427 204.832 201.383C204.864 201.383 204.896 201.383 204.927 201.383H205.347C205.378 201.383 205.41 201.383 205.441 201.383C209.93 201.427 213.781 204.611 214.663 209.022L216.873 220.086C217.032 220.881 217.392 221.623 217.918 222.239L219.39 223.963C220.124 224.823 220.527 225.916 220.527 227.047V228.622C220.527 229.114 220.129 229.512 219.637 229.512H190.637C190.145 229.512 189.746 229.114 189.746 228.622V227.047C189.746 225.916 190.15 224.823 190.884 223.963L192.355 222.239C192.882 221.623 193.242 220.881 193.401 220.086L195.611 209.022Z" fill="url(#paint9_radial_3684_50196)"/>
<path d="M195.611 209.022C196.492 204.611 200.344 201.427 204.832 201.383C204.864 201.383 204.896 201.383 204.927 201.383H205.347C205.378 201.383 205.41 201.383 205.441 201.383C209.93 201.427 213.781 204.611 214.663 209.022L216.873 220.086C217.032 220.881 217.392 221.623 217.918 222.239L219.39 223.963C220.124 224.823 220.527 225.916 220.527 227.047V228.622C220.527 229.114 220.129 229.512 219.637 229.512H190.637C190.145 229.512 189.746 229.114 189.746 228.622V227.047C189.746 225.916 190.15 224.823 190.884 223.963L192.355 222.239C192.882 221.623 193.242 220.881 193.401 220.086L195.611 209.022Z" fill="url(#paint10_radial_3684_50196)" fill-opacity="0.5"/>
<path d="M195.611 209.022C196.492 204.611 200.344 201.427 204.832 201.383C204.864 201.383 204.896 201.383 204.927 201.383H205.347C205.378 201.383 205.41 201.383 205.441 201.383C209.93 201.427 213.781 204.611 214.663 209.022L216.873 220.086C217.032 220.881 217.392 221.623 217.918 222.239L219.39 223.963C220.124 224.823 220.527 225.916 220.527 227.047V228.622C220.527 229.114 220.129 229.512 219.637 229.512H190.637C190.145 229.512 189.746 229.114 189.746 228.622V227.047C189.746 225.916 190.15 224.823 190.884 223.963L192.355 222.239C192.882 221.623 193.242 220.881 193.401 220.086L195.611 209.022Z" fill="url(#paint11_radial_3684_50196)" fill-opacity="0.6"/>
<path d="M195.611 209.022C196.492 204.611 200.344 201.427 204.832 201.383C204.864 201.383 204.896 201.383 204.927 201.383H205.347C205.378 201.383 205.41 201.383 205.441 201.383C209.93 201.427 213.781 204.611 214.663 209.022L216.873 220.086C217.032 220.881 217.392 221.623 217.918 222.239L219.39 223.963C220.124 224.823 220.527 225.916 220.527 227.047V228.622C220.527 229.114 220.129 229.512 219.637 229.512H190.637C190.145 229.512 189.746 229.114 189.746 228.622V227.047C189.746 225.916 190.15 224.823 190.884 223.963L192.355 222.239C192.882 221.623 193.242 220.881 193.401 220.086L195.611 209.022Z" fill="url(#paint12_radial_3684_50196)" fill-opacity="0.6"/>
<path d="M195.611 209.022C196.492 204.611 200.344 201.427 204.832 201.383C204.864 201.383 204.896 201.383 204.927 201.383H205.347C205.378 201.383 205.41 201.383 205.441 201.383C209.93 201.427 213.781 204.611 214.663 209.022L216.873 220.086C217.032 220.881 217.392 221.623 217.918 222.239L219.39 223.963C220.124 224.823 220.527 225.916 220.527 227.047V228.622C220.527 229.114 220.129 229.512 219.637 229.512H190.637C190.145 229.512 189.746 229.114 189.746 228.622V227.047C189.746 225.916 190.15 224.823 190.884 223.963L192.355 222.239C192.882 221.623 193.242 220.881 193.401 220.086L195.611 209.022Z" fill="url(#paint13_radial_3684_50196)" fill-opacity="0.6"/>
<path d="M195.611 209.022C196.492 204.611 200.344 201.427 204.832 201.383C204.864 201.383 204.896 201.383 204.927 201.383H205.347C205.378 201.383 205.41 201.383 205.441 201.383C209.93 201.427 213.781 204.611 214.663 209.022L216.873 220.086C217.032 220.881 217.392 221.623 217.918 222.239L219.39 223.963C220.124 224.823 220.527 225.916 220.527 227.047V228.622C220.527 229.114 220.129 229.512 219.637 229.512H190.637C190.145 229.512 189.746 229.114 189.746 228.622V227.047C189.746 225.916 190.15 224.823 190.884 223.963L192.355 222.239C192.882 221.623 193.242 220.881 193.401 220.086L195.611 209.022Z" fill="url(#paint14_radial_3684_50196)"/>
<path d="M195.611 209.022C196.492 204.611 200.344 201.427 204.832 201.383C204.864 201.383 204.896 201.383 204.927 201.383H205.347C205.378 201.383 205.41 201.383 205.441 201.383C209.93 201.427 213.781 204.611 214.663 209.022L216.873 220.086C217.032 220.881 217.392 221.623 217.918 222.239L219.39 223.963C220.124 224.823 220.527 225.916 220.527 227.047V228.622C220.527 229.114 220.129 229.512 219.637 229.512H190.637C190.145 229.512 189.746 229.114 189.746 228.622V227.047C189.746 225.916 190.15 224.823 190.884 223.963L192.355 222.239C192.882 221.623 193.242 220.881 193.401 220.086L195.611 209.022Z" fill="url(#paint15_radial_3684_50196)"/>
<path d="M195.611 209.022C196.492 204.611 200.344 201.427 204.832 201.383C204.864 201.383 204.896 201.383 204.927 201.383H205.347C205.378 201.383 205.41 201.383 205.441 201.383C209.93 201.427 213.781 204.611 214.663 209.022L216.873 220.086C217.032 220.881 217.392 221.623 217.918 222.239L219.39 223.963C220.124 224.823 220.527 225.916 220.527 227.047V228.622C220.527 229.114 220.129 229.512 219.637 229.512H190.637C190.145 229.512 189.746 229.114 189.746 228.622V227.047C189.746 225.916 190.15 224.823 190.884 223.963L192.355 222.239C192.882 221.623 193.242 220.881 193.401 220.086L195.611 209.022Z" fill="url(#paint16_linear_3684_50196)"/>
<path d="M195.611 209.022C196.492 204.611 200.344 201.427 204.832 201.383C204.864 201.383 204.896 201.383 204.927 201.383H205.347C205.378 201.383 205.41 201.383 205.441 201.383C209.93 201.427 213.781 204.611 214.663 209.022L216.873 220.086C217.032 220.881 217.392 221.623 217.918 222.239L219.39 223.963C220.124 224.823 220.527 225.916 220.527 227.047V228.622C220.527 229.114 220.129 229.512 219.637 229.512H190.637C190.145 229.512 189.746 229.114 189.746 228.622V227.047C189.746 225.916 190.15 224.823 190.884 223.963L192.355 222.239C192.882 221.623 193.242 220.881 193.401 220.086L195.611 209.022Z" fill="url(#paint17_linear_3684_50196)"/>
<path d="M195.611 209.022C196.492 204.611 200.344 201.427 204.832 201.383C204.864 201.383 204.896 201.383 204.927 201.383H205.347C205.378 201.383 205.41 201.383 205.441 201.383C209.93 201.427 213.781 204.611 214.663 209.022L216.873 220.086C217.032 220.881 217.392 221.623 217.918 222.239L219.39 223.963C220.124 224.823 220.527 225.916 220.527 227.047V228.622C220.527 229.114 220.129 229.512 219.637 229.512H190.637C190.145 229.512 189.746 229.114 189.746 228.622V227.047C189.746 225.916 190.15 224.823 190.884 223.963L192.355 222.239C192.882 221.623 193.242 220.881 193.401 220.086L195.611 209.022Z" fill="url(#paint18_radial_3684_50196)" fill-opacity="0.7"/>
<path d="M195.611 209.022C196.492 204.611 200.344 201.427 204.832 201.383C204.864 201.383 204.896 201.383 204.927 201.383H205.347C205.378 201.383 205.41 201.383 205.441 201.383C209.93 201.427 213.781 204.611 214.663 209.022L216.873 220.086C217.032 220.881 217.392 221.623 217.918 222.239L219.39 223.963C220.124 224.823 220.527 225.916 220.527 227.047V228.622C220.527 229.114 220.129 229.512 219.637 229.512H190.637C190.145 229.512 189.746 229.114 189.746 228.622V227.047C189.746 225.916 190.15 224.823 190.884 223.963L192.355 222.239C192.882 221.623 193.242 220.881 193.401 220.086L195.611 209.022Z" fill="url(#paint19_radial_3684_50196)" fill-opacity="0.7"/>
<path d="M195.611 209.022C196.492 204.611 200.344 201.427 204.832 201.383C204.864 201.383 204.896 201.383 204.927 201.383H205.347C205.378 201.383 205.41 201.383 205.441 201.383C209.93 201.427 213.781 204.611 214.663 209.022L216.873 220.086C217.032 220.881 217.392 221.623 217.918 222.239L219.39 223.963C220.124 224.823 220.527 225.916 220.527 227.047V228.622C220.527 229.114 220.129 229.512 219.637 229.512H190.637C190.145 229.512 189.746 229.114 189.746 228.622V227.047C189.746 225.916 190.15 224.823 190.884 223.963L192.355 222.239C192.882 221.623 193.242 220.881 193.401 220.086L195.611 209.022Z" fill="url(#paint20_radial_3684_50196)"/>
<path d="M195.611 209.022C196.492 204.611 200.344 201.427 204.832 201.383C204.864 201.383 204.896 201.383 204.927 201.383H205.347C205.378 201.383 205.41 201.383 205.441 201.383C209.93 201.427 213.781 204.611 214.663 209.022L216.873 220.086C217.032 220.881 217.392 221.623 217.918 222.239L219.39 223.963C220.124 224.823 220.527 225.916 220.527 227.047V228.622C220.527 229.114 220.129 229.512 219.637 229.512H190.637C190.145 229.512 189.746 229.114 189.746 228.622V227.047C189.746 225.916 190.15 224.823 190.884 223.963L192.355 222.239C192.882 221.623 193.242 220.881 193.401 220.086L195.611 209.022Z" fill="url(#paint21_radial_3684_50196)" fill-opacity="0.2"/>
<path d="M254.965 219.879H228.965V216.691H254.965V219.879ZM243.855 229.191H239.902V218.738H243.855V229.191ZM251.871 213.629H232.012V202.16H251.871V213.629ZM235.934 210.504H247.887V205.332H235.934V210.504ZM280.59 229.223H276.637V200.754H280.59V229.223ZM278.543 214.973H270.98V211.723H278.543V214.973ZM271.137 203.754C271.137 206.806 270.751 209.561 269.98 212.02C269.22 214.467 267.902 216.723 266.027 218.785C264.152 220.848 261.611 222.676 258.402 224.27L256.371 221.145C259.038 219.832 261.163 218.368 262.746 216.754C264.34 215.139 265.48 213.332 266.168 211.332C266.866 209.322 267.215 207.03 267.215 204.457V203.754H271.137ZM269.293 206.895H257.715V203.754H269.293V206.895ZM310.277 217.801H284.277V214.645H310.277V217.801ZM299.527 222.754H295.48V216.723H299.527V222.754ZM307.418 228.738H287.371V225.488H307.418V228.738ZM291.387 226.363H287.371V220.207H291.387V226.363ZM297.262 201.316C299.314 201.316 301.111 201.561 302.652 202.051C304.204 202.54 305.408 203.228 306.262 204.113C307.116 204.999 307.543 206.04 307.543 207.238C307.543 208.415 307.116 209.447 306.262 210.332C305.408 211.207 304.204 211.884 302.652 212.363C301.111 212.842 299.314 213.082 297.262 213.082C295.22 213.082 293.418 212.842 291.855 212.363C290.293 211.884 289.079 211.207 288.215 210.332C287.361 209.447 286.934 208.415 286.934 207.238C286.934 206.04 287.361 204.999 288.215 204.113C289.079 203.228 290.293 202.54 291.855 202.051C293.418 201.561 295.22 201.316 297.262 201.316ZM297.262 204.473C296.033 204.473 294.965 204.577 294.059 204.785C293.163 204.993 292.47 205.306 291.98 205.723C291.501 206.129 291.262 206.634 291.262 207.238C291.262 207.801 291.501 208.28 291.98 208.676C292.47 209.072 293.163 209.374 294.059 209.582C294.965 209.79 296.033 209.895 297.262 209.895C298.501 209.895 299.569 209.79 300.465 209.582C301.361 209.374 302.048 209.072 302.527 208.676C303.007 208.28 303.246 207.801 303.246 207.238C303.246 206.634 303.007 206.129 302.527 205.723C302.048 205.306 301.361 204.993 300.465 204.785C299.569 204.577 298.501 204.473 297.262 204.473ZM340.059 206.395H321.918V203.238H340.059V206.395ZM345.309 225.738H319.371V222.504H345.309V225.738ZM328.855 223.566H324.871V213.566H328.855V223.566ZM342.934 206.02C342.934 207.603 342.918 208.978 342.887 210.145C342.855 211.311 342.762 212.66 342.605 214.191C342.449 215.712 342.21 217.363 341.887 219.145L337.965 218.77C338.277 217.092 338.501 215.514 338.637 214.035C338.783 212.546 338.871 211.223 338.902 210.066C338.934 208.91 338.949 207.561 338.949 206.02V203.238H342.934V206.02ZM335.918 223.566H331.996V213.566H335.918V223.566ZM371.84 229.223H368.012V200.754H371.84V229.223ZM369.309 214.988H364.512V211.754H369.309V214.988ZM365.59 227.91H361.824V201.191H365.59V227.91ZM355.199 207.801C355.199 210.28 354.996 212.54 354.59 214.582C354.184 216.624 353.512 218.441 352.574 220.035C351.647 221.618 350.418 222.868 348.887 223.785L346.434 220.723C347.809 219.931 348.923 218.884 349.777 217.582C350.642 216.27 351.257 214.796 351.621 213.16C351.996 211.525 352.184 209.738 352.184 207.801V205.16H355.199V207.801ZM356.059 207.801C356.059 209.572 356.246 211.217 356.621 212.738C357.007 214.249 357.632 215.613 358.496 216.832C359.361 218.04 360.48 219.004 361.855 219.723L359.559 222.754C358.007 221.931 356.741 220.775 355.762 219.285C354.793 217.785 354.09 216.072 353.652 214.145C353.225 212.207 353.012 210.092 353.012 207.801V205.16H356.059V207.801ZM360.418 206.91H347.402V203.723H360.418V206.91ZM400.652 216.488H374.652V213.52H400.652V216.488ZM397.559 224.613H381.605V227.113H377.621V222.098H393.605V220.676H377.605V217.895H397.559V224.613ZM398.371 228.957H377.621V226.238H398.371V228.957ZM397.512 207.973H381.855V210.348H377.887V205.441H393.512V204.004H377.84V201.285H397.512V207.973ZM397.996 212.191H377.887V209.504H397.996V212.191ZM410.809 203.723H419.652C421.34 203.723 422.793 204.046 424.012 204.691C425.241 205.327 426.173 206.223 426.809 207.379C427.444 208.535 427.762 209.863 427.762 211.363C427.762 212.874 427.434 214.202 426.777 215.348C426.132 216.483 425.189 217.374 423.949 218.02C422.72 218.655 421.251 218.973 419.543 218.973H413.855V215.191H418.809C419.715 215.191 420.475 215.035 421.09 214.723C421.715 214.4 422.178 213.952 422.48 213.379C422.783 212.806 422.934 212.134 422.934 211.363C422.934 210.592 422.783 209.926 422.48 209.363C422.178 208.79 421.715 208.353 421.09 208.051C420.475 207.738 419.71 207.582 418.793 207.582H415.496V226.348H410.809V203.723ZM432.84 226.348V222.316H438.512C439.97 222.316 441.184 222.056 442.152 221.535C443.121 221.014 443.85 220.217 444.34 219.145C444.829 218.061 445.074 216.686 445.074 215.02C445.074 213.353 444.829 211.983 444.34 210.91C443.861 209.827 443.137 209.03 442.168 208.52C441.199 208.009 439.991 207.754 438.543 207.754H432.73V203.723H438.777C441.048 203.723 443.007 204.176 444.652 205.082C446.309 205.978 447.574 207.275 448.449 208.973C449.335 210.671 449.777 212.686 449.777 215.02C449.777 217.363 449.335 219.384 448.449 221.082C447.564 222.78 446.288 224.082 444.621 224.988C442.965 225.895 440.996 226.348 438.715 226.348H432.84ZM435.434 226.348H430.746V203.723H435.434V226.348ZM453.184 203.723H468.09V207.598H457.871V213.098H467.105V216.957H457.871V226.348H453.184V203.723ZM496.121 226.066H470.121V222.801H496.121V226.066ZM485.027 224.16H481.105V217.41H485.027V224.16ZM493.121 212.051H477.09V216.91H473.121V208.926H489.184V205.832H473.074V202.629H493.121V212.051ZM493.793 218.488H473.121V215.254H493.793V218.488ZM527.605 229.223H523.605V200.754H527.605V229.223ZM531.824 214.738H526.73V211.41H531.824V214.738ZM510.059 209.973H515.965V203.051H519.949V222.645H506.074V203.051H510.059V209.973ZM515.965 219.395V213.066H510.059V219.395H515.965ZM558.777 217.238H532.84V214.004H558.777V217.238ZM547.668 229.207H543.652V216.738H547.668V229.207ZM541.652 205.691H534.871V202.504H541.652V205.691ZM544.309 204.254C544.309 205.473 544.283 206.572 544.23 207.551C544.178 208.52 544.048 209.681 543.84 211.035C543.632 212.389 543.303 213.853 542.855 215.426L538.934 214.785C539.371 213.306 539.689 211.936 539.887 210.676C540.095 209.405 540.225 208.327 540.277 207.441C540.329 206.546 540.361 205.483 540.371 204.254V202.504H544.309V204.254ZM553.746 205.691H546.262V202.504H553.746V205.691ZM555.934 204.457C555.934 205.645 555.913 206.728 555.871 207.707C555.84 208.686 555.741 209.837 555.574 211.16C555.408 212.473 555.142 213.879 554.777 215.379L550.902 214.801C551.236 213.374 551.475 212.046 551.621 210.816C551.777 209.587 551.876 208.525 551.918 207.629C551.96 206.733 551.98 205.676 551.98 204.457V202.504H555.934V204.457ZM570.137 208.52C570.137 210.697 569.829 212.811 569.215 214.863C568.6 216.905 567.689 218.723 566.48 220.316C565.272 221.9 563.829 223.087 562.152 223.879L559.809 220.738C561.35 220.02 562.652 219.004 563.715 217.691C564.788 216.379 565.6 214.931 566.152 213.348C566.704 211.764 566.98 210.155 566.98 208.52V205.207H570.137V208.52ZM570.98 208.52C570.98 210.02 571.241 211.52 571.762 213.02C572.293 214.509 573.079 215.879 574.121 217.129C575.173 218.368 576.449 219.332 577.949 220.02L575.73 223.145C574.064 222.384 572.637 221.243 571.449 219.723C570.262 218.202 569.361 216.473 568.746 214.535C568.132 212.587 567.824 210.582 567.824 208.52V205.207H570.98V208.52ZM576.715 206.785H560.949V203.535H576.715V206.785ZM582.918 229.223H578.918V200.754H582.918V229.223ZM587.137 214.973H582.043V211.645H587.137V214.973ZM594.184 219.582H590.199L589.777 203.723H594.621L594.184 219.582ZM592.199 226.629C591.73 226.629 591.293 226.509 590.887 226.27C590.48 226.02 590.158 225.697 589.918 225.301C589.689 224.895 589.574 224.457 589.574 223.988C589.574 223.53 589.689 223.103 589.918 222.707C590.158 222.301 590.48 221.983 590.887 221.754C591.293 221.525 591.73 221.41 592.199 221.41C592.658 221.41 593.085 221.525 593.48 221.754C593.887 221.983 594.21 222.301 594.449 222.707C594.699 223.103 594.824 223.53 594.824 223.988C594.824 224.457 594.699 224.895 594.449 225.301C594.21 225.697 593.887 226.02 593.48 226.27C593.085 226.509 592.658 226.629 592.199 226.629Z" fill="white"/>
<g opacity="0.03">
<path d="M688.487 711.378C689.193 709.65 689.845 707.641 690.43 705.581C692.405 698.628 686.652 692.106 679.474 692.441L674.231 716.65L488.271 631.219L477.423 632.746C473.621 633.281 472.025 637.905 474.649 640.783L564.544 739.4C569.24 744.551 576.277 746.801 582.975 745.293L670.002 725.695C678.1 723.872 685.332 719.109 688.487 711.378Z" fill="#576F9A"/>
<path d="M565.497 730.408C571.303 736.8 579.968 739.644 588.285 737.859C613.561 732.433 666.184 721.085 671.247 719.579C677.943 717.676 682.588 712.313 684.259 706.222C686.542 697.899 682.14 694.514 677.789 695.333L587.291 712.365L487.125 608.629C492.901 614.708 479.645 635.901 479.645 635.901L565.497 730.408Z" fill="white"/>
<path d="M580.406 594.625C584.626 594.287 588.805 595.851 591.825 598.897L687.852 695.765L586.644 715.398C581.679 716.361 576.54 714.602 573.124 710.769L489.934 617.432C484.61 611.458 488.25 602.008 496.117 601.378L580.406 594.625Z" fill="#576F9A"/>
</g>
<path d="M555.933 849.61C556.052 847.029 555.972 844.107 555.781 841.15C555.135 831.166 544.61 825.326 535.404 829.088L539.783 863.091L257.674 837.83L241.155 846.455C237.752 848.232 237.796 853.123 241.232 854.956L411.259 945.709C417.318 948.943 424.583 948.766 430.359 945.242L539.776 878.49C550.171 872.148 555.367 861.845 555.933 849.61Z" fill="#576F9A"/>
<path d="M409.072 933.942C416.683 938.021 425.774 937.817 433.013 933.352C461.163 915.992 531.036 872.829 537.252 868.292C545.102 862.708 548.677 853.562 548.033 844.844C547.154 832.931 539.846 830.556 534.55 833.64L424.414 897.782L245.717 808.898C256.066 814.15 248.597 847.932 248.597 847.932L409.072 933.942Z" fill="white"/>
<path d="M363.224 746.362C367.087 744.63 371.549 744.705 375.415 746.565L547.873 829.535L422.276 903.622C417.92 906.192 412.489 906.255 407.986 903.786L246.908 815.48C239.891 811.633 240.157 801.51 247.359 798.283L363.224 746.362Z" fill="#5592FC"/>
<path d="M585.824 790.505C585.968 787.383 585.871 783.849 585.64 780.272C584.859 768.198 572.13 761.134 560.995 765.684L566.291 806.81L225.09 776.257L203.433 787.565C200.03 789.342 200.074 794.233 203.51 796.067L412.725 907.737C418.875 911.019 426.259 910.784 432.065 907.12L564.689 823.447C576.44 816.033 585.178 804.467 585.824 790.505Z" fill="#5592FC"/>
<path d="M410.776 893.874C418.387 897.953 427.499 897.736 434.739 893.272C467.001 873.38 555.528 818.715 563.231 813.093C572.725 806.339 577.049 795.277 576.27 784.733C575.207 770.324 566.368 767.452 559.963 771.182L426.757 848.76L210.629 741.258C223.146 747.61 214.113 788.468 214.113 788.468L410.776 893.874Z" fill="white"/>
<path d="M354.023 665.057C357.886 663.325 362.348 663.4 366.214 665.26L576.073 766.224L422.697 856.698C418.34 859.268 412.909 859.331 408.406 856.862L208.493 747.266C201.476 743.42 201.742 733.296 208.945 730.069L354.023 665.057Z" fill="#5592FC"/>
<path d="M574.744 732.478C575.122 728.482 572.999 723.283 571.003 719.401C569.235 715.961 565.355 714.327 561.581 714.994L551.731 716.734L556.429 749.731L233.277 720.794L213.19 731.282C209.786 733.059 209.831 737.95 213.267 739.784L410.618 845.122C416.683 848.359 423.956 848.177 429.734 844.645L548.698 771.904C562.989 763.165 573.159 749.238 574.744 732.478Z" fill="#708DBA"/>
<path d="M408.671 831.948C416.183 835.974 425.178 835.81 432.382 831.497C463.146 813.077 544.963 764 552.206 758.714C561.198 752.318 566.614 738.816 565.877 728.83C564.87 715.184 552.206 722.861 552.206 722.861C552.206 722.861 471.413 771.758 420.781 807.487L216.086 705.672C227.941 711.688 222.877 732.367 222.877 732.367L408.671 831.948Z" fill="white"/>
<path d="M364.367 624.578C368.242 622.794 372.741 622.84 376.643 624.701L566.915 715.458C570.576 717.204 570.845 722.3 567.382 724.297L419.472 809.604C415.161 812.091 409.828 812.143 405.383 809.743L218.438 708.776C211.411 704.981 211.594 694.88 218.749 691.588L364.367 624.578Z" fill="#708DBA"/>
<g opacity="0.05">
<path d="M907.564 575.563C910.079 572.435 911.167 566.925 911.637 562.585C912.054 558.741 909.713 555.241 906.195 553.721L897.013 549.754L882.778 579.89L628.879 377.901L606.335 375.604C602.516 375.215 599.861 379.323 601.721 382.745L708.537 579.3C711.82 585.341 717.992 589.191 724.761 589.421L864.121 594.15C880.863 594.718 897.018 588.685 907.564 575.563Z" fill="#708DBA"/>
<path d="M714.164 567.227C718.221 574.723 725.821 579.536 734.209 579.899C770.034 581.449 865.355 585.494 874.311 585.066C885.339 584.673 897.291 576.381 902.171 567.637C908.84 555.688 894.041 555.129 894.041 555.129C894.041 555.129 799.674 551.497 737.736 553.468L622.85 355.812C629.438 367.359 613.83 381.839 613.83 381.839L714.164 567.227Z" fill="white"/>
<path d="M791.283 369.701C795.5 370.344 799.231 372.857 801.465 376.558L910.394 557.044C912.489 560.516 909.91 564.919 905.919 564.681L735.475 554.516C730.507 554.22 726.025 551.329 723.635 546.879L623.102 359.7C619.324 352.664 625.035 344.331 632.821 345.52L791.283 369.701Z" fill="#708DBA"/>
</g>
<path d="M550.806 692.007C550.925 689.421 550.845 686.492 550.654 683.529C550.006 673.523 539.459 667.67 530.232 671.441L534.621 705.518L251.896 680.202L235.323 688.855C231.92 690.632 231.964 695.522 235.4 697.356L405.669 788.238C411.818 791.521 419.202 791.285 425.009 787.622L533.293 719.304C543.03 713.161 550.271 703.577 550.806 692.007Z" fill="#576F9A"/>
<path d="M403.647 776.542C411.258 780.621 420.349 780.417 427.589 775.952C455.783 758.565 525.849 715.283 532.08 710.735C539.948 705.139 543.53 695.972 542.885 687.235C542.004 675.296 534.68 672.916 529.372 676.007L418.996 740.289L239.908 651.211C250.28 656.474 242.795 690.33 242.795 690.33L403.647 776.542Z" fill="white"/>
<path d="M357.686 588.535C361.549 586.804 366.011 586.878 369.877 588.738L542.725 671.897L416.839 746.155C412.482 748.725 407.051 748.787 402.548 746.319L241.065 657.79C234.048 653.944 234.314 643.82 241.517 640.593L357.686 588.535Z" fill="#576F9A"/>
<g opacity="0.03">
<path d="M262.073 417C260.905 415.772 259.484 414.483 257.996 413.23C252.974 409.003 245.429 411.337 243.031 417.406L261.127 430.771L121.068 552.938L118.521 561.695C117.449 565.382 121.011 568.734 124.712 567.523L238.103 530.412C244.728 528.244 249.667 522.75 251.041 516.023L267.041 437.645C268.549 430.259 267.299 422.494 262.073 417Z" fill="#576F9A"/>
<path d="M230.779 526.346C238.99 523.675 245.142 516.934 246.926 508.617C251.944 485.227 261.813 439.005 262.441 434.334C263.36 428.08 260.651 422.234 256.229 418.58C250.186 413.588 245.743 415.971 244.799 419.881L225.176 501.176L101.934 545.469C109.121 542.951 121.732 561.827 121.732 561.827L230.779 526.346Z" fill="white"/>
<path d="M124.894 463.574C126.318 459.587 129.459 456.418 133.477 454.914L248.907 411.708L227.618 502.112C226.458 507.036 222.745 511 217.848 512.542L111.974 545.886C104.342 548.29 97.2175 541.093 99.8714 533.66L124.894 463.574Z" fill="#576F9A"/>
</g>
<path d="M575.774 643.335C575.911 640.378 575.819 637.031 575.6 633.643C574.86 622.208 562.805 615.518 552.259 619.827L557.275 658.778L234.123 629.841L214.035 640.329C210.632 642.106 210.676 646.997 214.112 648.831L411.306 754.084C417.456 757.367 424.84 757.131 430.646 753.468L555.757 674.535C566.887 667.513 575.163 656.559 575.774 643.335Z" fill="#5592FC"/>
<path d="M409.333 740.897C416.944 744.977 426.071 744.75 433.312 740.286C464.374 721.132 547.128 670.027 554.373 664.738C563.366 658.342 567.46 647.865 566.723 637.879C565.716 624.232 557.344 621.512 551.278 625.045L425.119 698.518L220.424 596.703C232.279 602.719 223.723 641.416 223.723 641.416L409.333 740.897Z" fill="white"/>
<path d="M355.913 524.675C359.776 522.944 364.238 523.018 368.104 524.878L566.54 620.346L421.648 705.815C417.291 708.385 411.86 708.448 407.358 705.979L219.306 602.886C212.289 599.039 212.555 588.916 219.758 585.688L355.913 524.675Z" fill="#5592FC"/>
<path d="M409.494 297.596C409.215 297.426 408.84 297.438 408.452 297.63L317.135 342.799C309.491 346.58 303.409 356.557 303.55 365.083L307.401 598.461C307.541 606.988 313.852 610.835 321.496 607.054L473.393 531.92C481.037 528.139 487.119 518.162 486.979 509.636L484.243 343.834C484.236 343.402 484.075 343.063 483.796 342.893L409.494 297.596Z" fill="#DD2215"/>
<path d="M424.264 372.822L484.238 343.156L446.652 320.242L409.065 297.328L410.169 364.229C410.309 372.755 416.62 376.603 424.264 372.822Z" fill="#F2766E"/>
<path d="M326.419 462.658L347.839 452.063C351.927 450.041 355.461 449.173 358.441 449.458C361.447 449.702 363.745 451.005 365.335 453.368C366.926 455.731 367.754 458.938 367.821 462.991C367.889 467.072 367.153 471.053 365.615 474.935C364.101 478.777 361.858 482.312 358.884 485.542C355.935 488.731 352.392 491.349 348.254 493.396L334.479 500.21L334.31 489.994L346.307 484.06C348.502 482.974 350.337 481.641 351.812 480.06C353.311 478.439 354.414 476.674 355.12 474.764C355.826 472.854 356.162 470.858 356.127 468.775C356.093 466.693 355.697 465.072 354.941 463.914C354.184 462.728 353.041 462.102 351.514 462.034C350.012 461.926 348.15 462.421 345.93 463.52L337.945 467.469L338.781 518.17L327.428 523.786L326.419 462.658ZM380.789 497.392L380.609 486.5L394.347 479.705C397.879 477.958 400.807 475.8 403.13 473.233C405.453 470.665 407.183 467.638 408.321 464.153C409.459 460.64 409.99 456.631 409.916 452.128C409.842 447.625 409.188 444.218 407.954 441.906C406.745 439.553 404.956 438.267 402.587 438.049C400.218 437.83 397.28 438.588 393.773 440.323L379.695 447.286L379.515 436.395L394.161 429.151C399.661 426.43 404.425 425.308 408.451 425.785C412.503 426.221 415.626 428.209 417.821 431.748C420.041 435.274 421.203 440.19 421.307 446.494C421.412 452.826 420.43 458.816 418.361 464.465C416.292 470.113 413.259 475.159 409.263 479.605C405.292 484.037 400.544 487.62 395.018 490.353L380.789 497.392ZM387.071 494.284L375.718 499.9L374.709 438.772L386.062 433.156L387.071 494.284ZM429.054 411.891L465.158 394.033L465.33 404.503L440.58 416.745L440.825 431.605L463.191 420.542L463.363 430.969L440.997 442.032L441.416 467.403L430.063 473.019L429.054 411.891Z" fill="white"/>
<rect width="66.643" height="12.6965" rx="6.34827" transform="matrix(0.896343 -0.443362 0.0164987 0.999864 321.201 430.777)" fill="#E03327"/>
<defs>
<radialGradient id="paint0_radial_3684_50196" cx="0" cy="0" r="1" gradientUnits="userSpaceOnUse" gradientTransform="translate(207.226 231.453) rotate(-126.512) scale(3.50901 4.84611)">
<stop stop-color="#FFC26D"/>
<stop offset="1" stop-color="#F68D61"/>
</radialGradient>
<linearGradient id="paint1_linear_3684_50196" x1="204.257" y1="228.595" x2="204.554" y2="230.711" gradientUnits="userSpaceOnUse">
<stop offset="0.186236" stop-color="#E57356"/>
<stop offset="1" stop-color="#E57356" stop-opacity="0"/>
</linearGradient>
<radialGradient id="paint2_radial_3684_50196" cx="0" cy="0" r="1" gradientUnits="userSpaceOnUse" gradientTransform="translate(206.187 228.076) rotate(135) scale(4.82821 7.96701)">
<stop offset="0.441043" stop-color="#EA8059" stop-opacity="0"/>
<stop offset="1" stop-color="#C27068"/>
</radialGradient>
<radialGradient id="paint3_radial_3684_50196" cx="0" cy="0" r="1" gradientUnits="userSpaceOnUse" gradientTransform="translate(206.077 201.383) rotate(-90) scale(2.58954 1.55859)">
<stop stop-color="#FFE957"/>
<stop offset="1" stop-color="#F7A630"/>
</radialGradient>
<linearGradient id="paint4_linear_3684_50196" x1="203.711" y1="200.753" x2="204.292" y2="200.753" gradientUnits="userSpaceOnUse">
<stop stop-color="#DF9057"/>
<stop offset="0.641029" stop-color="#DF9057" stop-opacity="0.243857"/>
<stop offset="1" stop-color="#DF9057" stop-opacity="0"/>
</linearGradient>
<radialGradient id="paint5_radial_3684_50196" cx="0" cy="0" r="1" gradientUnits="userSpaceOnUse" gradientTransform="translate(205.888 201.857) rotate(-112.474) scale(3.22781 2.33121)">
<stop stop-color="#DF9057" stop-opacity="0"/>
<stop offset="0.81512" stop-color="#DF9057" stop-opacity="0.243857"/>
<stop offset="1" stop-color="#DF9057"/>
</radialGradient>
<linearGradient id="paint6_linear_3684_50196" x1="210.398" y1="227.332" x2="192.01" y2="227.332" gradientUnits="userSpaceOnUse">
<stop stop-color="#FCB949"/>
<stop offset="1" stop-color="#E28C37"/>
</linearGradient>
<radialGradient id="paint7_radial_3684_50196" cx="0" cy="0" r="1" gradientUnits="userSpaceOnUse" gradientTransform="translate(212.659 216.613) rotate(-180) scale(11.4301 24.4625)">
<stop stop-color="#FFE764"/>
<stop offset="0.34751" stop-color="#FFE764" stop-opacity="0.808602"/>
<stop offset="0.891787" stop-color="#FFE764" stop-opacity="0.0755517"/>
<stop offset="1" stop-color="#FFE764" stop-opacity="0"/>
</radialGradient>
<radialGradient id="paint8_radial_3684_50196" cx="0" cy="0" r="1" gradientUnits="userSpaceOnUse" gradientTransform="translate(212.263 226.131) rotate(90) scale(2.81949 16.729)">
<stop stop-color="#FFE764"/>
<stop offset="0.291581" stop-color="#FFE764" stop-opacity="0.808602"/>
<stop offset="0.891787" stop-color="#FFE764" stop-opacity="0.0755517"/>
<stop offset="1" stop-color="#FFE764" stop-opacity="0"/>
</radialGradient>
<radialGradient id="paint9_radial_3684_50196" cx="0" cy="0" r="1" gradientUnits="userSpaceOnUse" gradientTransform="translate(212.455 222.776) rotate(-90) scale(2.99823 11.8289)">
<stop stop-color="#F9C23C" stop-opacity="0.79"/>
<stop offset="0.349146" stop-color="#F9C23C" stop-opacity="0.595087"/>
<stop offset="0.741382" stop-color="#F9C23C" stop-opacity="0.10594"/>
<stop offset="1" stop-color="#F9C23C" stop-opacity="0"/>
</radialGradient>
<radialGradient id="paint10_radial_3684_50196" cx="0" cy="0" r="1" gradientUnits="userSpaceOnUse" gradientTransform="translate(209.92 205.777) rotate(80.7539) scale(3.52235 10.1033)">
<stop stop-color="#FCB949"/>
<stop offset="0.49157" stop-color="#FCB949" stop-opacity="0.61239"/>
<stop offset="1" stop-color="#FCB949" stop-opacity="0"/>
</radialGradient>
<radialGradient id="paint11_radial_3684_50196" cx="0" cy="0" r="1" gradientUnits="userSpaceOnUse" gradientTransform="translate(196.579 228.029) rotate(-59.9068) scale(28.7057 35.0788)">
<stop stop-color="#FFE764" stop-opacity="0"/>
<stop offset="0.783823" stop-color="#FFE764" stop-opacity="0"/>
<stop offset="0.854775" stop-color="#FFE764" stop-opacity="0.274364"/>
<stop offset="1" stop-color="#FFE764"/>
</radialGradient>
<radialGradient id="paint12_radial_3684_50196" cx="0" cy="0" r="1" gradientUnits="userSpaceOnUse" gradientTransform="translate(216.905 226.225) rotate(94.4671) scale(2.45803 7.05865)">
<stop stop-color="#FFE764"/>
<stop offset="0.403543" stop-color="#FFE764" stop-opacity="0.808602"/>
<stop offset="0.891787" stop-color="#FFE764" stop-opacity="0.0755517"/>
<stop offset="1" stop-color="#FFE764" stop-opacity="0"/>
</radialGradient>
<radialGradient id="paint13_radial_3684_50196" cx="0" cy="0" r="1" gradientUnits="userSpaceOnUse" gradientTransform="translate(211.179 209.451) rotate(-113.987) scale(7.06345 10.4462)">
<stop stop-color="#FFE764"/>
<stop offset="0.346766" stop-color="#FFE764" stop-opacity="0.808602"/>
<stop offset="0.807283" stop-color="#FFE764" stop-opacity="0.0755517"/>
<stop offset="1" stop-color="#FFE764" stop-opacity="0"/>
</radialGradient>
<radialGradient id="paint14_radial_3684_50196" cx="0" cy="0" r="1" gradientUnits="userSpaceOnUse" gradientTransform="translate(194.438 215.654) rotate(9.80123) scale(6.42995 26.7772)">
<stop stop-color="#EA9253"/>
<stop offset="0.327703" stop-color="#EA9253" stop-opacity="0.835301"/>
<stop offset="0.788188" stop-color="#EA9253" stop-opacity="0.166967"/>
<stop offset="1" stop-color="#EA9253" stop-opacity="0"/>
</radialGradient>
<radialGradient id="paint15_radial_3684_50196" cx="0" cy="0" r="1" gradientUnits="userSpaceOnUse" gradientTransform="translate(200.14 222.96) rotate(-90) scale(3.13622 9.38582)">
<stop stop-color="#F5A43C"/>
<stop offset="0.367713" stop-color="#F5A43C" stop-opacity="0.734548"/>
<stop offset="0.705841" stop-color="#F5A43C" stop-opacity="0.14628"/>
<stop offset="1" stop-color="#F5A43C" stop-opacity="0"/>
</radialGradient>
<linearGradient id="paint16_linear_3684_50196" x1="191.946" y1="211.628" x2="203.328" y2="215.256" gradientUnits="userSpaceOnUse">
<stop offset="0.0614969" stop-color="#D7737D"/>
<stop offset="0.590732" stop-color="#FCA162" stop-opacity="0"/>
<stop offset="1" stop-color="#FCA162" stop-opacity="0"/>
</linearGradient>
<linearGradient id="paint17_linear_3684_50196" x1="207.635" y1="229.82" x2="207.635" y2="226.257" gradientUnits="userSpaceOnUse">
<stop offset="0.0614969" stop-color="#D7737D"/>
<stop offset="0.282174" stop-color="#F89C65" stop-opacity="0.113905"/>
<stop offset="0.330447" stop-color="#FCA162" stop-opacity="0"/>
</linearGradient>
<radialGradient id="paint18_radial_3684_50196" cx="0" cy="0" r="1" gradientUnits="userSpaceOnUse" gradientTransform="translate(208.423 228.348) rotate(-97.9773) scale(27.903 17.8701)">
<stop offset="0.903411" stop-color="#E69136" stop-opacity="0"/>
<stop offset="0.926493" stop-color="#E38E38" stop-opacity="0.131844"/>
<stop offset="1" stop-color="#CF7D44"/>
</radialGradient>
<radialGradient id="paint19_radial_3684_50196" cx="0" cy="0" r="1" gradientUnits="userSpaceOnUse" gradientTransform="translate(194.906 212.065) rotate(7.12501) scale(2.40129 13.1444)">
<stop stop-color="#CF7D44"/>
<stop offset="0.772002" stop-color="#E38E38" stop-opacity="0.131844"/>
<stop offset="1" stop-color="#E69136" stop-opacity="0"/>
</radialGradient>
<radialGradient id="paint20_radial_3684_50196" cx="0" cy="0" r="1" gradientUnits="userSpaceOnUse" gradientTransform="translate(212.311 213.714) rotate(146.139) scale(27.1736 26.0676)">
<stop offset="0.670378" stop-color="#E69136" stop-opacity="0"/>
<stop offset="0.977283" stop-color="#CF7D44"/>
</radialGradient>
<radialGradient id="paint21_radial_3684_50196" cx="0" cy="0" r="1" gradientUnits="userSpaceOnUse" gradientTransform="translate(213.152 220.248) rotate(85.7636) scale(2.45415 7.15486)">
<stop stop-color="white"/>
<stop offset="1" stop-color="white" stop-opacity="0"/>
</radialGradient>
</defs>
</svg>
