<svg width="1440" height="400" viewBox="0 0 1440 400" fill="none" xmlns="http://www.w3.org/2000/svg">
<path opacity="0.2" d="M1112.37 -10.3078C1135.3 -1.25042 1563.7 -190.743 1388.59 13.9899C1213.47 218.723 969.06 373.476 1175.04 329.102C1541.1 250.242 1611.05 474.134 1302.65 665.049" stroke="url(#paint0_linear_3804_37172)" stroke-width="178"/>
<path opacity="0.1" d="M780.288 376.393C861.315 539.003 795.617 736.292 633.547 817.05C471.477 897.808 274.408 831.453 193.38 668.843C112.353 506.232 178.052 308.943 340.122 228.185C502.192 147.428 699.261 213.782 780.288 376.393ZM323.461 604.025C368.571 694.554 478.284 731.496 568.513 686.536C658.741 641.576 695.317 531.74 650.207 441.211C605.097 350.681 495.384 313.74 405.155 358.7C314.927 403.66 278.351 513.495 323.461 604.025Z" fill="url(#paint1_linear_3804_37172)"/>
<path opacity="0.2" d="M-71.8142 218.235C-27.8036 184.556 505.925 -307.937 363.536 -67.2546C182.662 238.48 222.362 410.232 256.572 522.05" stroke="url(#paint2_linear_3804_37172)" stroke-width="133"/>
<path opacity="0.1" d="M632.142 -213.074C679.164 -388.564 866.181 -490.929 1049.86 -441.713C1233.53 -392.498 1344.31 -210.338 1297.29 -34.849C1250.27 140.64 1063.25 243.005 879.574 193.79C695.899 144.574 585.12 -37.585 632.142 -213.074ZM1149.87 -74.3504C1176.05 -172.05 1114.37 -273.462 1012.12 -300.862C909.859 -328.262 805.742 -271.272 779.563 -173.573C753.385 -75.8736 815.058 25.5391 917.315 52.9387C1019.57 80.3382 1123.69 23.349 1149.87 -74.3504Z" fill="url(#paint3_linear_3804_37172)"/>
<defs>
<linearGradient id="paint0_linear_3804_37172" x1="1166.73" y1="-14.4112" x2="1406.72" y2="401.862" gradientUnits="userSpaceOnUse">
<stop stop-opacity="0"/>
<stop offset="1" stop-color="#5592FC"/>
</linearGradient>
<linearGradient id="paint1_linear_3804_37172" x1="340.122" y1="228.185" x2="633.547" y2="817.05" gradientUnits="userSpaceOnUse">
<stop stop-color="#5592FC"/>
<stop offset="1" stop-color="#1E2026" stop-opacity="0"/>
</linearGradient>
<linearGradient id="paint2_linear_3804_37172" x1="-6.05065" y1="17.6676" x2="439.322" y2="377.616" gradientUnits="userSpaceOnUse">
<stop stop-color="#5592FC"/>
<stop offset="1" stop-color="#1E2026" stop-opacity="0"/>
</linearGradient>
<linearGradient id="paint3_linear_3804_37172" x1="879.574" y1="193.79" x2="1049.86" y2="-441.713" gradientUnits="userSpaceOnUse">
<stop stop-color="#5592FC"/>
<stop offset="1" stop-color="#1E2026" stop-opacity="0"/>
</linearGradient>
</defs>
</svg>
