<svg width="465" height="581" viewBox="0 0 465 581" fill="none" xmlns="http://www.w3.org/2000/svg">
<g opacity="0.05">
<path d="M154.536 209.831C165.281 249.931 187.417 282.654 214.223 303.234C241.022 323.808 272.149 332.053 301.459 324.2C330.769 316.346 353.604 293.642 366.525 262.424C379.45 231.199 382.259 191.792 371.515 151.692C360.77 111.592 338.634 78.8697 311.828 58.2899C285.029 37.7153 253.901 29.4702 224.591 37.3238C195.281 45.1774 172.447 67.8816 159.525 99.0993C146.6 130.325 143.791 169.731 154.536 209.831Z" fill="white" stroke="black" strokeWidth="13.4726"/>
<path d="M-19.0345 256.347C-8.28975 296.447 13.8463 329.17 40.6523 349.749C67.4516 370.324 98.5788 378.569 127.889 370.715C157.199 362.862 180.034 340.158 192.955 308.94C205.88 277.714 208.689 238.308 197.944 198.208C187.199 158.108 165.063 125.385 138.257 104.806C111.458 84.2309 80.3309 75.9858 51.0208 83.8394C21.7106 91.6931 -1.1238 114.397 -14.0453 145.615C-26.9701 176.841 -29.7793 216.247 -19.0345 256.347Z" fill="white" stroke="black" strokeWidth="13.4726"/>
<ellipse cx="42.2558" cy="93.1967" rx="42.2558" ry="93.1967" transform="matrix(-0.965926 0.258819 0.258819 0.965926 347.555 67.6328)" fill="black"/>
<path d="M368.478 171.807C345.139 154.176 311.287 163.247 299.89 190.186C305.625 210.452 314.81 227.354 324.861 238.476C335.532 250.285 345.681 254.137 353.239 252.112C360.798 250.087 367.661 241.676 370.998 226.114C374.141 211.456 373.645 192.227 368.478 171.807Z" fill="white" stroke="black" strokeWidth="13.4726"/>
<ellipse cx="42.2558" cy="93.1967" rx="42.2558" ry="93.1967" transform="matrix(-0.965926 0.258819 0.258819 0.965926 173.975 114.148)" fill="black"/>
<path d="M194.898 218.319C171.559 200.688 137.707 209.759 126.31 236.697C132.045 256.964 141.23 273.866 151.28 284.988C161.952 296.797 172.101 300.649 179.659 298.624C187.218 296.598 194.081 288.188 197.418 272.625C200.561 257.968 200.065 238.738 194.898 218.319Z" fill="white" stroke="black" strokeWidth="13.4726"/>
<path d="M39.0529 360.598L39.1388 360.919L39.2533 361.219L39.2534 361.219L39.2537 361.22L39.2548 361.223L39.2558 361.225L39.2633 361.246C39.2745 361.276 39.2944 361.33 39.3223 361.408C39.3781 361.563 39.4658 361.812 39.579 362.149C39.8053 362.824 40.133 363.849 40.5112 365.18C41.2683 367.846 42.222 371.719 42.9715 376.443C44.477 385.935 45.1197 398.623 41.8873 411.806C40.0106 419.46 37.3842 426.461 34.6053 433.527C34.2526 434.424 33.8962 435.325 33.5382 436.23C31.118 442.346 28.6232 448.652 26.7045 455.178C22.1693 470.604 20.78 487.451 28.8805 509.64C34.5955 525.294 45.8322 539.769 57.6292 550.59C63.5616 556.032 69.763 560.669 75.6828 564.141C81.5137 567.56 87.4489 570.073 92.7985 570.853C111.466 573.577 137.994 567.37 162.237 552.518C163.238 551.905 164.258 551.285 165.292 550.656C171.703 546.76 178.624 542.554 184.558 537.787C191.508 532.204 197.812 525.323 200.745 516.257C203.115 508.931 201.962 501.71 199.956 496.365C199.297 494.612 198.518 492.979 197.673 491.525L198.194 491.133C209.075 482.96 211.271 467.514 203.099 456.633C200.551 453.241 197.298 450.695 193.699 449.043C199.323 440.089 199.184 428.228 192.454 419.268C190.101 416.135 186.547 413.41 183.024 411.369L235.455 376.041L235.592 375.948L235.725 375.849C245.973 368.152 248.041 353.605 240.344 343.357C232.717 333.202 218.364 331.079 208.132 338.53L109.076 398.488C105.038 400.932 99.7705 399.237 97.9158 394.896C95.0177 388.113 92.6051 381.133 90.696 374.009L83.8839 348.586C80.5668 336.206 67.842 328.859 55.4622 332.176C43.0824 335.493 35.7358 348.218 39.0529 360.598Z" fill="white" stroke="black" strokeWidth="12.9359"/>
</g>
</svg>
