<svg width="384" height="294" viewBox="0 0 384 294" fill="none" xmlns="http://www.w3.org/2000/svg">
<g opacity="0.1">
<path d="M356.06 188.086C357.253 184.855 357.503 179.16 357.463 174.374C357.423 169.608 353.604 165.852 348.849 165.529L342.179 165.077L335.727 199.346L55.436 102.742L35.8661 107.442C32.1076 108.345 30.8933 113.087 33.7554 115.685L182.756 250.937C187.961 255.661 195.327 257.173 201.972 254.881L331.01 210.36C342.093 206.537 351.999 199.084 356.06 188.086Z" fill="#5592FC"/>
<path d="M183.922 238.639C190.353 244.497 199.392 246.445 207.647 243.701C240.746 232.697 324.649 204.751 332.238 201.695C341.733 198.004 347.349 191.907 349.044 182.899C351.362 170.59 344.564 166.342 338.343 168.139L208.963 205.514L51.0684 70.3711C60.1849 78.3036 43.4752 110.702 43.4752 110.702L183.922 238.639Z" fill="white"/>
<path d="M187.862 36.4167C192.039 35.6716 196.331 36.8012 199.6 39.5055L353.62 166.928L204.828 211.004C199.936 212.453 194.642 211.212 190.903 207.74L49.8051 76.7069C43.9861 71.303 46.8463 61.5745 54.6641 60.1798L187.862 36.4167Z" fill="#5592FC"/>
</g>
</svg>
