<svg width="910" height="806" viewBox="0 0 910 806" fill="none" xmlns="http://www.w3.org/2000/svg">
<g filter="url(#filter0_dd_3452_39612)">
<rect x="36.5" y="24" width="837" height="734" rx="24" fill="white" shape-rendering="crispEdges"/>
<rect x="364" y="72" width="182" height="36" rx="18" fill="black"/>
<path d="M382 96.48H396V82.48H382V96.48Z" fill="white"/>
<path d="M408.939 82.377C410.996 82.3594 412.613 83.5459 413.018 85.2949H415.883V81.6738H417.834V90.1992H415.883V86.877H413.035C412.64 88.6611 411.005 89.8652 408.939 89.8652C406.496 89.8652 404.738 88.3008 404.738 86.1035C404.738 83.9414 406.496 82.3594 408.939 82.377ZM408.939 84.0117C407.568 84.0117 406.602 84.8203 406.602 86.1035C406.602 87.3691 407.568 88.2129 408.939 88.2129C410.275 88.2129 411.225 87.3691 411.242 86.1035C411.225 84.8203 410.275 84.0117 408.939 84.0117ZM409.291 90.9375V92.625H415.883V90.9375H417.834V97.3711H407.357V90.9375H409.291ZM409.291 95.7891H415.883V94.1367H409.291V95.7891ZM433.75 81.6738V97.5645H431.887V81.6738H433.75ZM430.463 82.0605V96.8086H428.6V91.5H426.121V89.9004H428.6V87.5449H426.402C425.655 90.1816 423.994 92.4492 421.023 94.207L419.881 92.8184C423.177 90.876 424.688 88.3887 424.978 85.1895H420.725V83.6074H426.912C426.912 84.4072 426.859 85.1895 426.754 85.9453H428.6V82.0605H430.463ZM446.035 90.1816V92.748C447.415 92.6777 448.803 92.5547 450.113 92.3613L450.271 93.8027C446.703 94.4531 442.888 94.4883 440.094 94.4883L439.847 92.9062C441.087 92.8975 442.546 92.8887 444.084 92.8359V90.1816H446.035ZM449.463 83.625V85.207H446.07C446.158 86.9033 447.503 88.4326 449.902 89.0391L449.006 90.5684C447.125 90.0586 445.78 88.96 445.068 87.5449C444.365 89.0391 443.038 90.1816 441.148 90.6914L440.217 89.2148C442.616 88.5557 443.934 86.9912 444.049 85.207H440.691V83.625H444.084V81.8145H446.035V83.625H449.463ZM453.013 81.6738V97.582H451.062V81.6738H453.013ZM468.613 81.6738V97.582H466.662V88.8984H463.603V87.2988H466.662V81.6738H468.613ZM461.125 85.8926C461.125 88.6348 462.601 91.5527 465.168 92.6602L464.007 94.2246C462.162 93.3457 460.843 91.5791 460.158 89.4785C459.446 91.7197 458.101 93.6094 456.256 94.541L455.078 93.0117C457.627 91.8164 459.121 88.793 459.138 85.8926V84.8379H455.728V83.2383H464.535V84.8379H461.125V85.8926ZM487.472 81.6738V87.8789H489.828V89.5137H487.472V97.5293H485.521V81.6738H487.472ZM483.271 83.3262C483.271 88.002 481.337 92.0977 476.046 94.6992L474.939 93.1875C478.806 91.2627 480.898 88.5557 481.302 84.9434H475.8V83.3262H483.271ZM498.994 82.6934C498.994 83.2734 498.941 83.8184 498.853 84.3457H501.894V81.6914H503.845V91.1309H501.894V89.2852H498.08V87.7031H501.894V85.9102H498.361C497.289 88.3799 494.907 90.1289 491.488 91.043L490.749 89.4785C494.414 88.5117 496.568 86.6221 496.902 84.293H491.611V82.6934H498.994ZM503.845 91.7988V97.5117H501.894V93.3457H493.017V91.7988H503.845Z" fill="#FFEA00"/>
<path d="M514 96.48H528V82.48H514V96.48Z" fill="white"/>
<path d="M414.75 133.172C414.75 135.234 414.266 137.167 413.297 138.969C412.328 140.771 410.948 142.312 409.156 143.594C407.375 144.865 405.286 145.74 402.891 146.219L401.188 142.906C403.229 142.521 405.01 141.828 406.531 140.828C408.062 139.828 409.229 138.656 410.031 137.312C410.844 135.969 411.25 134.589 411.25 133.172V131.141H414.75V133.172ZM415.484 133.172C415.484 134.599 415.885 135.99 416.688 137.344C417.5 138.698 418.672 139.875 420.203 140.875C421.745 141.865 423.547 142.542 425.609 142.906L423.859 146.219C421.484 145.74 419.401 144.87 417.609 143.609C415.828 142.349 414.458 140.818 413.5 139.016C412.542 137.214 412.062 135.266 412.062 133.172V131.141H415.484V133.172ZM426.547 154.391H400.547V151.125H426.547V154.391ZM452.625 150.828H448.828V129.469H452.625V150.828ZM449.906 140.984H445.234V137.734H449.906V140.984ZM446.297 150.016H442.531V129.953H446.297V150.016ZM453.391 157.391H433.234V154.172H453.391V157.391ZM437.188 156.25H433.234V148.312H437.188V156.25ZM440.75 131.812C440.75 134.365 440.396 136.641 439.688 138.641C438.979 140.63 437.828 142.401 436.234 143.953C434.641 145.495 432.536 146.823 429.922 147.938L428.031 145.125C430.208 144.208 431.948 143.167 433.25 142C434.562 140.833 435.505 139.521 436.078 138.062C436.651 136.594 436.938 134.927 436.938 133.062V131.812H440.75ZM438.156 135.016H429.531V131.812H438.156V135.016ZM428.828 140.812L428.328 137.594L437.094 137.141V139.891L428.828 140.812ZM478.281 157.828H474.281V129.406H478.281V157.828ZM482.297 143.625H477.25V140.344H482.297V143.625ZM470.688 132.344C470.688 135.312 470.266 138.052 469.422 140.562C468.578 143.062 467.203 145.365 465.297 147.469C463.391 149.562 460.891 151.375 457.797 152.906L455.547 149.859C458.099 148.568 460.198 147.109 461.844 145.484C463.5 143.859 464.734 142.026 465.547 139.984C466.37 137.943 466.781 135.635 466.781 133.062V132.344H470.688ZM468.781 135.609H457.141V132.344H468.781V135.609ZM498.703 131.219C498.703 133.75 498.188 136.016 497.156 138.016C496.125 140.005 494.609 141.693 492.609 143.078C490.62 144.464 488.188 145.542 485.312 146.312L483.828 143.141C486.151 142.536 488.109 141.74 489.703 140.75C491.307 139.75 492.51 138.615 493.312 137.344C494.125 136.062 494.531 134.688 494.531 133.219V131.219H498.703ZM497.062 134.438H485.406V131.219H497.062V134.438ZM507.469 157.797H503.5V150.625H487.938V147.516H507.469V157.797ZM507.469 146.344H503.5V129.469H507.469V146.344ZM504.156 137.203H497.328V134.062H504.156V137.203ZM503.891 143.25H497.016V140.078H503.891V143.25Z" fill="#3C3F44"/>
<rect x="68.5" y="196" width="382.5" height="138" rx="16" fill="#F2F7FF"/>
<path d="M241.098 232.082V249.738H239.027V232.082H241.098ZM237.582 232.453V248.859H235.512V240.539H233.559V238.605H235.512V232.453H237.582ZM234.008 234.172V235.93H232.758V243.547C233.314 243.498 233.842 243.439 234.34 243.371L234.477 244.953C231.703 245.52 228.07 245.578 225.824 245.578L225.57 243.781L227.172 243.762V235.93H225.922V234.172H234.008ZM229.125 243.723L230.766 243.664V235.93H229.125V243.723ZM257.738 232.082V249.758H255.551V232.082H257.738ZM248.227 233.371C250.883 233.371 252.816 235.793 252.836 239.602C252.816 243.449 250.883 245.852 248.227 245.852C245.551 245.852 243.617 243.449 243.617 239.602C243.617 235.793 245.551 233.371 248.227 233.371ZM248.227 235.324C246.723 235.324 245.707 236.906 245.707 239.602C245.707 242.316 246.723 243.898 248.227 243.898C249.711 243.898 250.727 242.316 250.727 239.602C250.727 236.906 249.711 235.324 248.227 235.324ZM266.996 237.102C266.996 239.992 268.695 243.039 271.547 244.23L270.355 245.949C268.266 245.051 266.742 243.195 265.941 240.949C265.121 243.371 263.578 245.402 261.508 246.379L260.258 244.68C263.051 243.391 264.789 240.109 264.789 237.102V235.617H260.902V233.82H270.863V235.617H266.996V237.102ZM275.023 232.082V249.738H272.836V232.082H275.023ZM291.566 232.082V236.418H294.008V238.195H291.566V242.395H289.379V232.082H291.566ZM285.805 242.727C289.418 242.727 291.703 244.016 291.723 246.203C291.703 248.43 289.418 249.719 285.805 249.719C282.152 249.719 279.828 248.43 279.828 246.203C279.828 244.016 282.152 242.727 285.805 242.727ZM285.805 244.465C283.383 244.465 281.957 245.07 281.977 246.203C281.957 247.355 283.383 247.98 285.805 247.98C288.188 247.98 289.613 247.355 289.613 246.203C289.613 245.07 288.188 244.465 285.805 244.465ZM286.215 233.332V235.09H280.453V239.523C283.832 239.514 285.717 239.416 287.797 238.977L288.012 240.715C285.727 241.203 283.637 241.281 279.73 241.281H278.305V233.332H286.215Z" fill="#ADB3BE"/>
<path d="M239.375 293H234.656V274.844H234.531L229.359 278.125V273.938L234.953 270.375H239.375V293ZM253.422 293.312C251.536 293.312 249.911 292.859 248.547 291.953C247.193 291.047 246.151 289.724 245.422 287.984C244.703 286.234 244.344 284.135 244.344 281.688C244.344 279.24 244.703 277.146 245.422 275.406C246.151 273.667 247.198 272.344 248.562 271.438C249.927 270.521 251.547 270.062 253.422 270.062C255.297 270.062 256.917 270.521 258.281 271.438C259.646 272.344 260.693 273.672 261.422 275.422C262.151 277.161 262.516 279.25 262.516 281.688C262.516 284.146 262.151 286.245 261.422 287.984C260.703 289.724 259.661 291.047 258.297 291.953C256.932 292.859 255.307 293.312 253.422 293.312ZM253.422 289.438C254.297 289.438 255.057 289.151 255.703 288.578C256.359 288.005 256.859 287.141 257.203 285.984C257.547 284.818 257.714 283.385 257.703 281.688C257.703 280 257.531 278.578 257.188 277.422C256.844 276.255 256.349 275.38 255.703 274.797C255.057 274.214 254.297 273.922 253.422 273.922C252.547 273.922 251.786 274.214 251.141 274.797C250.505 275.38 250.01 276.255 249.656 277.422C249.302 278.578 249.125 280 249.125 281.688C249.125 283.385 249.297 284.818 249.641 285.984C249.995 287.141 250.495 288.005 251.141 288.578C251.786 289.151 252.547 289.438 253.422 289.438ZM276.344 288.266H272.328V281.984H276.344V288.266ZM288.922 288.953H284.922V267.469H288.922V288.953ZM289.547 295.391H268.328V292.172H289.547V295.391ZM272.344 293.031H268.328V286.891H272.344V293.031ZM264.719 280.078C268.615 280.026 271.974 279.953 274.797 279.859C277.63 279.755 280.365 279.536 283 279.203L283.203 282.062C280.443 282.531 277.552 282.844 274.531 283C271.521 283.156 268.406 283.229 265.188 283.219L264.719 280.078ZM285.828 286.688H279.484V283.969H285.828V286.688ZM273.969 268.422C275.333 268.411 276.552 268.625 277.625 269.062C278.708 269.49 279.552 270.094 280.156 270.875C280.771 271.646 281.078 272.526 281.078 273.516C281.078 274.526 280.771 275.406 280.156 276.156C279.552 276.906 278.714 277.495 277.641 277.922C276.568 278.339 275.344 278.547 273.969 278.547C272.583 278.547 271.349 278.339 270.266 277.922C269.182 277.495 268.339 276.906 267.734 276.156C267.13 275.406 266.828 274.526 266.828 273.516C266.828 272.526 267.13 271.641 267.734 270.859C268.339 270.078 269.182 269.474 270.266 269.047C271.349 268.62 272.583 268.411 273.969 268.422ZM273.969 271.344C273.302 271.333 272.714 271.417 272.203 271.594C271.693 271.76 271.297 272.01 271.016 272.344C270.745 272.677 270.609 273.068 270.609 273.516C270.609 273.964 270.745 274.354 271.016 274.688C271.297 275.01 271.693 275.255 272.203 275.422C272.714 275.589 273.302 275.672 273.969 275.672C274.625 275.672 275.198 275.589 275.688 275.422C276.188 275.255 276.578 275.01 276.859 274.688C277.141 274.354 277.281 273.964 277.281 273.516C277.281 273.068 277.141 272.677 276.859 272.344C276.578 272.01 276.188 271.76 275.688 271.594C275.198 271.417 274.625 271.333 273.969 271.344Z" fill="#5592FC"/>
<path d="M208.977 356.266H207.742V342.375H208.977V356.266ZM204.867 343.891C204.867 345.266 204.641 346.552 204.188 347.75C203.734 348.948 203.023 350.049 202.055 351.055C201.086 352.06 199.846 352.927 198.336 353.656L197.664 352.656C199.008 352.021 200.122 351.273 201.008 350.414C201.893 349.555 202.555 348.594 202.992 347.531C203.43 346.469 203.648 345.318 203.648 344.078V343.891H204.867ZM204.148 344.891H198.305V343.891H204.148V344.891ZM214.227 344.703H221.102V342.938H222.32V348.484H213.008V342.938H214.227V344.703ZM221.102 347.5V345.672H214.227V347.5H221.102ZM223.977 350.984H211.32V349.969H223.977V350.984ZM218.258 350.438H217.039V347.891H218.258V350.438ZM222.57 355.969H212.961V354.938H222.57V355.969ZM214.195 355.281H212.961V352.094H214.195V355.281ZM237.086 356.266H235.898V342.375H237.086V356.266ZM236.352 349.047H233.648V348H236.352V349.047ZM234.008 355.562H232.836V342.672H234.008V355.562ZM229.023 346.172C229.023 347.276 228.901 348.297 228.656 349.234C228.411 350.172 228.047 350.995 227.562 351.703C227.078 352.411 226.482 352.974 225.773 353.391L225.008 352.453C225.664 352.089 226.221 351.594 226.68 350.969C227.138 350.344 227.484 349.622 227.719 348.805C227.953 347.987 228.07 347.109 228.07 346.172V344.531H229.023V346.172ZM229.258 346.172C229.258 347.026 229.375 347.831 229.609 348.586C229.844 349.341 230.188 350.01 230.641 350.594C231.094 351.177 231.643 351.635 232.289 351.969L231.555 352.922C230.857 352.536 230.266 352.008 229.781 351.336C229.297 350.664 228.93 349.888 228.68 349.008C228.43 348.128 228.305 347.182 228.305 346.172V344.531H229.258V346.172ZM231.836 345.062H225.336V344.031H231.836V345.062ZM249.836 352.438H248.617V342.375H249.836V352.438ZM251.945 347.547H249.445V346.516H251.945V347.547ZM240.711 348.938C242.263 348.938 243.49 348.909 244.391 348.852C245.292 348.794 246.19 348.672 247.086 348.484L247.242 349.5C246.294 349.677 245.346 349.799 244.398 349.867C243.451 349.935 242.221 349.969 240.711 349.969H239.633V348.938H240.711ZM245.82 344.609H240.852V349.516H239.633V343.578H245.82V344.609ZM250.477 355.969H241.148V354.938H250.477V355.969ZM242.352 355.406H241.148V351.422H242.352V355.406ZM264.258 356.297H263.023V342.375H264.258V356.297ZM254.836 347.234H258.977V343.562H260.18V352.938H253.617V343.562H254.836V347.234ZM258.977 351.906V348.219H254.836V351.906H258.977ZM275.148 355H273.727V345.156H273.664L270.914 346.984V345.562L273.727 343.688H275.148V355ZM278.055 358.203H276.898L277.758 353.953H279.273L278.055 358.203ZM284.914 355.156C284.081 355.156 283.37 354.93 282.781 354.477C282.193 354.023 281.742 353.362 281.43 352.492C281.117 351.622 280.961 350.573 280.961 349.344C280.961 348.125 281.117 347.081 281.43 346.211C281.742 345.341 282.195 344.677 282.789 344.219C283.383 343.76 284.091 343.531 284.914 343.531C285.737 343.531 286.445 343.76 287.039 344.219C287.633 344.677 288.086 345.341 288.398 346.211C288.711 347.081 288.867 348.125 288.867 349.344C288.867 350.573 288.714 351.622 288.406 352.492C288.099 353.362 287.648 354.023 287.055 354.477C286.461 354.93 285.747 355.156 284.914 355.156ZM284.914 353.906C285.456 353.906 285.919 353.729 286.305 353.375C286.69 353.021 286.984 352.503 287.188 351.82C287.391 351.138 287.492 350.312 287.492 349.344C287.492 348.375 287.391 347.547 287.188 346.859C286.984 346.172 286.69 345.648 286.305 345.289C285.919 344.93 285.456 344.75 284.914 344.75C284.372 344.75 283.909 344.93 283.523 345.289C283.138 345.648 282.841 346.172 282.633 346.859C282.424 347.547 282.32 348.375 282.32 349.344C282.32 350.312 282.422 351.138 282.625 351.82C282.828 352.503 283.125 353.021 283.516 353.375C283.906 353.729 284.372 353.906 284.914 353.906ZM294.445 355.156C293.612 355.156 292.901 354.93 292.312 354.477C291.724 354.023 291.273 353.362 290.961 352.492C290.648 351.622 290.492 350.573 290.492 349.344C290.492 348.125 290.648 347.081 290.961 346.211C291.273 345.341 291.727 344.677 292.32 344.219C292.914 343.76 293.622 343.531 294.445 343.531C295.268 343.531 295.977 343.76 296.57 344.219C297.164 344.677 297.617 345.341 297.93 346.211C298.242 347.081 298.398 348.125 298.398 349.344C298.398 350.573 298.245 351.622 297.938 352.492C297.63 353.362 297.18 354.023 296.586 354.477C295.992 354.93 295.279 355.156 294.445 355.156ZM294.445 353.906C294.987 353.906 295.451 353.729 295.836 353.375C296.221 353.021 296.516 352.503 296.719 351.82C296.922 351.138 297.023 350.312 297.023 349.344C297.023 348.375 296.922 347.547 296.719 346.859C296.516 346.172 296.221 345.648 295.836 345.289C295.451 344.93 294.987 344.75 294.445 344.75C293.904 344.75 293.44 344.93 293.055 345.289C292.669 345.648 292.372 346.172 292.164 346.859C291.956 347.547 291.852 348.375 291.852 349.344C291.852 350.312 291.953 351.138 292.156 351.82C292.359 352.503 292.656 353.021 293.047 353.375C293.438 353.729 293.904 353.906 294.445 353.906ZM303.977 355.156C303.143 355.156 302.432 354.93 301.844 354.477C301.255 354.023 300.805 353.362 300.492 352.492C300.18 351.622 300.023 350.573 300.023 349.344C300.023 348.125 300.18 347.081 300.492 346.211C300.805 345.341 301.258 344.677 301.852 344.219C302.445 343.76 303.154 343.531 303.977 343.531C304.799 343.531 305.508 343.76 306.102 344.219C306.695 344.677 307.148 345.341 307.461 346.211C307.773 347.081 307.93 348.125 307.93 349.344C307.93 350.573 307.776 351.622 307.469 352.492C307.161 353.362 306.711 354.023 306.117 354.477C305.523 354.93 304.81 355.156 303.977 355.156ZM303.977 353.906C304.518 353.906 304.982 353.729 305.367 353.375C305.753 353.021 306.047 352.503 306.25 351.82C306.453 351.138 306.555 350.312 306.555 349.344C306.555 348.375 306.453 347.547 306.25 346.859C306.047 346.172 305.753 345.648 305.367 345.289C304.982 344.93 304.518 344.75 303.977 344.75C303.435 344.75 302.971 344.93 302.586 345.289C302.201 345.648 301.904 346.172 301.695 346.859C301.487 347.547 301.383 348.375 301.383 349.344C301.383 350.312 301.484 351.138 301.688 351.82C301.891 352.503 302.188 353.021 302.578 353.375C302.969 353.729 303.435 353.906 303.977 353.906ZM314.539 352.453H313.305V349.359H314.539V352.453ZM320.758 352.938H319.523V342.391H320.758V352.938ZM321.102 355.969H311.227V354.938H321.102V355.969ZM312.461 355.234H311.227V351.906H312.461V355.234ZM309.336 348.828C311.232 348.818 312.875 348.789 314.266 348.742C315.656 348.695 316.992 348.589 318.273 348.422L318.352 349.312C316.997 349.531 315.57 349.674 314.07 349.742C312.57 349.81 311.013 349.839 309.398 349.828L309.227 348.828H309.336ZM319.852 351.5H316.648V350.609H319.852V351.5ZM313.789 342.953C314.466 342.953 315.062 343.052 315.578 343.25C316.094 343.448 316.497 343.732 316.789 344.102C317.081 344.471 317.227 344.896 317.227 345.375C317.227 345.865 317.081 346.289 316.789 346.648C316.497 347.008 316.094 347.286 315.578 347.484C315.062 347.682 314.466 347.781 313.789 347.781C313.112 347.781 312.513 347.682 311.992 347.484C311.471 347.286 311.068 347.008 310.781 346.648C310.495 346.289 310.352 345.865 310.352 345.375C310.352 344.896 310.495 344.471 310.781 344.102C311.068 343.732 311.471 343.448 311.992 343.25C312.513 343.052 313.112 342.953 313.789 342.953ZM313.789 343.891C313.341 343.88 312.945 343.938 312.602 344.062C312.258 344.188 311.992 344.365 311.805 344.594C311.617 344.823 311.523 345.083 311.523 345.375C311.523 345.667 311.617 345.927 311.805 346.156C311.992 346.385 312.258 346.562 312.602 346.688C312.945 346.812 313.341 346.875 313.789 346.875C314.227 346.875 314.617 346.812 314.961 346.688C315.305 346.562 315.573 346.385 315.766 346.156C315.958 345.927 316.055 345.667 316.055 345.375C316.055 345.083 315.956 344.823 315.758 344.594C315.56 344.365 315.292 344.188 314.953 344.062C314.615 343.938 314.227 343.88 313.789 343.891Z" fill="#ADB3BE"/>
<rect x="459" y="196" width="382.5" height="138" rx="16" fill="#F2F7FF"/>
<path d="M627.246 246.102C627.246 252.5 623.363 256.273 618.168 256.273C612.973 256.273 609.09 252.473 609.09 246.102C609.09 239.703 612.973 235.93 618.168 235.93C623.363 235.93 627.246 239.703 627.246 246.102ZM623.664 246.102C623.664 241.59 621.395 239.129 618.168 239.129C614.941 239.129 612.672 241.59 612.672 246.102C612.672 250.613 614.941 253.074 618.168 253.074C621.395 253.074 623.664 250.613 623.664 246.102ZM643.762 242.875C643.352 240.496 641.438 239.129 639.031 239.129C635.777 239.129 633.508 241.617 633.508 246.102C633.508 250.641 635.805 253.074 639.031 253.074C641.383 253.074 643.297 251.762 643.762 249.438H647.344C646.797 253.238 643.68 256.273 638.977 256.273C633.754 256.273 629.926 252.473 629.926 246.102C629.926 239.703 633.809 235.93 638.977 235.93C643.352 235.93 646.742 238.473 647.344 242.875H643.762ZM650.406 256V236.203H657.844C662.383 236.203 664.816 238.746 664.816 242.52C664.816 245.213 663.586 247.209 661.262 248.152L665.527 256H661.562L657.68 248.754H653.961V256H650.406ZM653.961 245.773H657.297C659.977 245.773 661.18 244.625 661.18 242.52C661.18 240.414 659.977 239.184 657.297 239.184H653.961V245.773Z" fill="#3C3F44"/>
<path d="M683.75 237.75C679.175 237.75 675.5 241.425 675.5 246C675.5 250.575 679.175 254.25 683.75 254.25C688.325 254.25 692 250.575 692 246C692 241.425 688.325 237.75 683.75 237.75ZM684.688 250.05C684.688 250.087 684.65 250.125 684.612 250.125H682.888C682.85 250.125 682.812 250.087 682.812 250.05V244.95C682.812 244.913 682.85 244.875 682.888 244.875H684.612C684.65 244.875 684.688 244.913 684.688 244.95V250.05ZM683.75 243.75C683.113 243.75 682.625 243.262 682.625 242.625C682.625 241.988 683.113 241.5 683.75 241.5C684.387 241.5 684.875 241.988 684.875 242.625C684.875 243.262 684.387 243.75 683.75 243.75Z" fill="#CFD3DA"/>
<path d="M649.078 292.531H623.078V289.344H649.078V292.531ZM637.969 301.844H634.016V291.391H637.969V301.844ZM645.984 286.281H626.125V274.812H645.984V286.281ZM630.047 283.156H642V277.984H630.047V283.156ZM661.297 296.75H657.406V290H661.297V296.75ZM670.406 296.734H666.5V289.969H670.406V296.734ZM676.766 298.719H650.766V295.453H676.766V298.719ZM673.766 284.703H657.734V289.562H653.766V281.531H669.828V278.484H653.719V275.281H673.766V284.703ZM674.438 291.094H653.766V287.859H674.438V291.094Z" fill="#5592FC"/>
<path d="M106.758 397.715V422.434H103.859V409.91H101.316V421.23H98.4453V398.152H101.316V407.395H103.859V397.715H106.758ZM93.0039 404.031C93.0039 408.434 94.4805 412.48 98.1445 414.367L96.3672 416.691C94.0156 415.434 92.4707 413.26 91.6094 410.566C90.7617 413.643 89.2168 416.117 86.7695 417.566L84.9102 415.242C88.5742 413.164 90.0508 408.844 90.0508 404.031V402.855H85.6484V400.422H97.0508V402.855H93.0039V404.031ZM129.016 397.715V404.66H132.488V407.176H129.016V415.598H125.98V397.715H129.016ZM121.633 399.766V402.199H113.566V408.926C118.215 408.939 120.799 408.775 123.738 408.16L124.066 410.621C120.84 411.25 117.941 411.414 112.555 411.414H110.559V399.766H121.633ZM130 419.48V421.941H113.184V413.711H116.219V419.48H130Z" fill="#3C3F44"/>
<path d="M147.156 412.969H145.938V409.594H147.156V412.969ZM153.562 413.891H152.312V403.391H153.562V413.891ZM153.906 416.969H144.047V415.938H153.906V416.969ZM145.281 416.266H144.047V412.719H145.281V416.266ZM141.969 408.891C142.167 408.891 142.359 408.891 142.547 408.891C144.151 408.88 145.659 408.844 147.07 408.781C148.482 408.719 149.807 408.604 151.047 408.438L151.141 409.328C149.776 409.557 148.341 409.711 146.836 409.789C145.331 409.867 143.766 409.906 142.141 409.906L141.969 408.891ZM152.625 411.938H149.25V410.938H152.625V411.938ZM149.281 405.234H143.219V404.234H149.281V405.234ZM149.75 404.781C149.75 405.438 149.729 406.099 149.688 406.766C149.646 407.432 149.542 408.203 149.375 409.078L148.156 408.984C148.323 408.109 148.427 407.349 148.469 406.703C148.51 406.057 148.531 405.417 148.531 404.781V404.234H149.75V404.781ZM166.766 411.672H165.531V403.375H166.766V411.672ZM168.844 408.031H166.406V407H168.844V408.031ZM162.297 411.938C163.234 411.938 164.047 412.042 164.734 412.25C165.422 412.458 165.951 412.76 166.32 413.156C166.69 413.552 166.875 414.026 166.875 414.578C166.875 415.13 166.69 415.607 166.32 416.008C165.951 416.409 165.424 416.714 164.742 416.922C164.06 417.13 163.245 417.234 162.297 417.234C161.349 417.234 160.531 417.13 159.844 416.922C159.156 416.714 158.625 416.409 158.25 416.008C157.875 415.607 157.688 415.13 157.688 414.578C157.688 414.026 157.875 413.552 158.25 413.156C158.625 412.76 159.159 412.458 159.852 412.25C160.544 412.042 161.359 411.938 162.297 411.938ZM162.297 412.953C161.609 412.943 161.008 413.003 160.492 413.133C159.977 413.263 159.581 413.453 159.305 413.703C159.029 413.953 158.891 414.245 158.891 414.578C158.891 414.911 159.029 415.206 159.305 415.461C159.581 415.716 159.977 415.911 160.492 416.047C161.008 416.182 161.609 416.25 162.297 416.25C162.984 416.25 163.583 416.182 164.094 416.047C164.604 415.911 164.997 415.716 165.273 415.461C165.549 415.206 165.688 414.911 165.688 414.578C165.688 414.245 165.549 413.953 165.273 413.703C164.997 413.453 164.604 413.263 164.094 413.133C163.583 413.003 162.984 412.943 162.297 412.953ZM157.609 409.531C159.151 409.521 160.383 409.484 161.305 409.422C162.227 409.359 163.135 409.234 164.031 409.047L164.156 410.062C163.229 410.25 162.294 410.375 161.352 410.438C160.409 410.5 159.161 410.531 157.609 410.531H156.531V409.531H157.609ZM162.703 405.453H157.734V410.188H156.531V404.438H162.703V405.453Z" fill="#ADB3BE"/>
<path d="M738.18 400.203V420H734.598V403.676H734.488L729.867 406.629V403.375L734.762 400.203H738.18ZM745.891 418.059L743.594 425.715H740.996L742.418 418.059H745.891ZM756.172 420.273C751.414 420.273 748.57 416.582 748.57 410.102C748.57 403.648 751.414 399.93 756.172 399.93C760.902 399.93 763.773 403.648 763.773 410.102C763.773 416.582 760.93 420.273 756.172 420.273ZM756.172 417.293C758.66 417.293 760.191 414.859 760.191 410.102C760.191 405.371 758.633 402.883 756.172 402.883C753.711 402.883 752.152 405.371 752.152 410.102C752.152 414.859 753.684 417.293 756.172 417.293ZM774.055 420.273C769.297 420.273 766.453 416.582 766.453 410.102C766.453 403.648 769.297 399.93 774.055 399.93C778.785 399.93 781.656 403.648 781.656 410.102C781.656 416.582 778.812 420.273 774.055 420.273ZM774.055 417.293C776.543 417.293 778.074 414.859 778.074 410.102C778.074 405.371 776.516 402.883 774.055 402.883C771.594 402.883 770.035 405.371 770.035 410.102C770.035 414.859 771.566 417.293 774.055 417.293ZM791.938 420.273C787.18 420.273 784.336 416.582 784.336 410.102C784.336 403.648 787.18 399.93 791.938 399.93C796.668 399.93 799.539 403.648 799.539 410.102C799.539 416.582 796.695 420.273 791.938 420.273ZM791.938 417.293C794.426 417.293 795.957 414.859 795.957 410.102C795.957 405.371 794.398 402.883 791.938 402.883C789.477 402.883 787.918 405.371 787.918 410.102C787.918 414.859 789.449 417.293 791.938 417.293ZM822.426 397.742V416.445H819.363V414.285H814.523V412.152H819.363V397.742H822.426ZM823 419.48V421.941H804.871V414.641H807.906V419.48H823ZM801.59 408.844C806.156 408.816 812.281 408.762 817.531 408.105L817.695 410.293C815.658 410.635 813.553 410.867 811.461 411.004V415.762H808.426V411.168C806.115 411.264 803.914 411.277 801.973 411.277L801.59 408.844ZM809.656 398.645C813.266 398.645 815.781 400.422 815.809 403.02C815.781 405.672 813.266 407.367 809.656 407.367C805.992 407.367 803.477 405.672 803.477 403.02C803.477 400.422 805.992 398.645 809.656 398.645ZM809.656 400.887C807.688 400.887 806.348 401.68 806.348 403.02C806.348 404.359 807.688 405.152 809.656 405.152C811.543 405.152 812.883 404.359 812.91 403.02C812.883 401.68 811.543 400.887 809.656 400.887Z" fill="#3C3F44"/>
<rect x="84.5" y="452" width="741" height="1" fill="#EFEFEF"/>
<path d="M107.852 495.156V497.59H85.3203V495.156H95.0273V492.777H88.2461V483.316H91.2539V485.777H101.918V483.316H104.926V492.777H98.0898V495.156H107.852ZM105.09 499.559V507.434H102.055V501.965H87.8086V499.559H105.09ZM91.2539 490.344H101.918V488.047H91.2539V490.344ZM130.246 482.742V501.445H127.184V499.285H122.344V497.152H127.184V482.742H130.246ZM130.82 504.48V506.941H112.691V499.641H115.727V504.48H130.82ZM109.41 493.844C113.977 493.816 120.102 493.762 125.352 493.105L125.516 495.293C123.479 495.635 121.373 495.867 119.281 496.004V500.762H116.246V496.168C113.936 496.264 111.734 496.277 109.793 496.277L109.41 493.844ZM117.477 483.645C121.086 483.645 123.602 485.422 123.629 488.02C123.602 490.672 121.086 492.367 117.477 492.367C113.812 492.367 111.297 490.672 111.297 488.02C111.297 485.422 113.812 483.645 117.477 483.645ZM117.477 485.887C115.508 485.887 114.168 486.68 114.168 488.02C114.168 489.359 115.508 490.152 117.477 490.152C119.363 490.152 120.703 489.359 120.73 488.02C120.703 486.68 119.363 485.887 117.477 485.887Z" fill="#3C3F44"/>
<path d="M147.156 497.969H145.938V494.594H147.156V497.969ZM153.562 498.891H152.312V488.391H153.562V498.891ZM153.906 501.969H144.047V500.938H153.906V501.969ZM145.281 501.266H144.047V497.719H145.281V501.266ZM141.969 493.891C142.167 493.891 142.359 493.891 142.547 493.891C144.151 493.88 145.659 493.844 147.07 493.781C148.482 493.719 149.807 493.604 151.047 493.438L151.141 494.328C149.776 494.557 148.341 494.711 146.836 494.789C145.331 494.867 143.766 494.906 142.141 494.906L141.969 493.891ZM152.625 496.938H149.25V495.938H152.625V496.938ZM149.281 490.234H143.219V489.234H149.281V490.234ZM149.75 489.781C149.75 490.438 149.729 491.099 149.688 491.766C149.646 492.432 149.542 493.203 149.375 494.078L148.156 493.984C148.323 493.109 148.427 492.349 148.469 491.703C148.51 491.057 148.531 490.417 148.531 489.781V489.234H149.75V489.781ZM166.766 496.672H165.531V488.375H166.766V496.672ZM168.844 493.031H166.406V492H168.844V493.031ZM162.297 496.938C163.234 496.938 164.047 497.042 164.734 497.25C165.422 497.458 165.951 497.76 166.32 498.156C166.69 498.552 166.875 499.026 166.875 499.578C166.875 500.13 166.69 500.607 166.32 501.008C165.951 501.409 165.424 501.714 164.742 501.922C164.06 502.13 163.245 502.234 162.297 502.234C161.349 502.234 160.531 502.13 159.844 501.922C159.156 501.714 158.625 501.409 158.25 501.008C157.875 500.607 157.688 500.13 157.688 499.578C157.688 499.026 157.875 498.552 158.25 498.156C158.625 497.76 159.159 497.458 159.852 497.25C160.544 497.042 161.359 496.938 162.297 496.938ZM162.297 497.953C161.609 497.943 161.008 498.003 160.492 498.133C159.977 498.263 159.581 498.453 159.305 498.703C159.029 498.953 158.891 499.245 158.891 499.578C158.891 499.911 159.029 500.206 159.305 500.461C159.581 500.716 159.977 500.911 160.492 501.047C161.008 501.182 161.609 501.25 162.297 501.25C162.984 501.25 163.583 501.182 164.094 501.047C164.604 500.911 164.997 500.716 165.273 500.461C165.549 500.206 165.688 499.911 165.688 499.578C165.688 499.245 165.549 498.953 165.273 498.703C164.997 498.453 164.604 498.263 164.094 498.133C163.583 498.003 162.984 497.943 162.297 497.953ZM157.609 494.531C159.151 494.521 160.383 494.484 161.305 494.422C162.227 494.359 163.135 494.234 164.031 494.047L164.156 495.062C163.229 495.25 162.294 495.375 161.352 495.438C160.409 495.5 159.161 495.531 157.609 495.531H156.531V494.531H157.609ZM162.703 490.453H157.734V495.188H156.531V489.438H162.703V490.453Z" fill="#ADB3BE"/>
<path d="M96.1484 547.805C96.1484 551.086 99.3594 554.367 103.789 555.141L102.617 557.32C99.0664 556.57 96.1602 554.426 94.7891 551.578C93.3828 554.402 90.4766 556.559 86.9375 557.32L85.7891 555.141C90.1719 554.344 93.3594 551.062 93.3828 547.805V546.234H96.1484V547.805ZM104.562 561.234V563.391H85.2031V561.234H104.562ZM125.305 561.352V563.531H105.945V561.352H125.305ZM123.617 546.867V548.953H120.523V555.703H123.547V557.766H107.609V555.703H110.586V548.953H107.539V546.867H123.617ZM113.188 555.703H117.945V548.953H113.188V555.703ZM144.336 544.922V557.836H141.711V544.922H144.336ZM137.539 546.188V552.398H130.367V554.672C134 554.66 136.566 554.543 139.602 554.086L139.93 556.172C136.578 556.711 133.719 556.805 129.617 556.805H127.812V550.453H134.961V548.32H127.766V546.188H137.539ZM137.211 558.211C141.711 558.211 144.453 559.641 144.453 562.148C144.453 564.609 141.711 566.062 137.211 566.062C132.688 566.062 129.969 564.609 129.969 562.148C129.969 559.641 132.688 558.211 137.211 558.211ZM137.211 560.25C134.211 560.25 132.547 560.906 132.547 562.148C132.547 563.367 134.211 564.023 137.211 564.023C140.188 564.023 141.852 563.367 141.852 562.148C141.852 560.906 140.188 560.25 137.211 560.25ZM171.359 544.898V566.086H168.875V544.898H171.359ZM167.047 545.297V565.055H164.586V554.391H161.539V552.281H164.586V545.297H167.047ZM159.664 550.688C159.664 554.273 160.953 557.859 163.977 559.594L162.43 561.516C160.473 560.344 159.172 558.328 158.445 555.914C157.695 558.527 156.348 560.754 154.344 562.008L152.75 560.062C155.82 558.211 157.156 554.367 157.156 550.688V549.281H153.477V547.172H163.086V549.281H159.664V550.688ZM178.953 545.695V547.992H188.094V545.695H190.672V554.297H184.812V556.242H193.18V558.352H173.867V556.242H182.188V554.297H176.375V545.695H178.953ZM178.953 552.211H188.094V550.008H178.953V552.211ZM191 563.555V565.664H176.258V559.711H178.859V563.555H191Z" fill="#3C3F44"/>
<path d="M211.5 546.75C206.925 546.75 203.25 550.425 203.25 555C203.25 559.575 206.925 563.25 211.5 563.25C216.075 563.25 219.75 559.575 219.75 555C219.75 550.425 216.075 546.75 211.5 546.75ZM212.438 559.05C212.438 559.087 212.4 559.125 212.362 559.125H210.638C210.6 559.125 210.562 559.087 210.562 559.05V553.95C210.562 553.913 210.6 553.875 210.638 553.875H212.362C212.4 553.875 212.438 553.913 212.438 553.95V559.05ZM211.5 552.75C210.863 552.75 210.375 552.262 210.375 551.625C210.375 550.988 210.863 550.5 211.5 550.5C212.137 550.5 212.625 550.988 212.625 551.625C212.625 552.262 212.137 552.75 211.5 552.75Z" fill="#CFD3DA"/>
<path d="M732.332 565.273C728.094 565.273 725.086 562.977 725.004 559.641H728.586C728.695 561.227 730.281 562.266 732.332 562.266C734.52 562.266 736.078 561.062 736.078 559.312C736.078 557.535 734.547 556.25 731.977 556.25H730.199V553.516H731.977C734.082 553.516 735.559 552.34 735.531 550.617C735.559 548.949 734.301 547.828 732.359 547.828C730.5 547.828 728.887 548.867 728.832 550.535H725.414C725.496 547.199 728.504 544.93 732.387 544.93C736.406 544.93 739.004 547.391 738.977 550.426C739.004 552.641 737.527 554.254 735.367 554.691V554.855C738.156 555.238 739.742 557.016 739.715 559.504C739.742 562.84 736.625 565.273 732.332 565.273ZM746.223 563.059L743.926 570.715H741.328L742.75 563.059H746.223ZM756.504 565.273C751.746 565.273 748.902 561.582 748.902 555.102C748.902 548.648 751.746 544.93 756.504 544.93C761.234 544.93 764.105 548.648 764.105 555.102C764.105 561.582 761.262 565.273 756.504 565.273ZM756.504 562.293C758.992 562.293 760.523 559.859 760.523 555.102C760.523 550.371 758.965 547.883 756.504 547.883C754.043 547.883 752.484 550.371 752.484 555.102C752.484 559.859 754.016 562.293 756.504 562.293ZM774.387 565.273C769.629 565.273 766.785 561.582 766.785 555.102C766.785 548.648 769.629 544.93 774.387 544.93C779.117 544.93 781.988 548.648 781.988 555.102C781.988 561.582 779.145 565.273 774.387 565.273ZM774.387 562.293C776.875 562.293 778.406 559.859 778.406 555.102C778.406 550.371 776.848 547.883 774.387 547.883C771.926 547.883 770.367 550.371 770.367 555.102C770.367 559.859 771.898 562.293 774.387 562.293ZM792.27 565.273C787.512 565.273 784.668 561.582 784.668 555.102C784.668 548.648 787.512 544.93 792.27 544.93C797 544.93 799.871 548.648 799.871 555.102C799.871 561.582 797.027 565.273 792.27 565.273ZM792.27 562.293C794.758 562.293 796.289 559.859 796.289 555.102C796.289 550.371 794.73 547.883 792.27 547.883C789.809 547.883 788.25 550.371 788.25 555.102C788.25 559.859 789.781 562.293 792.27 562.293ZM822.758 542.742V561.445H819.695V559.285H814.855V557.152H819.695V542.742H822.758ZM823.332 564.48V566.941H805.203V559.641H808.238V564.48H823.332ZM801.922 553.844C806.488 553.816 812.613 553.762 817.863 553.105L818.027 555.293C815.99 555.635 813.885 555.867 811.793 556.004V560.762H808.758V556.168C806.447 556.264 804.246 556.277 802.305 556.277L801.922 553.844ZM809.988 543.645C813.598 543.645 816.113 545.422 816.141 548.02C816.113 550.672 813.598 552.367 809.988 552.367C806.324 552.367 803.809 550.672 803.809 548.02C803.809 545.422 806.324 543.645 809.988 543.645ZM809.988 545.887C808.02 545.887 806.68 546.68 806.68 548.02C806.68 549.359 808.02 550.152 809.988 550.152C811.875 550.152 813.215 549.359 813.242 548.02C813.215 546.68 811.875 545.887 809.988 545.887Z" fill="#3C3F44"/>
<path d="M103.133 610.352V618.109H100.578V612.461H88.25V610.352H103.133ZM103.133 596.898V609.438H100.578V604.305H97.25V602.219H100.578V596.898H103.133ZM91.1094 598.469V600.578H88.1797V606.32C89.1523 606.285 90.1484 606.203 91.2734 605.969L91.5078 608.055C89.6797 608.453 88.2266 608.453 86.6094 608.453H85.625V598.469H91.1094ZM98.1172 598.469V600.578H94.7656V606.32C96.3945 606.32 97.4727 606.238 98.7031 605.945L98.9609 608.031C97.2734 608.406 95.9375 608.453 93.3125 608.453H92.1875V598.469H98.1172ZM129.875 596.898V618.086H127.391V596.898H129.875ZM125.562 597.297V617.055H123.102V606.391H120.055V604.281H123.102V597.297H125.562ZM118.18 602.688C118.18 606.273 119.469 609.859 122.492 611.594L120.945 613.516C118.988 612.344 117.688 610.328 116.961 607.914C116.211 610.527 114.863 612.754 112.859 614.008L111.266 612.062C114.336 610.211 115.672 606.367 115.672 602.688V601.281H111.992V599.172H121.602V601.281H118.18V602.688ZM137.469 597.695V599.992H146.609V597.695H149.188V606.297H143.328V608.242H151.695V610.352H132.383V608.242H140.703V606.297H134.891V597.695H137.469ZM137.469 604.211H146.609V602.008H137.469V604.211ZM149.516 615.555V617.664H134.773V611.711H137.375V615.555H149.516Z" fill="#3C3F44"/>
<path d="M169.5 598.75C164.925 598.75 161.25 602.425 161.25 607C161.25 611.575 164.925 615.25 169.5 615.25C174.075 615.25 177.75 611.575 177.75 607C177.75 602.425 174.075 598.75 169.5 598.75ZM170.438 611.05C170.438 611.087 170.4 611.125 170.362 611.125H168.638C168.6 611.125 168.562 611.087 168.562 611.05V605.95C168.562 605.913 168.6 605.875 168.638 605.875H170.362C170.4 605.875 170.438 605.913 170.438 605.95V611.05ZM169.5 604.75C168.863 604.75 168.375 604.262 168.375 603.625C168.375 602.988 168.863 602.5 169.5 602.5C170.137 602.5 170.625 602.988 170.625 603.625C170.625 604.262 170.137 604.75 169.5 604.75Z" fill="#CFD3DA"/>
<path d="M723.785 613.309V610.465L732.344 597.203H736.773V610.383H739.371V613.309H736.773V617H733.383V613.309H723.785ZM727.422 610.383H733.438V601.25H733.219L727.422 610.246V610.383ZM745.633 615.059L743.336 622.715H740.738L742.16 615.059H745.633ZM755.914 617.273C751.156 617.273 748.312 613.582 748.312 607.102C748.312 600.648 751.156 596.93 755.914 596.93C760.645 596.93 763.516 600.648 763.516 607.102C763.516 613.582 760.672 617.273 755.914 617.273ZM755.914 614.293C758.402 614.293 759.934 611.859 759.934 607.102C759.934 602.371 758.375 599.883 755.914 599.883C753.453 599.883 751.895 602.371 751.895 607.102C751.895 611.859 753.426 614.293 755.914 614.293ZM773.797 617.273C769.039 617.273 766.195 613.582 766.195 607.102C766.195 600.648 769.039 596.93 773.797 596.93C778.527 596.93 781.398 600.648 781.398 607.102C781.398 613.582 778.555 617.273 773.797 617.273ZM773.797 614.293C776.285 614.293 777.816 611.859 777.816 607.102C777.816 602.371 776.258 599.883 773.797 599.883C771.336 599.883 769.777 602.371 769.777 607.102C769.777 611.859 771.309 614.293 773.797 614.293ZM791.68 617.273C786.922 617.273 784.078 613.582 784.078 607.102C784.078 600.648 786.922 596.93 791.68 596.93C796.41 596.93 799.281 600.648 799.281 607.102C799.281 613.582 796.438 617.273 791.68 617.273ZM791.68 614.293C794.168 614.293 795.699 611.859 795.699 607.102C795.699 602.371 794.141 599.883 791.68 599.883C789.219 599.883 787.66 602.371 787.66 607.102C787.66 611.859 789.191 614.293 791.68 614.293ZM822.168 594.742V613.445H819.105V611.285H814.266V609.152H819.105V594.742H822.168ZM822.742 616.48V618.941H804.613V611.641H807.648V616.48H822.742ZM801.332 605.844C805.898 605.816 812.023 605.762 817.273 605.105L817.438 607.293C815.4 607.635 813.295 607.867 811.203 608.004V612.762H808.168V608.168C805.857 608.264 803.656 608.277 801.715 608.277L801.332 605.844ZM809.398 595.645C813.008 595.645 815.523 597.422 815.551 600.02C815.523 602.672 813.008 604.367 809.398 604.367C805.734 604.367 803.219 602.672 803.219 600.02C803.219 597.422 805.734 595.645 809.398 595.645ZM809.398 597.887C807.43 597.887 806.09 598.68 806.09 600.02C806.09 601.359 807.43 602.152 809.398 602.152C811.285 602.152 812.625 601.359 812.652 600.02C812.625 598.68 811.285 597.887 809.398 597.887Z" fill="#3C3F44"/>
<rect x="84.5" y="649" width="741" height="1" fill="#EFEFEF"/>
<path d="M104.816 679.742V686.879H108.262V689.395H104.816V697.926H101.781V679.742H104.816ZM105.801 701.48V703.941H88.9844V696.094H92.0195V701.48H105.801ZM89.1758 681.492V685.266H94.9453V681.492H97.9531V693.906H86.168V681.492H89.1758ZM89.1758 691.5H94.9453V687.617H89.1758V691.5ZM129.098 679.715V688H132.434V690.516H129.098V699.02H126.062V679.715H129.098ZM129.973 701.48V703.941H112.855V697.734H115.891V701.48H129.973ZM109.301 694.07C111.146 694.07 113.293 694.057 115.535 693.961V692.402C112.787 692.074 111.051 690.721 111.051 688.738C111.051 686.305 113.43 684.883 117.012 684.91C120.621 684.883 122.973 686.305 122.973 688.738C122.973 690.707 121.277 692.047 118.57 692.402V693.824C120.676 693.715 122.795 693.523 124.777 693.223L125.023 695.355C119.801 696.34 113.895 696.395 109.629 696.449L109.301 694.07ZM124.121 681.875V684.09H109.93V681.875H115.535V679.633H118.57V681.875H124.121ZM117.012 686.961C115.098 686.961 113.949 687.59 113.977 688.738C113.949 689.805 115.098 690.434 117.012 690.434C118.926 690.434 120.074 689.805 120.074 688.738C120.074 687.59 118.926 686.961 117.012 686.961ZM144 681.984V687.699H148.02V681.984H150.836V698.445H141.129V681.984H144ZM144 695.984H148.02V690.105H144V695.984ZM161.691 679.715V704.434H158.766V691.773H156.141V703.23H153.27V680.152H156.141V689.258H158.766V679.715H161.691ZM177.305 688.438V691.664H187.094V694.098H164.562V691.664H174.297V688.438H177.305ZM177.332 681.055C177.332 684.062 180.641 686.797 185.809 687.453L184.633 689.832C180.572 689.203 177.346 687.371 175.773 684.773C174.188 687.371 170.961 689.203 166.887 689.832L165.793 687.453C170.879 686.797 174.242 684.008 174.242 681.055V680.125H177.332V681.055ZM175.801 695.711C181.16 695.711 184.332 697.27 184.359 700.059C184.332 702.848 181.16 704.406 175.801 704.406C170.414 704.406 167.188 702.848 167.188 700.059C167.188 697.27 170.414 695.711 175.801 695.711ZM175.801 698.035C172.164 698.035 170.25 698.691 170.277 700.059C170.25 701.426 172.164 702.109 175.801 702.109C179.355 702.109 181.297 701.426 181.324 700.059C181.297 698.691 179.355 698.035 175.801 698.035ZM209.324 679.715V704.461H206.262V679.715H209.324ZM193.109 681.738V687.918H199.098V681.738H202.105V698.637H190.074V681.738H193.109ZM193.109 696.148H199.098V690.297H193.109V696.148Z" fill="#3C3F44"/>
<path d="M229.5 683.75C224.925 683.75 221.25 687.425 221.25 692C221.25 696.575 224.925 700.25 229.5 700.25C234.075 700.25 237.75 696.575 237.75 692C237.75 687.425 234.075 683.75 229.5 683.75ZM230.438 696.05C230.438 696.087 230.4 696.125 230.362 696.125H228.638C228.6 696.125 228.562 696.087 228.562 696.05V690.95C228.562 690.913 228.6 690.875 228.638 690.875H230.362C230.4 690.875 230.438 690.913 230.438 690.95V696.05ZM229.5 689.75C228.863 689.75 228.375 689.262 228.375 688.625C228.375 687.988 228.863 687.5 229.5 687.5C230.137 687.5 230.625 687.988 230.625 688.625C230.625 689.262 230.137 689.75 229.5 689.75Z" fill="#CFD3DA"/>
<path d="M725.141 702V699.43L732.141 692.676C734.137 690.68 735.176 689.504 735.176 687.836C735.176 686.004 733.727 684.828 731.785 684.828C729.734 684.828 728.422 686.113 728.449 688.109H725.059C725.031 684.363 727.848 681.93 731.812 681.93C735.859 681.93 738.594 684.336 738.594 687.672C738.594 689.914 737.5 691.719 733.617 695.383L730.09 698.883V699.02H738.895V702H725.141ZM746.004 700.059L743.707 707.715H741.109L742.531 700.059H746.004ZM756.559 702.273C752.594 702.273 749.695 699.922 749.586 696.641H753.059C753.168 698.254 754.672 699.402 756.559 699.402C758.773 699.402 760.359 697.789 760.359 695.602C760.359 693.332 758.719 691.719 756.449 691.719C754.918 691.691 753.797 692.238 753.168 693.414H749.859L751.062 682.203H762.766V685.184H753.988L753.387 690.434H753.578C754.344 689.559 755.793 688.93 757.406 688.93C761.098 688.93 763.805 691.691 763.805 695.492C763.805 699.457 760.824 702.273 756.559 702.273ZM774.113 702.273C769.355 702.273 766.512 698.582 766.512 692.102C766.512 685.648 769.355 681.93 774.113 681.93C778.844 681.93 781.715 685.648 781.715 692.102C781.715 698.582 778.871 702.273 774.113 702.273ZM774.113 699.293C776.602 699.293 778.133 696.859 778.133 692.102C778.133 687.371 776.574 684.883 774.113 684.883C771.652 684.883 770.094 687.371 770.094 692.102C770.094 696.859 771.625 699.293 774.113 699.293ZM791.996 702.273C787.238 702.273 784.395 698.582 784.395 692.102C784.395 685.648 787.238 681.93 791.996 681.93C796.727 681.93 799.598 685.648 799.598 692.102C799.598 698.582 796.754 702.273 791.996 702.273ZM791.996 699.293C794.484 699.293 796.016 696.859 796.016 692.102C796.016 687.371 794.457 684.883 791.996 684.883C789.535 684.883 787.977 687.371 787.977 692.102C787.977 696.859 789.508 699.293 791.996 699.293ZM822.484 679.742V698.445H819.422V696.285H814.582V694.152H819.422V679.742H822.484ZM823.059 701.48V703.941H804.93V696.641H807.965V701.48H823.059ZM801.648 690.844C806.215 690.816 812.34 690.762 817.59 690.105L817.754 692.293C815.717 692.635 813.611 692.867 811.52 693.004V697.762H808.484V693.168C806.174 693.264 803.973 693.277 802.031 693.277L801.648 690.844ZM809.715 680.645C813.324 680.645 815.84 682.422 815.867 685.02C815.84 687.672 813.324 689.367 809.715 689.367C806.051 689.367 803.535 687.672 803.535 685.02C803.535 682.422 806.051 680.645 809.715 680.645ZM809.715 682.887C807.746 682.887 806.406 683.68 806.406 685.02C806.406 686.359 807.746 687.152 809.715 687.152C811.602 687.152 812.941 686.359 812.969 685.02C812.941 683.68 811.602 682.887 809.715 682.887Z" fill="#3C3F44"/>
</g>
<defs>
<filter id="filter0_dd_3452_39612" x="0.5" y="0" width="909" height="806" filterUnits="userSpaceOnUse" color-interpolation-filters="sRGB">
<feFlood flood-opacity="0" result="BackgroundImageFix"/>
<feColorMatrix in="SourceAlpha" type="matrix" values="0 0 0 0 0 0 0 0 0 0 0 0 0 0 0 0 0 0 127 0" result="hardAlpha"/>
<feOffset dy="12"/>
<feGaussianBlur stdDeviation="18"/>
<feComposite in2="hardAlpha" operator="out"/>
<feColorMatrix type="matrix" values="0 0 0 0 0.333333 0 0 0 0 0.572549 0 0 0 0 0.988235 0 0 0 0.18 0"/>
<feBlend mode="normal" in2="BackgroundImageFix" result="effect1_dropShadow_3452_39612"/>
<feColorMatrix in="SourceAlpha" type="matrix" values="0 0 0 0 0 0 0 0 0 0 0 0 0 0 0 0 0 0 127 0" result="hardAlpha"/>
<feOffset dy="1"/>
<feGaussianBlur stdDeviation="2"/>
<feComposite in2="hardAlpha" operator="out"/>
<feColorMatrix type="matrix" values="0 0 0 0 0.333333 0 0 0 0 0.572549 0 0 0 0 0.988235 0 0 0 0.16 0"/>
<feBlend mode="normal" in2="effect1_dropShadow_3452_39612" result="effect2_dropShadow_3452_39612"/>
<feBlend mode="normal" in="SourceGraphic" in2="effect2_dropShadow_3452_39612" result="shape"/>
</filter>
</defs>
</svg>
