<svg width="345" height="319" viewBox="0 0 345 319" fill="none" xmlns="http://www.w3.org/2000/svg">
<path d="M163.422 22.9109L33.2959 42.8306C28.3555 43.5869 24.9766 48.2219 25.6639 53.1723C29.9237 83.8521 34.2285 133.011 34.2285 136.195C34.2285 139.524 123.772 124.2 174.089 115.295C178.731 114.474 181.922 110.21 181.438 105.52L173.736 30.8833C173.208 25.7666 168.506 22.1325 163.422 22.9109Z" fill="#5592FC"/>
<path d="M209.505 78.9973L17.5109 117.975C10.6435 119.369 6.11691 125.955 7.27653 132.866L19.9788 208.566C20.4203 211.197 21.6608 213.629 23.5318 215.531L69.1125 261.869C72.4658 265.278 77.4199 266.571 82.0114 265.235L273.719 209.469C278.18 208.171 281.609 204.591 282.715 200.079L295.301 148.683C296.647 143.187 294.283 137.469 289.585 134.316C266.474 118.8 232.719 91.7083 220.345 81.6606C217.305 79.1917 213.344 78.2181 209.505 78.9973Z" fill="#F2F7FF"/>
<path d="M302.621 222.131L266.112 194.778C265.143 194.051 263.896 193.804 262.722 194.104L255.932 195.842C254.162 196.295 252.924 197.89 252.924 199.717V217.259C252.924 218.276 253.312 219.256 254.009 219.997L289.072 257.318C290.143 258.458 291.782 258.869 293.264 258.37L300.098 256.067C301.653 255.543 302.731 254.123 302.816 252.484L304.217 225.54C304.287 224.209 303.688 222.93 302.621 222.131Z" fill="#5592FC"/>
<path d="M329.807 255.181L262.769 212.525C260.907 211.34 258.638 210.977 256.499 211.522L110.121 248.818C104.12 250.347 102.057 257.822 106.425 262.212L158.644 314.698C160.711 316.775 163.748 317.556 166.56 316.734L327.757 269.609C334.358 267.68 335.609 258.873 329.807 255.181Z" fill="#5592FC"/>
<path d="M312.026 244.105L253.053 197.577C252.81 197.385 252.505 197.314 252.205 197.388C207.174 208.545 117.783 230.814 116.807 231.546C115.836 232.275 150.341 268.019 168.113 286.208C168.369 286.471 168.74 286.562 169.093 286.462L311.68 245.852C312.465 245.629 312.666 244.61 312.026 244.105Z" fill="#F4F4F4"/>
<path d="M312.026 248.015L253.053 201.487C252.81 201.296 252.505 201.224 252.205 201.298C207.174 212.455 117.783 234.724 116.807 235.456C115.836 236.185 150.341 271.929 168.113 290.118C168.369 290.381 168.74 290.472 169.093 290.372L311.68 249.762C312.465 249.539 312.666 248.521 312.026 248.015Z" fill="#F4F4F4"/>
<path d="M312.026 251.926L253.053 205.397C252.81 205.206 252.505 205.134 252.205 205.208C207.174 216.365 117.783 238.635 116.807 239.366C115.836 240.095 150.341 275.84 168.113 294.029C168.369 294.291 168.74 294.383 169.093 294.282L311.68 253.672C312.465 253.449 312.666 252.431 312.026 251.926Z" fill="#F4F4F4"/>
<path d="M312.026 255.836L253.053 209.307C252.81 209.116 252.505 209.044 252.205 209.119C207.174 220.276 117.783 242.545 116.807 243.277C115.836 244.005 150.341 279.75 168.113 297.939C168.369 298.201 168.74 298.293 169.093 298.192L311.68 257.582C312.465 257.359 312.666 256.341 312.026 255.836Z" fill="#F4F4F4"/>
<path d="M312.026 259.746L253.053 213.217C252.81 213.026 252.505 212.954 252.205 213.029C207.174 224.186 117.783 246.455 116.807 247.187C115.836 247.916 150.341 283.66 168.113 301.849C168.369 302.111 168.74 302.203 169.093 302.102L311.68 261.493C312.465 261.269 312.666 260.251 312.026 259.746Z" fill="#F4F4F4"/>
<path d="M150.663 2.37221L43.3754 19.1577C36.2765 20.2684 31.4143 26.9175 32.328 34.0445C35.9558 62.3428 39.434 103.084 39.434 105.861C39.434 108.828 115.078 95.6919 161.021 87.4138C167.693 86.2116 172.287 80.0782 171.606 73.3328L165.606 13.91C164.857 6.48939 158.031 1.21935 150.663 2.37221Z" fill="#F4F4F4"/>
<path d="M213.087 68.2828L9.04154 107.138C4.1766 108.064 0.974184 112.747 1.87537 117.617L5.86553 139.178C6.27401 141.386 7.34798 143.415 8.94328 144.994L61.7478 197.265C63.4289 198.929 65.8367 199.632 68.1489 199.133L293.33 150.543C295.49 150.077 297.22 148.46 297.831 146.336L302.694 129.417C303.665 126.039 302.317 122.423 299.372 120.504L221.882 70.0167C219.285 68.3242 216.133 67.7028 213.087 68.2828Z" fill="#5592FC"/>
<path d="M148.551 261.525L116.144 233.122C115.126 232.23 113.726 231.913 112.423 232.28L106.835 233.854C105.111 234.339 103.92 235.912 103.92 237.704V255.256C103.92 256.313 104.338 257.326 105.082 258.075L140.652 293.888C141.726 294.968 143.319 295.346 144.763 294.861L147.186 294.048C148.816 293.502 149.914 291.975 149.914 290.256V264.533C149.914 263.38 149.417 262.284 148.551 261.525Z" fill="#5592FC"/>
</svg>
