<svg width="462" height="438" viewBox="0 0 462 438" fill="none" xmlns="http://www.w3.org/2000/svg">
<g filter="url(#filter0_dd_3460_40846)">
<path d="M372.539 296.211H113.07L235.707 370.258C240.072 372.893 245.537 372.893 249.902 370.258L372.539 296.211Z" fill="url(#paint0_linear_3460_40846)"/>
<path d="M372.539 296.211H113.07L236.255 229.357C240.34 227.14 245.269 227.14 249.354 229.357L372.539 296.211Z" fill="#C2DCFF"/>
<path d="M259.473 49.1726C259.274 48.9746 259.006 48.8633 258.726 48.8633H167.601C164.685 48.8633 162.32 51.2277 162.32 54.1444V260.498C162.32 263.415 164.685 265.78 167.601 265.78H321.472C324.389 265.78 326.753 263.415 326.753 260.498V116.89C326.753 116.61 326.642 116.341 326.444 116.143L259.473 49.1726Z" fill="#5592FC"/>
<path d="M264.446 116.453L326.754 116.453L292.959 82.6584L259.165 48.8637L259.165 111.172C259.165 114.089 261.529 116.453 264.446 116.453Z" fill="#3C7AE5"/>
<path d="M113.07 296.211V449.97L242.805 373.091L113.07 296.211Z" fill="#9EC8FF"/>
<path d="M372.539 296.211V449.97L242.805 373.091L372.539 296.211Z" fill="#9EC8FF"/>
<path d="M113.07 411.22C113.07 407.937 115.234 405.048 118.384 404.125L226.907 372.309C237.287 369.266 248.322 369.266 258.702 372.309L367.225 404.125C370.375 405.048 372.539 407.937 372.539 411.22V449.966H113.07V411.22Z" fill="#91C0FD"/>
<circle cx="372.539" cy="158.391" r="10.4219" fill="#FFE101" fill-opacity="0.1"/>
<circle cx="46.4219" cy="122.133" r="10.4219" fill="#FFE101" fill-opacity="0.1"/>
<circle cx="172.742" cy="296.211" r="10.4219" fill="#FFE101" fill-opacity="0.1"/>
<circle cx="314.23" cy="301.762" r="10.4219" fill="#FFE101" fill-opacity="0.1"/>
<circle cx="15.167" cy="15.167" r="15.167" transform="matrix(-1 0 0 1 135.777 158.391)" fill="#FFE101" fill-opacity="0.5"/>
<circle cx="441.159" cy="137.3" r="15.167" fill="#FFE101" fill-opacity="0.5"/>
<circle cx="377.284" cy="63.2841" r="15.167" fill="#FFFBD0"/>
<circle cx="15.167" cy="15.167" r="15.167" transform="matrix(-1 0 0 1 126.959 48.1172)" fill="#FFFBD0"/>
<circle cx="15.167" cy="15.167" r="15.167" transform="matrix(-1 0 0 1 113.07 242.445)" fill="#FFFBD0"/>
<circle cx="15.167" cy="15.167" r="15.167" transform="matrix(-1 0 0 1 398.127 261.004)" fill="#FFFBD0"/>
<circle cx="6.38397" cy="6.38397" r="6.38397" transform="matrix(1 0 0 -1 44.0781 37.0352)" fill="#F2F7FF"/>
<circle cx="6.38397" cy="6.38397" r="6.38397" transform="matrix(1 0 0 -1 349.352 248.828)" fill="#F2F7FF"/>
<circle cx="6.38397" cy="6.38397" r="6.38397" transform="matrix(1 0 0 -1 36 225.801)" fill="#F2F7FF"/>
<path d="M180.716 195.738V156.136H196.225C199.164 156.136 201.704 156.703 203.843 157.838C205.983 158.972 207.608 160.545 208.716 162.556C209.838 164.567 210.399 166.887 210.399 169.517C210.399 172.147 209.831 174.468 208.697 176.479C207.576 178.49 205.932 180.056 203.766 181.178C201.6 182.286 199.029 182.84 196.051 182.84H186.092V176.208H194.716C196.302 176.208 197.636 175.931 198.719 175.376C199.802 174.822 200.608 174.042 201.136 173.037C201.678 172.031 201.948 170.858 201.948 169.517C201.948 168.177 201.678 167.01 201.136 166.017C200.608 165.025 199.802 164.258 198.719 163.716C197.636 163.162 196.296 162.885 194.697 162.885H188.935V195.738H180.716ZM229.568 195.738H219.281V188.68H229.22C231.76 188.68 233.881 188.229 235.582 187.327C237.284 186.424 238.56 185.032 239.411 183.15C240.275 181.255 240.706 178.838 240.706 175.899C240.706 172.985 240.275 170.587 239.411 168.705C238.547 166.823 237.271 165.437 235.582 164.548C233.906 163.645 231.799 163.194 229.259 163.194H219.107V156.136H229.704C233.648 156.136 237.065 156.929 239.952 158.515C242.84 160.087 245.057 162.363 246.604 165.34C248.151 168.305 248.925 171.825 248.925 175.899C248.925 180.011 248.151 183.556 246.604 186.534C245.057 189.499 242.827 191.774 239.914 193.36C237.013 194.945 233.565 195.738 229.568 195.738ZM223.825 156.136V195.738H215.607V156.136H223.825ZM254.873 195.738V156.136H280.978V162.943H263.091V172.534H279.237V179.321H263.091V195.738H254.873Z" fill="white"/>
<rect x="179.152" y="122.133" width="54.697" height="10.4206" rx="5.21032" fill="#3C7AE5"/>
</g>
<defs>
<filter id="filter0_dd_3460_40846" x="0" y="0.265625" width="512.309" height="497.703" filterUnits="userSpaceOnUse" color-interpolation-filters="sRGB">
<feFlood flood-opacity="0" result="BackgroundImageFix"/>
<feColorMatrix in="SourceAlpha" type="matrix" values="0 0 0 0 0 0 0 0 0 0 0 0 0 0 0 0 0 0 127 0" result="hardAlpha"/>
<feOffset dy="12"/>
<feGaussianBlur stdDeviation="18"/>
<feComposite in2="hardAlpha" operator="out"/>
<feColorMatrix type="matrix" values="0 0 0 0 0.333333 0 0 0 0 0.572549 0 0 0 0 0.988235 0 0 0 0.18 0"/>
<feBlend mode="normal" in2="BackgroundImageFix" result="effect1_dropShadow_3460_40846"/>
<feColorMatrix in="SourceAlpha" type="matrix" values="0 0 0 0 0 0 0 0 0 0 0 0 0 0 0 0 0 0 127 0" result="hardAlpha"/>
<feOffset dy="1"/>
<feGaussianBlur stdDeviation="2"/>
<feComposite in2="hardAlpha" operator="out"/>
<feColorMatrix type="matrix" values="0 0 0 0 0.333333 0 0 0 0 0.572549 0 0 0 0 0.988235 0 0 0 0.16 0"/>
<feBlend mode="normal" in2="effect1_dropShadow_3460_40846" result="effect2_dropShadow_3460_40846"/>
<feBlend mode="normal" in="SourceGraphic" in2="effect2_dropShadow_3460_40846" result="shape"/>
</filter>
<linearGradient id="paint0_linear_3460_40846" x1="242.805" y1="374.543" x2="242.805" y2="296.211" gradientUnits="userSpaceOnUse">
<stop stop-color="#5891F3"/>
<stop offset="1" stop-color="#76A7FB"/>
</linearGradient>
</defs>
</svg>
