<svg width="454" height="452" viewBox="0 0 454 452" fill="none" xmlns="http://www.w3.org/2000/svg">
<g filter="url(#filter0_dd_3452_39473)">
<path d="M124 88.4102H418V398.705C418 406.99 411.284 413.705 403 413.705H139C130.716 413.705 124 406.99 124 398.705V88.4102Z" fill="white"/>
<path d="M124 69.6289C124 61.3446 130.716 54.6289 139 54.6289H403C411.284 54.6289 418 61.3446 418 69.6289V88.4133H124V69.6289Z" fill="#64A6FF"/>
<path d="M152.855 362.341C152.855 357.396 156.864 353.387 161.81 353.387H381.19C386.136 353.387 390.145 357.396 390.145 362.341V385.92C390.145 390.866 386.136 394.875 381.19 394.875H161.81C156.864 394.875 152.855 390.866 152.855 385.92V362.341Z" fill="#5592FC"/>
<path d="M248.403 368.81C248.403 371.258 250.799 373.707 254.104 374.284L253.23 375.91C250.58 375.351 248.412 373.75 247.389 371.625C246.339 373.733 244.171 375.342 241.53 375.91L240.673 374.284C243.943 373.689 246.322 371.241 246.339 368.81V367.638H248.403V368.81ZM254.681 378.831V380.44H240.236V378.831H254.681ZM269.232 366.659V378.534H267.378V372.955H265.717V378.061H263.881V366.956H265.717V371.363H267.378V366.659H269.232ZM269.687 380.562V382.136H258.581V377.117H260.523V380.562H269.687ZM262.709 367.988C262.709 372.01 261.065 375.001 256.64 376.872L255.713 375.49C257.707 374.668 259.027 373.645 259.841 372.395L256.063 372.815L255.801 371.223L260.523 370.961C260.654 370.515 260.75 370.043 260.803 369.544H256.5V367.988H262.709ZM281.422 370.436C281.404 373.339 282.926 376.242 285.497 377.344L284.343 378.901C282.524 378.061 281.186 376.382 280.46 374.319C279.734 376.549 278.379 378.367 276.455 379.268L275.266 377.642C277.907 376.505 279.446 373.479 279.446 370.436V367.918H281.422V370.436ZM288.592 366.641V382.469H286.634V366.641H288.592ZM296.585 369.387C296.585 371.328 297.844 373.252 300.327 374.074L299.348 375.578C297.582 374.992 296.322 373.803 295.64 372.325C294.932 373.943 293.62 375.228 291.775 375.858L290.743 374.354C293.297 373.514 294.626 371.468 294.626 369.387V369.194H291.286V367.638H299.873V369.194H296.585V369.387ZM303.388 366.641V370.594H305.592V372.22H303.388V376.173H301.447V366.641H303.388ZM303.388 376.907V382.451H301.447V378.464H292.86V376.907H303.388Z" fill="#C2DCFF"/>
<path d="M341.264 380.889C341.264 397.555 327.266 411.067 310 411.067C292.734 411.067 278.736 397.555 278.736 380.889C278.736 364.222 292.734 350.711 310 350.711C327.266 350.711 341.264 364.222 341.264 380.889ZM283.311 380.889C283.311 395.116 295.26 406.65 310 406.65C324.74 406.65 336.689 395.116 336.689 380.889C336.689 366.661 324.74 355.127 310 355.127C295.26 355.127 283.311 366.661 283.311 380.889Z" fill="#FFF69B" fill-opacity="0.5"/>
<rect x="124" y="88.4102" width="294" height="137.068" fill="#C2DCFF"/>
<path d="M142 255.404C142 253.272 143.729 251.543 145.861 251.543H400.139C402.271 251.543 404 253.272 404 255.404C404 257.536 402.271 259.265 400.139 259.265H145.861C143.729 259.265 142 257.536 142 255.404Z" fill="#64A6FF"/>
<rect x="142" y="269.883" width="262" height="7.72214" rx="3.86107" fill="#64A6FF"/>
<rect x="142" y="289.188" width="61" height="7.72214" rx="3.86107" fill="#64A6FF"/>
<ellipse cx="271.5" cy="156.461" rx="74.5" ry="32.3365" fill="#5592FC"/>
<path d="M311.709 153.617C315.339 152.139 316.879 147.833 315.007 144.389C312.622 139.998 306.405 139.767 303.701 143.969L301.105 148.003L301.72 143.301C302.107 140.344 300.391 137.515 297.59 136.491C293.292 134.921 288.789 138.26 289.044 142.829L290.36 166.451C290.547 169.797 293.315 172.416 296.667 172.416C300.012 172.416 302.683 169.837 302.96 166.66L303.101 167.084C304.875 172.427 312.088 173.252 315.023 168.447C316.937 165.313 315.931 161.22 312.783 159.33L306.68 155.664L311.709 153.617ZM306.056 155.29C306.056 155.29 306.057 155.29 306.057 155.29L306.056 155.29Z" fill="white" stroke="#5592FC" strokeWidth="1.18693"/>
<path fillRule="evenodd" clipRule="evenodd" d="M264.026 169.123C264.882 168.93 265.726 169.499 265.911 170.393C267.089 176.101 274.939 176.154 276.167 170.383C276.357 169.49 277.204 168.927 278.06 169.125C278.915 169.324 279.454 170.208 279.264 171.101C277.313 180.27 264.72 180.345 262.81 171.091C262.625 170.197 263.17 169.316 264.026 169.123Z" fill="white"/>
<path d="M268.049 154.03C268.049 159.186 269.585 163.83 272.039 167.171C274.494 170.512 277.836 172.517 281.473 172.517C285.11 172.517 288.452 170.512 290.906 167.171C293.361 163.83 294.897 159.186 294.897 154.03C294.897 148.874 293.361 144.23 290.906 140.889C288.452 137.548 285.11 135.543 281.473 135.543C277.836 135.543 274.494 137.548 272.039 140.889C269.585 144.23 268.049 148.874 268.049 154.03Z" fill="white" stroke="#5592FC" strokeWidth="1.18693"/>
<path d="M246.891 154.03C246.891 159.186 248.427 163.83 250.881 167.171C253.336 170.512 256.678 172.517 260.315 172.517C263.951 172.517 267.294 170.512 269.748 167.171C272.202 163.83 273.739 159.186 273.739 154.03C273.739 148.874 272.202 144.23 269.748 140.889C267.294 137.548 263.951 135.543 260.315 135.543C256.678 135.543 253.336 137.548 250.881 140.889C248.427 144.23 246.891 148.874 246.891 154.03Z" fill="white" stroke="#5592FC" strokeWidth="1.18693"/>
<ellipse cx="4.97524" cy="11.4554" rx="4.97524" ry="11.4554" transform="matrix(-1 0 0 1 294.533 143.277)" fill="#5592FC"/>
<path d="M293.939 156.227C291.78 153.257 287.336 153.257 285.177 156.227C285.201 158.884 285.74 161.256 286.573 162.956C287.444 164.734 288.536 165.596 289.558 165.596C290.58 165.596 291.672 164.734 292.543 162.956C293.376 161.256 293.915 158.884 293.939 156.227Z" fill="white" stroke="#5592FC" strokeWidth="1.18693"/>
<ellipse cx="4.97524" cy="11.4554" rx="4.97524" ry="11.4554" transform="matrix(-1 0 0 1 273.377 143.277)" fill="#5592FC"/>
<path d="M272.783 156.227C270.624 153.257 266.18 153.257 264.021 156.227C264.045 158.884 264.583 161.256 265.417 162.956C266.288 164.734 267.38 165.596 268.402 165.596C269.424 165.596 270.515 164.734 271.387 162.956C272.22 161.256 272.759 158.884 272.783 156.227Z" fill="white" stroke="#5592FC" strokeWidth="1.18693"/>
<path d="M245.479 172.19C249.703 170.56 251.431 165.511 249.091 161.635L243.861 152.97L244.754 153.229C250.098 154.779 255.436 150.769 255.436 145.204C255.436 140.589 251.695 136.848 247.08 136.848L232.192 136.848C228.069 136.848 224.727 140.19 224.727 144.313C224.727 147.526 226.783 150.379 229.832 151.395L232.941 152.431L235.708 166.777C236.568 171.231 241.247 173.823 245.479 172.19Z" fill="white" stroke="#5592FC" strokeWidth="1.18693"/>
<path d="M134.281 38.8613V40.0371H125.695V34.7871H134.186V35.9629H127.24V36.8242H133.885V37.9727H127.24V38.8613H134.281ZM135.539 40.8574V42.0879H130.658V43.1133H134.186V46.7637H132.682V44.3164H125.518V43.1133H129.141V42.0879H124.273V40.8574H135.539ZM142.723 36.0996C142.723 38.0137 144.596 39.9277 147.18 40.3789L146.496 41.6504C144.425 41.2129 142.73 39.9619 141.93 38.3008C141.11 39.9482 139.414 41.2061 137.35 41.6504L136.68 40.3789C139.236 39.9141 141.096 38 141.11 36.0996V35.1836H142.723V36.0996ZM147.631 43.9336V45.1914H136.338V43.9336H147.631ZM158.971 34.418V43.7012H157.522V39.3398H156.223V43.332H154.787V34.6504H156.223V38.0957H157.522V34.418H158.971ZM159.326 45.2871V46.5176H150.645V42.5938H152.162V45.2871H159.326ZM153.871 35.457C153.871 38.6016 152.586 40.9395 149.127 42.4023L148.403 41.3223C149.961 40.6797 150.993 39.8799 151.629 38.9023L148.676 39.2305L148.471 37.9863L152.162 37.7812C152.265 37.4326 152.34 37.0635 152.381 36.6738H149.018V35.457H153.871Z" fill="black"/>
<rect x="36" y="18"Width="76.4424" height="73.7874" rx="15" fill="white"/>
<ellipse cx="74.2188" cy="48.8402" rx="22.5" ry="9.65268" fill="#5592FC"/>
<path d="M81.8194 54.0204C82.6604 54.0204 83.3852 53.5769 83.7919 52.9229C84.7759 54.1389 86.7933 54.1342 87.7029 52.6621C88.4097 51.5182 88.041 50.017 86.8848 49.3307L85.7812 48.6756L86.5088 48.3829C87.8386 47.8479 88.4015 46.2708 87.7111 45.0147C86.8862 43.5138 84.8256 43.3615 83.7753 44.6416C83.7587 43.6851 83.1548 42.819 82.2328 42.486C80.6572 41.917 79.0124 43.1423 79.1067 44.8149L79.5023 51.8303C79.5716 53.0593 80.5884 54.0204 81.8194 54.0204Z" fill="white" stroke="#5592FC" strokeWidth="1.18693"/>
<path fillRule="evenodd" clipRule="evenodd" d="M71.9617 52.6219C72.2204 52.5644 72.4752 52.7341 72.531 53.001C72.8869 54.7047 75.2576 54.7208 75.6285 52.9979C75.6859 52.7314 75.9418 52.5634 76.2001 52.6226C76.4584 52.6818 76.6212 52.9458 76.5638 53.2123C75.9746 55.9494 72.1714 55.9716 71.5944 53.2093C71.5386 52.9424 71.7031 52.6794 71.9617 52.6219Z" fill="white"/>
<path d="M73.5914 48.1138C73.5914 49.5719 74.0315 50.8687 74.7142 51.7873C75.397 52.7059 76.2934 53.2161 77.2314 53.2161C78.1694 53.2161 79.0658 52.7059 79.7486 51.7873C80.4313 50.8687 80.8714 49.5719 80.8714 48.1138C80.8714 46.6557 80.4313 45.3588 79.7486 44.4402C79.0658 43.5217 78.1694 43.0114 77.2314 43.0114C76.2934 43.0114 75.397 43.5217 74.7142 44.4402C74.0315 45.3588 73.5914 46.6557 73.5914 48.1138Z" fill="white" stroke="#5592FC" strokeWidth="1.18693"/>
<path d="M67.2028 48.1138C67.2028 49.5719 67.6428 50.8687 68.3255 51.7873C69.0083 52.7059 69.9047 53.2161 70.8427 53.2161C71.7808 53.2161 72.6772 52.7059 73.3599 51.7873C74.0427 50.8687 74.4827 49.5719 74.4827 48.1138C74.4827 46.6557 74.0427 45.3588 73.3599 44.4402C72.6772 43.5217 71.7808 43.0114 70.8427 43.0114C69.9047 43.0114 69.0083 43.5217 68.3255 44.4402C67.6428 45.3588 67.2028 46.6557 67.2028 48.1138Z" fill="white" stroke="#5592FC" strokeWidth="1.18693"/>
<ellipse cx="1.50259" cy="3.41953" rx="1.50259" ry="3.41953" transform="matrix(-1 0 0 1 81.1758 44.9062)" fill="#5592FC"/>
<path d="M80.5788 48.9131C80.0952 48.3837 79.2512 48.3837 78.7676 48.9131C78.792 49.5935 78.9388 50.1811 79.1424 50.5915C79.3839 51.0784 79.6067 51.149 79.6732 51.149C79.7397 51.149 79.9625 51.0784 80.204 50.5915C80.4075 50.1811 80.5544 49.5935 80.5788 48.9131Z" fill="white" stroke="#5592FC" strokeWidth="1.18693"/>
<ellipse cx="1.50259" cy="3.41953" rx="1.50259" ry="3.41953" transform="matrix(-1 0 0 1 74.7871 44.9062)" fill="#5592FC"/>
<path d="M74.1901 48.9131C73.7065 48.3837 72.8625 48.3837 72.379 48.9131C72.4033 49.5935 72.5502 50.1811 72.7537 50.5915C72.9952 51.0784 73.218 51.149 73.2845 51.149C73.351 51.149 73.5738 51.0784 73.8154 50.5915C74.0189 50.1811 74.1657 49.5935 74.1901 48.9131Z" fill="white" stroke="#5592FC" strokeWidth="1.18693"/>
<path d="M67.7871 50.138L66.7246 48.3982C68.3418 48.4819 69.783 47.1931 69.783 45.4855C69.783 43.8756 68.478 42.5706 66.8682 42.5706L62.3215 42.5706C60.8626 42.5706 59.68 43.7532 59.68 45.212C59.68 46.3525 60.4119 47.3642 61.4952 47.721L62.2152 47.9581L63.0034 51.9962C63.3133 53.5841 64.9797 54.5093 66.4914 53.9326C68.015 53.3513 68.637 51.5297 67.7871 50.138Z" fill="white" stroke="#5592FC" strokeWidth="1.18693"/>
<g filter="url(#filter1_d_3452_39473)">
<path d="M313.847 381.022C311.568 380.335 309.427 382.401 310.139 384.601L322.409 422.502C323.072 424.552 325.754 425.188 327.326 423.67L354.321 397.612C355.894 396.094 355.235 393.506 353.112 392.866L313.847 381.022Z" fill="#FFF69B" stroke="#CCC157"/>
</g>
</g>
<defs>
<filter id="filter0_dd_3452_39473" x="0" y="-6" width="454" height="479.008" filterUnits="userSpaceOnUse" color-interpolation-filters="sRGB">
<feFlood flood-opacity="0" result="BackgroundImageFix"/>
<feColorMatrix in="SourceAlpha" type="matrix" values="0 0 0 0 0 0 0 0 0 0 0 0 0 0 0 0 0 0 127 0" result="hardAlpha"/>
<feOffset dy="12"/>
<feGaussianBlur stdDeviation="18"/>
<feComposite in2="hardAlpha" operator="out"/>
<feColorMatrix type="matrix" values="0 0 0 0 0.333333 0 0 0 0 0.572549 0 0 0 0 0.988235 0 0 0 0.18 0"/>
<feBlend mode="normal" in2="BackgroundImageFix" result="effect1_dropShadow_3452_39473"/>
<feColorMatrix in="SourceAlpha" type="matrix" values="0 0 0 0 0 0 0 0 0 0 0 0 0 0 0 0 0 0 127 0" result="hardAlpha"/>
<feOffset dy="1"/>
<feGaussianBlur stdDeviation="2"/>
<feComposite in2="hardAlpha" operator="out"/>
<feColorMatrix type="matrix" values="0 0 0 0 0.333333 0 0 0 0 0.572549 0 0 0 0 0.988235 0 0 0 0.16 0"/>
<feBlend mode="normal" in2="effect1_dropShadow_3452_39473" result="effect2_dropShadow_3452_39473"/>
<feBlend mode="normal" in="SourceGraphic" in2="effect2_dropShadow_3452_39473" result="shape"/>
</filter>
<filter id="filter1_d_3452_39473" x="296.898" y="380.391" width="71.3934" height="71.6172" filterUnits="userSpaceOnUse" color-interpolation-filters="sRGB">
<feFlood flood-opacity="0" result="BackgroundImageFix"/>
<feColorMatrix in="SourceAlpha" type="matrix" values="0 0 0 0 0 0 0 0 0 0 0 0 0 0 0 0 0 0 127 0" result="hardAlpha"/>
<feOffset dy="14.4"/>
<feGaussianBlur stdDeviation="6.3"/>
<feColorMatrix type="matrix" values="0 0 0 0 0 0 0 0 0 0 0 0 0 0 0 0 0 0 0.1 0"/>
<feBlend mode="normal" in2="BackgroundImageFix" result="effect1_dropShadow_3452_39473"/>
<feBlend mode="normal" in="SourceGraphic" in2="effect1_dropShadow_3452_39473" result="shape"/>
</filter>
</defs>
</svg>
