<svg width="600" height="600" viewBox="0 0 520 378" fill="none" xmlns="http://www.w3.org/2000/svg">
<g filter="url(#filter0_dd_3460_40875)">
<path d="M212.354 323.221L185.227 98.4188C184.812 94.9814 187.03 91.7755 190.392 90.9511L344.515 53.1644C348.443 52.2015 352.344 54.8353 352.92 58.838L385.008 282C385.509 285.479 383.292 288.772 379.88 289.618L220.796 329.044C216.804 330.034 212.847 327.304 212.354 323.221Z" fill="#3C7AE5"/>
<path d="M217.769 326.706L214.679 324.591C214.046 324.157 213.624 323.477 213.516 322.717L180.786 92.5983C180.59 91.2186 181.461 89.9116 182.81 89.5623L322.972 53.2769C334.057 50.4071 345.168 57.8346 346.755 69.1748L376.338 280.635C376.528 281.991 375.687 283.278 374.369 283.649L220.058 327.083C219.277 327.303 218.438 327.165 217.769 326.706Z" fill="white"/>
<path d="M205.22 319.584L172.482 95.3252C171.988 91.9451 174.063 88.7186 177.343 87.7643L324.369 44.9864C328.364 43.824 332.464 46.4658 333.056 50.5844L365.139 273.71C365.622 277.064 363.577 280.267 360.331 281.24L213.96 325.152C209.958 326.352 205.824 323.718 205.22 319.584Z" fill="#5592FC"/>
<path d="M191.425 120.908C193.099 121.785 195.168 121.138 196.044 119.464C196.921 117.79 196.275 115.721 194.6 114.845L191.425 120.908ZM168.184 117.198L170.26 119.918L168.184 117.198ZM194.6 114.845C190.119 112.498 184.952 111.02 179.992 110.777C175.07 110.536 170.003 111.503 166.107 114.477L170.26 119.918C172.448 118.248 175.722 117.421 179.657 117.614C183.554 117.805 187.759 118.988 191.425 120.908L194.6 114.845ZM166.107 114.477C162.811 116.993 160.683 122.033 162.413 126.497C164.383 131.583 170.153 133.559 178 132.34L176.95 125.576C170.181 126.628 168.979 124.499 168.795 124.024C168.37 122.928 168.904 120.953 170.26 119.918L166.107 114.477Z" fill="#B4D0FF"/>
<path d="M196.345 154.826C198.019 155.703 200.088 155.056 200.964 153.382C201.841 151.708 201.195 149.639 199.52 148.763L196.345 154.826ZM173.103 151.116L175.18 153.836L173.103 151.116ZM199.52 148.763C195.039 146.416 189.871 144.938 184.912 144.695C179.99 144.454 174.923 145.421 171.027 148.395L175.18 153.836C177.368 152.166 180.642 151.339 184.577 151.532C188.474 151.723 192.679 152.906 196.345 154.826L199.52 148.763ZM171.027 148.395C167.731 150.911 165.602 155.951 167.333 160.415C169.303 165.501 175.073 167.477 182.92 166.258L181.87 159.494C175.1 160.546 173.899 158.417 173.715 157.942C173.29 156.846 173.823 154.871 175.18 153.836L171.027 148.395Z" fill="#B4D0FF"/>
<path d="M201.216 188.744C202.891 189.621 204.959 188.974 205.836 187.3C206.712 185.626 206.066 183.557 204.391 182.68L201.216 188.744ZM177.975 185.034L180.051 187.754L177.975 185.034ZM204.391 182.68C199.91 180.334 194.743 178.856 189.783 178.613C184.861 178.372 179.794 179.339 175.898 182.313L180.051 187.754C182.239 186.084 185.513 185.257 189.448 185.45C193.345 185.641 197.55 186.824 201.216 188.744L204.391 182.68ZM175.898 182.313C172.602 184.829 170.474 189.869 172.204 194.333C174.174 199.419 179.944 201.395 187.791 200.176L186.741 193.412C179.972 194.464 178.77 192.335 178.586 191.86C178.161 190.764 178.695 188.789 180.051 187.754L175.898 182.313Z" fill="#B4D0FF"/>
<path d="M206.263 222.666C207.937 223.543 210.006 222.896 210.882 221.222C211.759 219.547 211.113 217.479 209.438 216.602L206.263 222.666ZM183.021 218.955L185.098 221.676L183.021 218.955ZM209.438 216.602C204.957 214.256 199.789 212.778 194.83 212.535C189.908 212.294 184.841 213.261 180.945 216.235L185.098 221.676C187.286 220.005 190.56 219.179 194.495 219.371C198.392 219.562 202.597 220.746 206.263 222.666L209.438 216.602ZM180.945 216.235C177.649 218.751 175.52 223.791 177.25 228.255C179.221 233.34 184.991 235.316 192.838 234.098L191.788 227.334C185.018 228.386 183.817 226.257 183.633 225.782C183.208 224.686 183.741 222.711 185.098 221.676L180.945 216.235Z" fill="#B4D0FF"/>
<path d="M211.017 256.58C212.691 257.457 214.759 256.81 215.636 255.136C216.513 253.461 215.867 251.393 214.192 250.516L211.017 256.58ZM187.775 252.87L189.852 255.59L187.775 252.87ZM214.192 250.516C209.711 248.17 204.543 246.692 199.584 246.449C194.662 246.208 189.595 247.175 185.699 250.149L189.852 255.59C192.04 253.919 195.314 253.093 199.249 253.286C203.146 253.476 207.351 254.66 211.017 256.58L214.192 250.516ZM185.699 250.149C182.403 252.665 180.274 257.705 182.004 262.169C183.975 267.254 189.745 269.231 197.592 268.012L196.542 261.248C189.772 262.3 188.571 260.171 188.387 259.696C187.962 258.6 188.495 256.625 189.852 255.59L185.699 250.149Z" fill="#B4D0FF"/>
<path d="M216.113 290.502C217.787 291.379 219.855 290.732 220.732 289.058C221.609 287.383 220.962 285.315 219.288 284.438L216.113 290.502ZM192.871 286.791L194.947 289.512L192.871 286.791ZM219.288 284.438C214.807 282.092 209.639 280.614 204.68 280.371C199.758 280.13 194.691 281.097 190.795 284.071L194.947 289.512C197.136 287.841 200.41 287.015 204.345 287.207C208.242 287.398 212.446 288.582 216.113 290.502L219.288 284.438ZM190.795 284.071C187.499 286.587 185.37 291.627 187.1 296.091C189.071 301.176 194.841 303.152 202.688 301.934L201.637 295.17C194.868 296.221 193.666 294.093 193.482 293.618C193.058 292.522 193.591 290.547 194.947 289.512L190.795 284.071Z" fill="#B4D0FF"/>
<circle cx="443.794" cy="111.013" r="8.22366" fill="#FFE101" fill-opacity="0.1"/>
<circle cx="8.22366" cy="8.22366" r="8.22366" transform="matrix(-1 0 0 1 115.547 102.789)" fill="#FFE101" fill-opacity="0.1"/>
<circle cx="497.941" cy="94.3742" r="11.9679" fill="#FFE101" fill-opacity="0.5"/>
<ellipse cx="53.177" cy="94.3721" rx="17.177" ry="17.1729" fill="#FFE101" fill-opacity="0.5"/>
<circle cx="447.538" cy="35.9679" r="11.9679" fill="#FFFBD0"/>
<circle cx="11.9679" cy="11.9679" r="11.9679" transform="matrix(-1 0 0 1 115.547 24)" fill="#FFFBD0"/>
<circle cx="11.9679" cy="11.9679" r="11.9679" transform="matrix(-1 0 0 1 463.986 191.984)" fill="#FFFBD0"/>
<circle cx="99.0988" cy="203.952" r="11.9679" fill="#FFFBD0"/>
<circle cx="5.03745" cy="5.03745" r="5.03745" transform="matrix(1 0 0 -1 509.908 54.7539)" fill="#F2F7FF"/>
<circle cx="5.03745" cy="5.03745" r="5.03745" transform="matrix(1 0 0 -1 425.494 182.375)" fill="#F2F7FF"/>
<circle cx="120.586" cy="177.338" r="5.03745" transform="rotate(180 120.586 177.338)" fill="#F2F7FF"/>
</g>
<defs>
<filter id="filter0_dd_3460_40875" x="0" y="0" width="555.982" height="377.246" filterUnits="userSpaceOnUse" color-interpolation-filters="sRGB">
<feFlood flood-opacity="0" result="BackgroundImageFix"/>
<feColorMatrix in="SourceAlpha" type="matrix" values="0 0 0 0 0 0 0 0 0 0 0 0 0 0 0 0 0 0 127 0" result="hardAlpha"/>
<feOffset dy="12"/>
<feGaussianBlur stdDeviation="18"/>
<feComposite in2="hardAlpha" operator="out"/>
<feColorMatrix type="matrix" values="0 0 0 0 0.333333 0 0 0 0 0.572549 0 0 0 0 0.988235 0 0 0 0.18 0"/>
<feBlend mode="normal" in2="BackgroundImageFix" result="effect1_dropShadow_3460_40875"/>
<feColorMatrix in="SourceAlpha" type="matrix" values="0 0 0 0 0 0 0 0 0 0 0 0 0 0 0 0 0 0 127 0" result="hardAlpha"/>
<feOffset dy="1"/>
<feGaussianBlur stdDeviation="2"/>
<feComposite in2="hardAlpha" operator="out"/>
<feColorMatrix type="matrix" values="0 0 0 0 0.333333 0 0 0 0 0.572549 0 0 0 0 0.988235 0 0 0 0.16 0"/>
<feBlend mode="normal" in2="effect1_dropShadow_3460_40875" result="effect2_dropShadow_3460_40875"/>
<feBlend mode="normal" in="SourceGraphic" in2="effect2_dropShadow_3460_40875" result="shape"/>
</filter>
</defs>
</svg>
