<svg width="40" height="40" viewBox="0 0 40 40" fill="none" xmlns="http://www.w3.org/2000/svg">
<path opacity="0.3" d="M20.0007 36.6693C29.2054 36.6693 36.6673 29.2074 36.6673 20.0026C36.6673 10.7979 29.2054 3.33594 20.0007 3.33594C10.7959 3.33594 3.33398 10.7979 3.33398 20.0026C3.33398 29.2074 10.7959 36.6693 20.0007 36.6693Z" fill="#5592FC"/>
<path opacity="0.3" fill-rule="evenodd" clip-rule="evenodd" d="M19.9993 18.3307C18.1584 18.3307 16.666 16.8383 16.666 14.9974C16.666 13.1564 18.1584 11.6641 19.9993 11.6641C21.8403 11.6641 23.3327 13.1564 23.3327 14.9974C23.3327 16.8383 21.8403 18.3307 19.9993 18.3307ZM11.6666 27.4966C12.0255 22.525 15.6122 19.9974 19.9839 19.9974C24.4171 19.9974 28.0594 22.3861 28.3308 27.4974C28.3416 27.701 28.3308 28.3307 27.6352 28.3307H12.3396C12.1074 28.3307 11.6471 27.7674 11.6666 27.4966Z" fill="#5592FC"/>
</svg>
