<svg width="245" height="124" viewBox="0 0 245 124" fill="none" xmlns="http://www.w3.org/2000/svg">
<path d="M229.364 50.122C239.176 46.2963 243.313 34.6578 238.118 25.4968C231.782 14.3247 215.904 13.724 208.742 24.3854L202.761 33.2878L203.955 24.5466C205.049 16.5336 200.351 8.85785 192.718 6.18633C181.259 2.17589 169.407 11.1132 170.112 23.2333L173.468 80.9149C173.988 89.8508 181.387 96.831 190.338 96.831C198.481 96.831 205.123 91.1217 206.819 83.6983L206.836 83.7495C211.62 97.549 230.219 99.7343 238.071 87.4194C243.425 79.0213 240.685 67.8531 232.052 62.8867L217.741 54.6539L229.364 50.122Z" fill="white" stroke="#5592FC" strokeWidth="4.12203"/>
<path d="M100.398 97.207C105.844 122.474 141.655 122.165 147.191 97.2452C147.932 93.9095 145.828 90.6047 142.493 89.8636C139.157 89.1226 135.852 91.2259 135.111 94.5616C132.398 106.775 115.087 106.63 112.494 94.5997L110.476 95.0348L112.494 94.5997C111.774 91.2594 108.483 89.1353 105.143 89.8553C101.802 90.5752 99.6782 93.8668 100.398 97.207ZM100.398 97.207L102.417 96.7719L100.398 97.207Z" fill="white" stroke="#5592FC" strokeWidth="4.12997" stroke-linecap="round" stroke-linejoin="round"/>
<path d="M116.553 50.4754C116.553 63.1771 120.504 74.6005 126.796 82.8052C133.087 91.0078 141.633 95.9093 150.917 95.9093C160.201 95.9093 168.747 91.0078 175.038 82.8052C181.33 74.6005 185.281 63.1771 185.281 50.4754C185.281 37.7738 181.33 26.3503 175.038 18.1457C168.747 9.94307 160.201 5.04149 150.917 5.04149C141.633 5.04149 133.087 9.94307 126.796 18.1457C120.504 26.3503 116.553 37.7738 116.553 50.4754Z" fill="white" stroke="#5592FC" strokeWidth="4.12203"/>
<path d="M61.5685 50.4754C61.5685 63.1771 65.5191 74.6005 71.8115 82.8052C78.1023 91.0078 86.6484 95.9093 95.9324 95.9093C105.216 95.9093 113.763 91.0078 120.053 82.8052C126.346 74.6005 130.296 63.1771 130.296 50.4754C130.296 37.7738 126.346 26.3503 120.053 18.1457C113.763 9.94307 105.216 5.04149 95.9324 5.04149C86.6484 5.04149 78.1023 9.94307 71.8115 18.1457C65.5191 26.3503 61.5685 37.7738 61.5685 50.4754Z" fill="white" stroke="#5592FC" strokeWidth="4.12203"/>
<ellipse cx="12.9284" cy="28.5141" rx="12.9284" ry="28.5141" transform="matrix(-1 0 0 1 184.857 23.7188)" fill="#5592FC"/>
<path d="M182.792 56.162C177.29 49.1033 166.568 49.1033 161.066 56.162C161.156 62.6055 162.532 68.3278 164.622 72.4107C166.84 76.7457 169.535 78.6877 171.929 78.6877C174.323 78.6877 177.018 76.7457 179.236 72.4107C181.326 68.3278 182.702 62.6055 182.792 56.162Z" fill="white" stroke="#5592FC" strokeWidth="4.12203"/>
<ellipse cx="12.9284" cy="28.5141" rx="12.9284" ry="28.5141" transform="matrix(-1 0 0 1 129.879 23.7188)" fill="#5592FC"/>
<path d="M127.813 56.162C122.312 49.1033 111.589 49.1033 106.088 56.162C106.178 62.6055 107.554 68.3278 109.643 72.4107C111.862 76.7457 114.556 78.6877 116.95 78.6877C119.345 78.6877 122.039 76.7457 124.258 72.4107C126.347 68.3278 127.723 62.6055 127.813 56.162Z" fill="white" stroke="#5592FC" strokeWidth="4.12203"/>
<path d="M56.9943 96.4472C68.4626 92.2072 73.1194 78.4858 66.6009 68.1413L54.407 48.7904L56.5078 49.3739C70.2149 53.1807 83.7763 42.8724 83.7763 28.6465C83.7763 16.7658 74.1451 7.13462 62.2645 7.13457L22.0084 7.13438C11.4769 7.13433 2.93927 15.6718 2.93914 26.2033C2.93903 34.5013 8.30507 41.8468 16.2102 44.3699L24.3645 46.9725L31.4589 82.1985C33.7914 93.7802 45.9132 100.544 56.9943 96.4472Z" fill="white" stroke="#5592FC" strokeWidth="4.12203"/>
</svg>
